<?xml version="1.0" encoding="UTF-8"?>
<!DOCTYPE svg PUBLIC "-//W3C//DTD SVG 1.1//EN" "http://www.w3.org/Graphics/SVG/1.1/DTD/svg11.dtd">
<!-- Creator: CorelDRAW 2019 (64-Bit) -->
<svg xmlns="http://www.w3.org/2000/svg" xml:space="preserve" width="81px" height="100px" version="1.1" style="shape-rendering:geometricPrecision; text-rendering:geometricPrecision; image-rendering:optimizeQuality; fill-rule:evenodd; clip-rule:evenodd"
viewBox="0 0 81 100"
 xmlns:xlink="http://www.w3.org/1999/xlink"
 xmlns:xodm="http://www.corel.com/coreldraw/odm/2003">
 <defs>
  <style type="text/css">
   <![CDATA[
    .fil11 {fill:#FEFEFE}
    .fil8 {fill:#D9DADA}
    .fil1 {fill:#213768}
    .fil0 {fill:#FEFEFE;fill-rule:nonzero}
    .fil2 {fill:url(#id0)}
    .fil9 {fill:url(#id1)}
    .fil6 {fill:url(#id2)}
    .fil10 {fill:url(#id3)}
    .fil4 {fill:url(#id4)}
    .fil3 {fill:url(#id5)}
    .fil5 {fill:url(#id6)}
    .fil7 {fill:url(#id7)}
   ]]>
  </style>
  <linearGradient id="id0" gradientUnits="userSpaceOnUse" x1="13.28" y1="38.92" x2="67.71" y2="38.92">
   <stop offset="0" style="stop-opacity:1; stop-color:#0A6CF1"/>
   <stop offset="1" style="stop-opacity:1; stop-color:#2BFBEE"/>
  </linearGradient>
  <radialGradient id="id1" gradientUnits="userSpaceOnUse" gradientTransform="matrix(1.08447 -0 -0 1.08447 -1 -2)" cx="8.36" cy="25.44" r="6.74" fx="8.36" fy="25.44">
   <stop offset="0" style="stop-opacity:1; stop-color:#FEFEFE"/>
   <stop offset="1" style="stop-opacity:1; stop-color:#C5C6C6"/>
  </radialGradient>
  <radialGradient id="id2" gradientUnits="userSpaceOnUse" gradientTransform="matrix(1.29966 -4.57795E-16 4.57813E-16 1.29971 -6 -11)" xlink:href="#id1" cx="20.09" cy="37.92" r="18.47" fx="20.09" fy="37.92">
  </radialGradient>
  <radialGradient id="id3" gradientUnits="userSpaceOnUse" gradientTransform="matrix(1.34993 8.88189E-16 -1.48766E-15 1.34991 -18 -5)" xlink:href="#id1" cx="51.4" cy="13.46" r="5.41" fx="51.4" fy="13.46">
  </radialGradient>
  <radialGradient id="id4" gradientUnits="userSpaceOnUse" gradientTransform="matrix(2.67405 -5.55112E-17 5.55112E-17 2.67405 -11 -74)" xlink:href="#id1" cx="6.69" cy="44.21" r="16.26" fx="6.69" fy="44.21">
  </radialGradient>
  <radialGradient id="id5" gradientUnits="userSpaceOnUse" gradientTransform="matrix(1.52375 -2.22045E-16 2.22045E-16 1.52375 -24 -21)" xlink:href="#id1" cx="45.82" cy="39.15" r="21.6" fx="45.82" fy="39.15">
  </radialGradient>
  <radialGradient id="id6" gradientUnits="userSpaceOnUse" gradientTransform="matrix(2.49593 3.33067E-16 -3.33067E-16 2.49593 -77 -59)" xlink:href="#id1" cx="51.62" cy="39.68" r="14.78" fx="51.62" fy="39.68">
  </radialGradient>
  <radialGradient id="id7" gradientUnits="userSpaceOnUse" gradientTransform="matrix(1.74738 -0 -0 1.74741 -19 -4)" cx="25.27" cy="5.13" r="48.25" fx="25.27" fy="5.13">
   <stop offset="0" style="stop-opacity:1; stop-color:#FEFEFE"/>
   <stop offset="0.560784" style="stop-opacity:1; stop-color:#E1E2E2"/>
   <stop offset="1" style="stop-opacity:1; stop-color:#C5C6C6"/>
  </radialGradient>
 </defs>
 <g id="Layer_x0020_1">
  <metadata id="CorelCorpID_0Corel-Layer"/>
  <g id="_3001756161792">
   <path class="fil0" d="M5.79 97.81l0 1.17c0,0.01 -0.01,0.03 -0.02,0.04 -0.01,0.02 -0.03,0.03 -0.05,0.04 -0.03,0 -0.06,0.01 -0.11,0.02 -0.04,0 -0.1,0 -0.16,0 -0.07,0 -0.12,0 -0.16,0 -0.05,-0.01 -0.08,-0.02 -0.11,-0.02 -0.02,-0.01 -0.04,-0.02 -0.05,-0.04 -0.01,-0.01 -0.02,-0.03 -0.02,-0.04l0 -1.17 -0.91 -1.81c-0.03,-0.06 -0.05,-0.11 -0.06,-0.15 -0.01,-0.03 0,-0.06 0.02,-0.08 0.02,-0.01 0.05,-0.02 0.11,-0.03 0.05,0 0.12,0 0.21,0 0.08,0 0.15,0 0.19,0 0.05,0 0.09,0.01 0.11,0.02 0.03,0.01 0.05,0.02 0.06,0.04 0.02,0.01 0.03,0.03 0.04,0.06l0.37 0.81c0.04,0.08 0.07,0.16 0.11,0.25 0.03,0.09 0.07,0.18 0.11,0.27l0 0c0.03,-0.09 0.07,-0.18 0.1,-0.26 0.04,-0.09 0.07,-0.17 0.1,-0.25l0.37 -0.81c0,-0.03 0.01,-0.05 0.03,-0.07 0.01,-0.02 0.03,-0.03 0.06,-0.04 0.02,-0.01 0.06,-0.02 0.1,-0.02 0.04,0 0.1,0 0.18,0 0.09,0 0.17,0 0.22,0 0.06,0.01 0.1,0.02 0.11,0.03 0.02,0.02 0.03,0.05 0.02,0.09 -0.01,0.03 -0.03,0.08 -0.06,0.14l-0.91 1.81zm3.31 0c0,0.2 -0.02,0.38 -0.07,0.54 -0.06,0.16 -0.13,0.3 -0.24,0.41 -0.1,0.12 -0.23,0.21 -0.39,0.27 -0.16,0.07 -0.34,0.1 -0.55,0.1 -0.2,0 -0.38,-0.03 -0.53,-0.09 -0.15,-0.05 -0.28,-0.14 -0.38,-0.24 -0.1,-0.11 -0.17,-0.24 -0.22,-0.4 -0.04,-0.16 -0.07,-0.34 -0.07,-0.54 0,-0.19 0.03,-0.37 0.08,-0.53 0.05,-0.16 0.13,-0.3 0.24,-0.42 0.1,-0.11 0.23,-0.2 0.39,-0.27 0.15,-0.06 0.34,-0.09 0.55,-0.09 0.2,0 0.38,0.03 0.53,0.08 0.15,0.06 0.27,0.14 0.37,0.25 0.1,0.1 0.17,0.24 0.22,0.39 0.05,0.16 0.07,0.34 0.07,0.54zm-0.66 0.03c0,-0.11 -0.01,-0.22 -0.03,-0.31 -0.01,-0.1 -0.04,-0.18 -0.09,-0.25 -0.04,-0.07 -0.1,-0.12 -0.17,-0.16 -0.07,-0.04 -0.16,-0.06 -0.27,-0.06 -0.09,0 -0.18,0.02 -0.25,0.05 -0.07,0.04 -0.13,0.09 -0.18,0.16 -0.04,0.06 -0.08,0.14 -0.1,0.24 -0.03,0.09 -0.04,0.2 -0.04,0.32 0,0.12 0.01,0.22 0.03,0.31 0.02,0.1 0.05,0.18 0.09,0.25 0.05,0.07 0.1,0.13 0.17,0.16 0.08,0.04 0.17,0.06 0.27,0.06 0.1,0 0.19,-0.01 0.26,-0.05 0.07,-0.04 0.13,-0.09 0.18,-0.15 0.04,-0.07 0.08,-0.15 0.1,-0.24 0.02,-0.1 0.03,-0.21 0.03,-0.33zm3.42 1.14c0,0.02 0,0.03 -0.01,0.05 -0.01,0.01 -0.03,0.02 -0.05,0.03 -0.02,0.01 -0.05,0.01 -0.08,0.02 -0.04,0 -0.08,0 -0.13,0 -0.06,0 -0.11,0 -0.14,0 -0.04,-0.01 -0.07,-0.01 -0.09,-0.02 -0.02,-0.01 -0.03,-0.02 -0.04,-0.03 -0.01,-0.02 -0.01,-0.03 -0.01,-0.05l0 -0.26c-0.13,0.13 -0.26,0.24 -0.39,0.3 -0.13,0.07 -0.26,0.11 -0.4,0.11 -0.16,0 -0.29,-0.03 -0.4,-0.08 -0.11,-0.05 -0.19,-0.12 -0.26,-0.21 -0.07,-0.09 -0.11,-0.19 -0.14,-0.31 -0.03,-0.12 -0.04,-0.26 -0.04,-0.44l0 -1.4c0,-0.01 0,-0.03 0.01,-0.04 0.01,-0.01 0.03,-0.02 0.05,-0.03 0.03,-0.01 0.06,-0.02 0.1,-0.02 0.04,-0.01 0.1,-0.01 0.16,-0.01 0.06,0 0.11,0 0.15,0.01 0.05,0 0.08,0.01 0.1,0.02 0.03,0.01 0.05,0.02 0.06,0.03 0.01,0.01 0.01,0.03 0.01,0.04l0 1.3c0,0.12 0.01,0.21 0.02,0.27 0.02,0.06 0.04,0.12 0.08,0.16 0.03,0.05 0.07,0.08 0.12,0.11 0.04,0.02 0.1,0.03 0.17,0.03 0.08,0 0.16,-0.02 0.24,-0.08 0.09,-0.06 0.18,-0.15 0.27,-0.26l0 -1.53c0,-0.01 0,-0.03 0.01,-0.04 0.01,-0.01 0.03,-0.02 0.05,-0.03 0.03,-0.01 0.06,-0.02 0.1,-0.02 0.04,-0.01 0.1,-0.01 0.16,-0.01 0.06,0 0.12,0 0.16,0.01 0.04,0 0.07,0.01 0.09,0.02 0.03,0.01 0.04,0.02 0.05,0.03 0.01,0.01 0.02,0.03 0.02,0.04l0 2.29zm2.19 -2.07c0,0.06 0,0.11 0,0.15 -0.01,0.04 -0.01,0.07 -0.02,0.09 0,0.02 -0.01,0.04 -0.02,0.05 -0.01,0.01 -0.03,0.01 -0.05,0.01 -0.01,0 -0.02,0 -0.04,-0.01 -0.02,-0.01 -0.04,-0.01 -0.06,-0.02 -0.02,-0.01 -0.04,-0.01 -0.07,-0.02 -0.03,0 -0.05,-0.01 -0.09,-0.01 -0.03,0 -0.07,0.01 -0.1,0.02 -0.04,0.02 -0.08,0.04 -0.11,0.07 -0.04,0.03 -0.08,0.08 -0.13,0.13 -0.04,0.05 -0.08,0.11 -0.13,0.18l0 1.43c0,0.02 0,0.03 -0.02,0.05 -0.01,0.01 -0.02,0.02 -0.05,0.03 -0.02,0.01 -0.06,0.01 -0.1,0.02 -0.04,0 -0.09,0 -0.15,0 -0.07,0 -0.12,0 -0.16,0 -0.04,-0.01 -0.07,-0.01 -0.1,-0.02 -0.02,-0.01 -0.04,-0.02 -0.05,-0.03 -0.01,-0.02 -0.02,-0.03 -0.02,-0.05l0 -2.29c0,-0.01 0.01,-0.03 0.02,-0.04 0.01,-0.01 0.02,-0.02 0.04,-0.03 0.03,-0.01 0.05,-0.02 0.09,-0.02 0.03,-0.01 0.08,-0.01 0.13,-0.01 0.06,0 0.1,0 0.14,0.01 0.03,0 0.06,0.01 0.08,0.02 0.02,0.01 0.03,0.02 0.04,0.03 0.01,0.01 0.02,0.03 0.02,0.04l0 0.29c0.05,-0.09 0.11,-0.16 0.16,-0.21 0.06,-0.06 0.11,-0.1 0.16,-0.13 0.04,-0.04 0.09,-0.06 0.14,-0.07 0.05,-0.01 0.1,-0.02 0.14,-0.02 0.02,0 0.05,0 0.08,0 0.02,0.01 0.05,0.01 0.07,0.02 0.03,0 0.06,0.01 0.08,0.02 0.02,0 0.03,0.01 0.04,0.02 0.01,0.01 0.02,0.02 0.02,0.03 0.01,0.01 0.01,0.02 0.01,0.04 0.01,0.02 0.01,0.05 0.01,0.08 0,0.04 0,0.09 0,0.15zm3.67 1.16c0,0.18 -0.03,0.33 -0.1,0.46 -0.06,0.13 -0.15,0.24 -0.26,0.33 -0.12,0.09 -0.25,0.16 -0.39,0.2 -0.15,0.04 -0.31,0.07 -0.48,0.07 -0.12,0 -0.22,-0.01 -0.32,-0.03 -0.1,-0.02 -0.19,-0.04 -0.26,-0.07 -0.08,-0.03 -0.14,-0.06 -0.19,-0.08 -0.05,-0.03 -0.09,-0.06 -0.11,-0.08 -0.02,-0.03 -0.04,-0.06 -0.05,-0.1 -0.01,-0.04 -0.01,-0.1 -0.01,-0.18 0,-0.05 0,-0.1 0,-0.13 0.01,-0.04 0.01,-0.07 0.02,-0.09 0.01,-0.02 0.02,-0.04 0.03,-0.05 0.02,-0.01 0.03,-0.01 0.05,-0.01 0.02,0 0.06,0.01 0.1,0.04 0.04,0.03 0.1,0.06 0.17,0.09 0.07,0.04 0.15,0.07 0.24,0.1 0.1,0.03 0.21,0.04 0.33,0.04 0.08,0 0.16,-0.01 0.22,-0.03 0.07,-0.02 0.12,-0.05 0.17,-0.08 0.05,-0.04 0.08,-0.08 0.1,-0.13 0.03,-0.06 0.04,-0.11 0.04,-0.18 0,-0.07 -0.02,-0.14 -0.06,-0.19 -0.04,-0.06 -0.1,-0.1 -0.16,-0.15 -0.07,-0.04 -0.14,-0.08 -0.23,-0.11 -0.08,-0.04 -0.17,-0.08 -0.26,-0.12 -0.09,-0.04 -0.17,-0.09 -0.26,-0.14 -0.08,-0.05 -0.15,-0.11 -0.22,-0.19 -0.07,-0.07 -0.12,-0.16 -0.16,-0.25 -0.04,-0.1 -0.06,-0.22 -0.06,-0.36 0,-0.16 0.03,-0.3 0.09,-0.42 0.05,-0.12 0.13,-0.22 0.23,-0.3 0.1,-0.08 0.22,-0.14 0.36,-0.18 0.13,-0.04 0.28,-0.06 0.43,-0.06 0.08,0 0.16,0.01 0.24,0.02 0.07,0.01 0.15,0.03 0.21,0.05 0.07,0.02 0.13,0.04 0.19,0.07 0.05,0.03 0.08,0.05 0.1,0.06 0.02,0.02 0.03,0.03 0.04,0.05 0,0.01 0.01,0.03 0.01,0.05 0.01,0.01 0.01,0.04 0.01,0.07 0,0.03 0,0.07 0,0.11 0,0.05 0,0.09 0,0.13 0,0.03 -0.01,0.06 -0.01,0.08 -0.01,0.02 -0.02,0.04 -0.03,0.05 -0.01,0.01 -0.03,0.01 -0.04,0.01 -0.02,0 -0.05,-0.01 -0.09,-0.03 -0.04,-0.03 -0.09,-0.05 -0.16,-0.08 -0.06,-0.03 -0.12,-0.05 -0.2,-0.08 -0.08,-0.02 -0.17,-0.03 -0.26,-0.03 -0.07,0 -0.14,0.01 -0.19,0.03 -0.06,0.01 -0.1,0.04 -0.14,0.07 -0.04,0.03 -0.07,0.07 -0.08,0.11 -0.02,0.05 -0.03,0.1 -0.03,0.14 0,0.08 0.02,0.14 0.06,0.2 0.04,0.05 0.09,0.1 0.16,0.14 0.07,0.04 0.15,0.08 0.23,0.12 0.09,0.03 0.18,0.07 0.26,0.11 0.09,0.04 0.18,0.09 0.27,0.14 0.08,0.06 0.16,0.12 0.22,0.19 0.07,0.07 0.13,0.16 0.17,0.26 0.04,0.1 0.06,0.21 0.06,0.34zm2.73 0.91c0,0.02 0,0.03 -0.01,0.05 -0.01,0.01 -0.03,0.02 -0.05,0.03 -0.03,0.01 -0.06,0.01 -0.1,0.02 -0.05,0 -0.1,0 -0.16,0 -0.06,0 -0.11,0 -0.16,0 -0.04,-0.01 -0.07,-0.01 -0.1,-0.02 -0.02,-0.01 -0.04,-0.02 -0.05,-0.03 -0.01,-0.02 -0.01,-0.03 -0.01,-0.05l0 -1.3c0,-0.11 -0.01,-0.2 -0.03,-0.26 -0.01,-0.07 -0.04,-0.12 -0.07,-0.17 -0.03,-0.04 -0.07,-0.08 -0.12,-0.1 -0.05,-0.03 -0.1,-0.04 -0.17,-0.04 -0.08,0 -0.16,0.03 -0.24,0.09 -0.09,0.06 -0.18,0.15 -0.27,0.26l0 1.52c0,0.02 0,0.03 -0.01,0.05 -0.01,0.01 -0.03,0.02 -0.05,0.03 -0.03,0.01 -0.06,0.01 -0.1,0.02 -0.04,0 -0.1,0 -0.16,0 -0.06,0 -0.11,0 -0.15,0 -0.04,-0.01 -0.08,-0.01 -0.1,-0.02 -0.03,-0.01 -0.05,-0.02 -0.05,-0.03 -0.02,-0.02 -0.02,-0.03 -0.02,-0.05l0 -3.37c0,-0.02 0,-0.03 0.02,-0.05 0,-0.01 0.02,-0.02 0.05,-0.03 0.02,-0.01 0.06,-0.02 0.1,-0.02 0.04,-0.01 0.09,-0.01 0.15,-0.01 0.06,0 0.12,0 0.16,0.01 0.04,0 0.07,0.01 0.1,0.02 0.02,0.01 0.04,0.02 0.05,0.03 0.01,0.02 0.01,0.03 0.01,0.05l0 1.26c0.12,-0.1 0.23,-0.19 0.34,-0.24 0.12,-0.05 0.24,-0.08 0.37,-0.08 0.15,0 0.28,0.02 0.39,0.08 0.1,0.05 0.19,0.12 0.26,0.21 0.06,0.09 0.11,0.19 0.14,0.31 0.03,0.12 0.04,0.26 0.04,0.43l0 1.4zm1.36 0c0,0.02 -0.01,0.03 -0.02,0.05 -0.01,0.01 -0.03,0.02 -0.05,0.03 -0.02,0.01 -0.06,0.01 -0.1,0.02 -0.04,0 -0.09,0 -0.16,0 -0.06,0 -0.11,0 -0.15,0 -0.04,-0.01 -0.08,-0.01 -0.1,-0.02 -0.03,-0.01 -0.04,-0.02 -0.05,-0.03 -0.01,-0.02 -0.02,-0.03 -0.02,-0.05l0 -2.28c0,-0.02 0.01,-0.03 0.02,-0.05 0.01,-0.01 0.02,-0.02 0.05,-0.03 0.02,-0.01 0.06,-0.02 0.1,-0.02 0.04,-0.01 0.09,-0.01 0.15,-0.01 0.07,0 0.12,0 0.16,0.01 0.04,0 0.08,0.01 0.1,0.02 0.02,0.01 0.04,0.02 0.05,0.03 0.01,0.02 0.02,0.03 0.02,0.05l0 2.28zm0.05 -3.06c0,0.13 -0.03,0.22 -0.08,0.27 -0.05,0.05 -0.15,0.07 -0.3,0.07 -0.14,0 -0.24,-0.02 -0.29,-0.07 -0.05,-0.05 -0.07,-0.14 -0.07,-0.26 0,-0.13 0.02,-0.22 0.07,-0.27 0.06,-0.05 0.15,-0.08 0.3,-0.08 0.14,0 0.24,0.03 0.29,0.08 0.05,0.05 0.08,0.13 0.08,0.26zm2.97 1.89c0,0.2 -0.03,0.38 -0.07,0.54 -0.04,0.17 -0.11,0.31 -0.19,0.42 -0.08,0.11 -0.19,0.2 -0.31,0.26 -0.13,0.07 -0.27,0.1 -0.43,0.1 -0.07,0 -0.13,-0.01 -0.18,-0.02 -0.06,-0.02 -0.11,-0.04 -0.16,-0.06 -0.06,-0.03 -0.11,-0.06 -0.16,-0.1 -0.05,-0.04 -0.1,-0.09 -0.16,-0.14l0 1.08c0,0.02 0,0.03 -0.01,0.04 -0.01,0.02 -0.03,0.03 -0.06,0.04 -0.02,0.01 -0.05,0.02 -0.09,0.02 -0.05,0.01 -0.1,0.01 -0.16,0.01 -0.06,0 -0.12,0 -0.16,-0.01 -0.04,0 -0.07,-0.01 -0.09,-0.02 -0.03,-0.01 -0.05,-0.02 -0.06,-0.04 -0.01,-0.01 -0.01,-0.02 -0.01,-0.04l0 -3.2c0,-0.01 0,-0.03 0.01,-0.04 0.01,-0.01 0.02,-0.02 0.04,-0.03 0.03,-0.01 0.05,-0.02 0.09,-0.02 0.03,-0.01 0.08,-0.01 0.13,-0.01 0.05,0 0.1,0 0.13,0.01 0.03,0 0.06,0.01 0.09,0.02 0.02,0.01 0.03,0.02 0.04,0.03 0.01,0.01 0.01,0.03 0.01,0.04l0 0.27c0.07,-0.06 0.13,-0.12 0.2,-0.18 0.06,-0.05 0.13,-0.09 0.19,-0.13 0.07,-0.03 0.14,-0.06 0.21,-0.08 0.07,-0.01 0.15,-0.02 0.23,-0.02 0.16,0 0.31,0.03 0.43,0.1 0.11,0.06 0.21,0.15 0.28,0.27 0.08,0.11 0.13,0.25 0.17,0.4 0.03,0.15 0.05,0.31 0.05,0.49zm-0.68 0.04c0,-0.1 0,-0.19 -0.02,-0.28 -0.01,-0.09 -0.04,-0.17 -0.07,-0.24 -0.04,-0.07 -0.08,-0.13 -0.14,-0.17 -0.06,-0.04 -0.13,-0.06 -0.21,-0.06 -0.05,0 -0.09,0.01 -0.13,0.02 -0.04,0.01 -0.08,0.03 -0.13,0.06 -0.04,0.03 -0.09,0.07 -0.13,0.11 -0.05,0.05 -0.1,0.11 -0.15,0.18l0 0.75c0.09,0.11 0.18,0.2 0.26,0.26 0.08,0.06 0.17,0.1 0.26,0.1 0.08,0 0.15,-0.03 0.21,-0.07 0.06,-0.04 0.11,-0.1 0.14,-0.17 0.04,-0.06 0.07,-0.14 0.09,-0.23 0.02,-0.09 0.02,-0.17 0.02,-0.26zm3.57 -0.04c0,0.2 -0.02,0.38 -0.07,0.54 -0.04,0.17 -0.1,0.31 -0.19,0.42 -0.08,0.11 -0.19,0.2 -0.31,0.26 -0.12,0.07 -0.27,0.1 -0.43,0.1 -0.06,0 -0.12,-0.01 -0.18,-0.02 -0.06,-0.02 -0.11,-0.04 -0.16,-0.06 -0.05,-0.03 -0.1,-0.06 -0.16,-0.1 -0.05,-0.04 -0.1,-0.09 -0.15,-0.14l0 1.08c0,0.02 -0.01,0.03 -0.02,0.04 -0.01,0.02 -0.03,0.03 -0.05,0.04 -0.03,0.01 -0.06,0.02 -0.1,0.02 -0.04,0.01 -0.09,0.01 -0.16,0.01 -0.06,0 -0.11,0 -0.15,-0.01 -0.04,0 -0.08,-0.01 -0.1,-0.02 -0.03,-0.01 -0.04,-0.02 -0.05,-0.04 -0.01,-0.01 -0.02,-0.02 -0.02,-0.04l0 -3.2c0,-0.01 0,-0.03 0.01,-0.04 0.01,-0.01 0.03,-0.02 0.05,-0.03 0.02,-0.01 0.05,-0.02 0.08,-0.02 0.04,-0.01 0.08,-0.01 0.13,-0.01 0.06,0 0.1,0 0.13,0.01 0.04,0 0.07,0.01 0.09,0.02 0.02,0.01 0.03,0.02 0.04,0.03 0.01,0.01 0.02,0.03 0.02,0.04l0 0.27c0.06,-0.06 0.13,-0.12 0.19,-0.18 0.07,-0.05 0.13,-0.09 0.2,-0.13 0.06,-0.03 0.13,-0.06 0.2,-0.08 0.07,-0.01 0.15,-0.02 0.23,-0.02 0.17,0 0.31,0.03 0.43,0.1 0.12,0.06 0.21,0.15 0.29,0.27 0.07,0.11 0.12,0.25 0.16,0.4 0.03,0.15 0.05,0.31 0.05,0.49zm-0.67 0.04c0,-0.1 -0.01,-0.19 -0.02,-0.28 -0.02,-0.09 -0.04,-0.17 -0.08,-0.24 -0.03,-0.07 -0.08,-0.13 -0.14,-0.17 -0.05,-0.04 -0.13,-0.06 -0.21,-0.06 -0.04,0 -0.08,0.01 -0.13,0.02 -0.04,0.01 -0.08,0.03 -0.12,0.06 -0.05,0.03 -0.09,0.07 -0.14,0.11 -0.05,0.05 -0.09,0.11 -0.14,0.18l0 0.75c0.09,0.11 0.17,0.2 0.25,0.26 0.09,0.06 0.17,0.1 0.26,0.1 0.08,0 0.15,-0.03 0.21,-0.07 0.06,-0.04 0.11,-0.1 0.15,-0.17 0.03,-0.06 0.06,-0.14 0.08,-0.23 0.02,-0.09 0.03,-0.17 0.03,-0.26zm1.91 1.13c0,0.02 -0.01,0.03 -0.02,0.05 -0.01,0.01 -0.02,0.02 -0.05,0.03 -0.02,0.01 -0.06,0.01 -0.1,0.02 -0.04,0 -0.09,0 -0.15,0 -0.07,0 -0.12,0 -0.16,0 -0.04,-0.01 -0.07,-0.01 -0.1,-0.02 -0.02,-0.01 -0.04,-0.02 -0.05,-0.03 -0.01,-0.02 -0.02,-0.03 -0.02,-0.05l0 -2.28c0,-0.02 0.01,-0.03 0.02,-0.05 0.01,-0.01 0.03,-0.02 0.05,-0.03 0.03,-0.01 0.06,-0.02 0.1,-0.02 0.04,-0.01 0.09,-0.01 0.16,-0.01 0.06,0 0.11,0 0.15,0.01 0.04,0 0.08,0.01 0.1,0.02 0.03,0.01 0.04,0.02 0.05,0.03 0.01,0.02 0.02,0.03 0.02,0.05l0 2.28zm0.05 -3.06c0,0.13 -0.03,0.22 -0.08,0.27 -0.05,0.05 -0.15,0.07 -0.29,0.07 -0.15,0 -0.25,-0.02 -0.3,-0.07 -0.05,-0.05 -0.08,-0.14 -0.08,-0.26 0,-0.13 0.03,-0.22 0.08,-0.27 0.06,-0.05 0.15,-0.08 0.3,-0.08 0.14,0 0.24,0.03 0.29,0.08 0.06,0.05 0.08,0.13 0.08,0.26zm2.85 3.06c0,0.02 0,0.03 -0.01,0.05 -0.01,0.01 -0.03,0.02 -0.05,0.03 -0.03,0.01 -0.06,0.01 -0.11,0.02 -0.04,0 -0.09,0 -0.15,0 -0.06,0 -0.12,0 -0.16,0 -0.04,-0.01 -0.07,-0.01 -0.1,-0.02 -0.02,-0.01 -0.04,-0.02 -0.05,-0.03 -0.01,-0.02 -0.01,-0.03 -0.01,-0.05l0 -1.3c0,-0.11 -0.01,-0.2 -0.03,-0.26 -0.02,-0.07 -0.04,-0.12 -0.07,-0.17 -0.03,-0.04 -0.07,-0.08 -0.12,-0.1 -0.05,-0.03 -0.1,-0.04 -0.17,-0.04 -0.08,0 -0.16,0.03 -0.25,0.09 -0.08,0.06 -0.17,0.15 -0.26,0.26l0 1.52c0,0.02 0,0.03 -0.01,0.05 -0.01,0.01 -0.03,0.02 -0.06,0.03 -0.02,0.01 -0.05,0.01 -0.09,0.02 -0.04,0 -0.1,0 -0.16,0 -0.06,0 -0.11,0 -0.16,0 -0.04,-0.01 -0.07,-0.01 -0.09,-0.02 -0.03,-0.01 -0.05,-0.02 -0.06,-0.03 -0.01,-0.02 -0.01,-0.03 -0.01,-0.05l0 -2.29c0,-0.01 0,-0.03 0.01,-0.04 0.01,-0.01 0.02,-0.02 0.05,-0.03 0.02,-0.01 0.05,-0.02 0.08,-0.02 0.04,-0.01 0.08,-0.01 0.13,-0.01 0.06,0 0.1,0 0.14,0.01 0.03,0 0.06,0.01 0.08,0.02 0.02,0.01 0.04,0.02 0.05,0.03 0,0.01 0.01,0.03 0.01,0.04l0 0.27c0.12,-0.14 0.25,-0.24 0.39,-0.31 0.12,-0.07 0.26,-0.1 0.4,-0.1 0.16,0 0.29,0.02 0.4,0.08 0.1,0.05 0.19,0.12 0.26,0.21 0.06,0.08 0.11,0.19 0.14,0.3 0.03,0.12 0.04,0.26 0.04,0.43l0 1.41zm2.77 -2.13c0,0.09 -0.01,0.15 -0.03,0.19 -0.02,0.04 -0.04,0.06 -0.07,0.06l-0.27 0c0.04,0.04 0.07,0.08 0.08,0.13 0.02,0.06 0.03,0.11 0.03,0.17 0,0.13 -0.02,0.25 -0.07,0.35 -0.04,0.1 -0.11,0.19 -0.19,0.26 -0.08,0.07 -0.18,0.13 -0.3,0.16 -0.12,0.04 -0.25,0.06 -0.39,0.06 -0.07,0 -0.15,-0.01 -0.21,-0.03 -0.07,-0.02 -0.12,-0.04 -0.15,-0.06 -0.03,0.02 -0.04,0.05 -0.06,0.08 -0.02,0.03 -0.03,0.06 -0.03,0.1 0,0.05 0.03,0.09 0.07,0.12 0.04,0.04 0.11,0.05 0.18,0.06l0.56 0.02c0.13,0 0.25,0.02 0.35,0.05 0.1,0.03 0.18,0.08 0.25,0.14 0.07,0.05 0.13,0.12 0.16,0.2 0.04,0.08 0.06,0.17 0.06,0.28 0,0.11 -0.03,0.21 -0.08,0.31 -0.05,0.11 -0.12,0.19 -0.22,0.27 -0.1,0.07 -0.22,0.13 -0.37,0.17 -0.15,0.04 -0.33,0.06 -0.53,0.06 -0.19,0 -0.36,-0.01 -0.5,-0.04 -0.13,-0.03 -0.25,-0.08 -0.33,-0.13 -0.09,-0.06 -0.16,-0.12 -0.2,-0.2 -0.04,-0.07 -0.06,-0.16 -0.06,-0.25 0,-0.05 0.01,-0.11 0.03,-0.16 0.01,-0.05 0.03,-0.1 0.06,-0.15 0.03,-0.04 0.06,-0.09 0.1,-0.13 0.05,-0.04 0.09,-0.08 0.14,-0.12 -0.07,-0.04 -0.13,-0.1 -0.17,-0.16 -0.04,-0.07 -0.06,-0.14 -0.06,-0.23 0,-0.1 0.03,-0.19 0.07,-0.27 0.05,-0.08 0.11,-0.16 0.18,-0.23 -0.06,-0.06 -0.1,-0.13 -0.14,-0.21 -0.04,-0.08 -0.06,-0.19 -0.06,-0.31 0,-0.14 0.03,-0.26 0.08,-0.36 0.04,-0.11 0.11,-0.19 0.19,-0.27 0.09,-0.07 0.19,-0.12 0.3,-0.16 0.12,-0.04 0.25,-0.06 0.39,-0.06 0.07,0 0.14,0 0.2,0.01 0.07,0.01 0.13,0.02 0.19,0.04l0.72 0c0.03,0 0.05,0.02 0.07,0.05 0.02,0.04 0.03,0.1 0.03,0.19zm-0.83 0.55c0,-0.13 -0.03,-0.22 -0.1,-0.29 -0.07,-0.07 -0.17,-0.1 -0.29,-0.1 -0.06,0 -0.12,0.01 -0.17,0.03 -0.05,0.02 -0.09,0.05 -0.12,0.08 -0.03,0.04 -0.05,0.08 -0.07,0.13 -0.01,0.05 -0.02,0.1 -0.02,0.16 0,0.11 0.03,0.2 0.1,0.27 0.07,0.07 0.17,0.1 0.29,0.1 0.06,0 0.12,-0.01 0.17,-0.03 0.04,-0.02 0.08,-0.05 0.11,-0.08 0.04,-0.04 0.06,-0.08 0.08,-0.13 0.01,-0.04 0.02,-0.09 0.02,-0.14zm0.15 1.82c0,-0.08 -0.03,-0.14 -0.09,-0.18 -0.06,-0.04 -0.15,-0.06 -0.25,-0.06l-0.46 -0.02c-0.05,0.04 -0.08,0.07 -0.11,0.1 -0.03,0.03 -0.05,0.06 -0.06,0.08 -0.02,0.03 -0.03,0.06 -0.04,0.08 0,0.03 0,0.05 0,0.08 0,0.09 0.04,0.15 0.13,0.2 0.08,0.04 0.2,0.06 0.36,0.06 0.1,0 0.18,-0.01 0.25,-0.03 0.06,-0.02 0.12,-0.04 0.16,-0.07 0.04,-0.04 0.07,-0.07 0.09,-0.11 0.01,-0.04 0.02,-0.09 0.02,-0.13z"/>
   <path class="fil0" d="M39.09 98.83c0,0.04 0,0.08 -0.02,0.11 -0.01,0.03 -0.03,0.05 -0.05,0.08 -0.03,0.02 -0.05,0.03 -0.08,0.04 -0.04,0.01 -0.07,0.01 -0.1,0.01l-0.29 0c-0.06,0 -0.11,0 -0.15,-0.01 -0.05,-0.02 -0.09,-0.04 -0.12,-0.07 -0.04,-0.03 -0.08,-0.07 -0.11,-0.13 -0.03,-0.05 -0.07,-0.12 -0.12,-0.21l-0.82 -1.55c-0.05,-0.09 -0.1,-0.19 -0.15,-0.3 -0.05,-0.1 -0.09,-0.21 -0.13,-0.31l0 0c0,0.12 0.01,0.25 0.01,0.37 0,0.12 0.01,0.25 0.01,0.38l0 1.73c0,0.02 -0.01,0.04 -0.02,0.05 -0.01,0.01 -0.02,0.03 -0.05,0.03 -0.02,0.01 -0.05,0.02 -0.09,0.03 -0.04,0 -0.09,0 -0.15,0 -0.06,0 -0.11,0 -0.15,0 -0.04,-0.01 -0.07,-0.02 -0.09,-0.03 -0.03,0 -0.04,-0.02 -0.05,-0.03 -0.01,-0.01 -0.01,-0.03 -0.01,-0.05l0 -2.98c0,-0.08 0.02,-0.14 0.07,-0.18 0.05,-0.04 0.1,-0.06 0.17,-0.06l0.36 0c0.07,0 0.12,0.01 0.17,0.02 0.04,0.01 0.08,0.03 0.12,0.05 0.03,0.03 0.07,0.06 0.1,0.11 0.03,0.04 0.06,0.1 0.09,0.17l0.65 1.21c0.03,0.07 0.07,0.15 0.11,0.22 0.03,0.07 0.07,0.14 0.1,0.21 0.04,0.07 0.07,0.14 0.1,0.21 0.04,0.07 0.07,0.14 0.1,0.21l0 0c-0.01,-0.12 -0.01,-0.25 -0.01,-0.38 -0.01,-0.13 -0.01,-0.25 -0.01,-0.37l0 -1.56c0,-0.02 0.01,-0.03 0.02,-0.05 0.01,-0.01 0.03,-0.02 0.05,-0.03 0.02,-0.01 0.06,-0.02 0.1,-0.02 0.04,-0.01 0.09,-0.01 0.15,-0.01 0.06,0 0.11,0 0.14,0.01 0.04,0 0.07,0.01 0.1,0.02 0.02,0.01 0.03,0.02 0.04,0.03 0.01,0.02 0.01,0.03 0.01,0.05l0 2.98zm2.87 -1.06c0,0.08 -0.01,0.14 -0.05,0.18 -0.03,0.03 -0.08,0.05 -0.14,0.05l-1.4 0c0,0.1 0.02,0.19 0.04,0.27 0.02,0.08 0.06,0.14 0.11,0.2 0.05,0.05 0.11,0.1 0.19,0.13 0.08,0.02 0.18,0.04 0.29,0.04 0.11,0 0.21,-0.01 0.3,-0.03 0.08,-0.01 0.16,-0.03 0.22,-0.05 0.06,-0.02 0.11,-0.04 0.15,-0.05 0.04,-0.02 0.08,-0.03 0.1,-0.03 0.02,0 0.03,0 0.04,0.01 0.01,0.01 0.02,0.02 0.03,0.03 0,0.02 0.01,0.04 0.01,0.07 0,0.03 0,0.06 0,0.1 0,0.04 0,0.07 0,0.1 0,0.03 0,0.05 -0.01,0.07 0,0.02 0,0.03 -0.01,0.04 -0.01,0.02 -0.02,0.03 -0.03,0.04 -0.01,0.01 -0.04,0.03 -0.09,0.05 -0.05,0.02 -0.11,0.04 -0.19,0.06 -0.08,0.02 -0.16,0.04 -0.26,0.05 -0.1,0.02 -0.21,0.03 -0.32,0.03 -0.2,0 -0.38,-0.03 -0.53,-0.08 -0.16,-0.05 -0.28,-0.13 -0.39,-0.23 -0.1,-0.11 -0.18,-0.24 -0.23,-0.4 -0.05,-0.16 -0.07,-0.34 -0.07,-0.56 0,-0.2 0.02,-0.38 0.08,-0.55 0.05,-0.16 0.13,-0.3 0.23,-0.41 0.1,-0.11 0.22,-0.2 0.37,-0.26 0.14,-0.06 0.3,-0.09 0.49,-0.09 0.19,0 0.35,0.03 0.49,0.08 0.13,0.06 0.24,0.14 0.33,0.24 0.09,0.1 0.15,0.22 0.19,0.35 0.04,0.14 0.06,0.29 0.06,0.45l0 0.1zm-0.62 -0.18c0.01,-0.18 -0.03,-0.32 -0.11,-0.43 -0.08,-0.1 -0.2,-0.15 -0.36,-0.15 -0.08,0 -0.15,0.01 -0.21,0.04 -0.07,0.03 -0.12,0.07 -0.16,0.13 -0.04,0.05 -0.07,0.11 -0.09,0.18 -0.02,0.07 -0.03,0.15 -0.04,0.23l0.97 0zm3.34 0.18c0,0.08 -0.01,0.14 -0.05,0.18 -0.03,0.03 -0.08,0.05 -0.14,0.05l-1.4 0c0,0.1 0.01,0.19 0.04,0.27 0.02,0.08 0.06,0.14 0.11,0.2 0.05,0.05 0.11,0.1 0.19,0.13 0.08,0.02 0.18,0.04 0.29,0.04 0.11,0 0.21,-0.01 0.3,-0.03 0.08,-0.01 0.15,-0.03 0.22,-0.05 0.06,-0.02 0.11,-0.04 0.15,-0.05 0.04,-0.02 0.08,-0.03 0.1,-0.03 0.02,0 0.03,0 0.04,0.01 0.01,0.01 0.02,0.02 0.03,0.03 0,0.02 0.01,0.04 0.01,0.07 0,0.03 0,0.06 0,0.1 0,0.04 0,0.07 0,0.1 0,0.03 0,0.05 -0.01,0.07 0,0.02 -0.01,0.03 -0.01,0.04 -0.01,0.02 -0.02,0.03 -0.03,0.04 -0.01,0.01 -0.04,0.03 -0.09,0.05 -0.05,0.02 -0.11,0.04 -0.19,0.06 -0.08,0.02 -0.16,0.04 -0.26,0.05 -0.1,0.02 -0.21,0.03 -0.32,0.03 -0.2,0 -0.38,-0.03 -0.54,-0.08 -0.15,-0.05 -0.28,-0.13 -0.38,-0.23 -0.1,-0.11 -0.18,-0.24 -0.23,-0.4 -0.05,-0.16 -0.07,-0.34 -0.07,-0.56 0,-0.2 0.02,-0.38 0.08,-0.55 0.05,-0.16 0.13,-0.3 0.23,-0.41 0.1,-0.11 0.22,-0.2 0.37,-0.26 0.14,-0.06 0.3,-0.09 0.48,-0.09 0.2,0 0.36,0.03 0.49,0.08 0.14,0.06 0.25,0.14 0.34,0.24 0.09,0.1 0.15,0.22 0.19,0.35 0.04,0.14 0.06,0.29 0.06,0.45l0 0.1zm-0.62 -0.18c0,-0.18 -0.03,-0.32 -0.11,-0.43 -0.08,-0.1 -0.2,-0.15 -0.36,-0.15 -0.08,0 -0.15,0.01 -0.22,0.04 -0.06,0.03 -0.11,0.07 -0.15,0.13 -0.04,0.05 -0.07,0.11 -0.09,0.18 -0.02,0.07 -0.03,0.15 -0.04,0.23l0.97 0zm3.4 1.39c0,0.02 0,0.04 -0.01,0.05 -0.01,0.01 -0.03,0.02 -0.05,0.03 -0.02,0.01 -0.04,0.02 -0.08,0.02 -0.04,0 -0.08,0 -0.13,0 -0.05,0 -0.1,0 -0.13,0 -0.04,0 -0.06,-0.01 -0.09,-0.02 -0.02,-0.01 -0.03,-0.02 -0.04,-0.03 -0.01,-0.01 -0.02,-0.03 -0.02,-0.05l0 -0.25c-0.11,0.12 -0.24,0.22 -0.37,0.29 -0.13,0.07 -0.27,0.11 -0.43,0.11 -0.17,0 -0.32,-0.04 -0.44,-0.1 -0.12,-0.07 -0.22,-0.16 -0.29,-0.28 -0.08,-0.11 -0.13,-0.25 -0.17,-0.4 -0.03,-0.15 -0.05,-0.31 -0.05,-0.48 0,-0.2 0.02,-0.39 0.07,-0.55 0.04,-0.16 0.1,-0.3 0.19,-0.41 0.08,-0.12 0.18,-0.21 0.31,-0.27 0.12,-0.06 0.27,-0.09 0.43,-0.09 0.13,0 0.24,0.03 0.35,0.08 0.1,0.05 0.21,0.13 0.31,0.23l0 -1.24c0,-0.02 0,-0.03 0.01,-0.05 0.01,-0.01 0.03,-0.02 0.06,-0.03 0.02,-0.01 0.05,-0.02 0.09,-0.02 0.04,-0.01 0.1,-0.01 0.16,-0.01 0.06,0 0.11,0 0.16,0.01 0.04,0 0.07,0.01 0.09,0.02 0.03,0.01 0.04,0.02 0.05,0.03 0.01,0.02 0.02,0.03 0.02,0.05l0 3.36zm-0.64 -1.53c-0.09,-0.11 -0.18,-0.2 -0.27,-0.26 -0.08,-0.06 -0.17,-0.09 -0.26,-0.09 -0.09,0 -0.16,0.02 -0.22,0.06 -0.06,0.04 -0.11,0.09 -0.14,0.17 -0.04,0.07 -0.07,0.14 -0.09,0.23 -0.01,0.09 -0.02,0.17 -0.02,0.27 0,0.09 0,0.18 0.02,0.27 0.02,0.09 0.04,0.18 0.08,0.25 0.03,0.07 0.08,0.12 0.14,0.17 0.05,0.04 0.13,0.06 0.22,0.06 0.04,0 0.08,-0.01 0.13,-0.02 0.04,-0.01 0.08,-0.03 0.12,-0.06 0.05,-0.03 0.09,-0.07 0.14,-0.11 0.04,-0.05 0.09,-0.11 0.15,-0.18l0 -0.76zm5.57 -0.08c0,0.28 -0.03,0.52 -0.1,0.74 -0.07,0.22 -0.17,0.4 -0.31,0.55 -0.13,0.15 -0.3,0.27 -0.5,0.35 -0.2,0.08 -0.43,0.12 -0.69,0.12 -0.26,0 -0.48,-0.04 -0.67,-0.1 -0.2,-0.07 -0.36,-0.17 -0.49,-0.31 -0.12,-0.14 -0.22,-0.32 -0.28,-0.53 -0.07,-0.21 -0.1,-0.47 -0.1,-0.76 0,-0.27 0.03,-0.51 0.1,-0.72 0.07,-0.22 0.17,-0.4 0.31,-0.55 0.13,-0.15 0.3,-0.27 0.5,-0.35 0.2,-0.08 0.43,-0.12 0.69,-0.12 0.25,0 0.48,0.04 0.67,0.1 0.19,0.07 0.35,0.17 0.48,0.31 0.13,0.14 0.23,0.31 0.29,0.52 0.07,0.22 0.1,0.46 0.1,0.75zm-0.71 0.04c0,-0.18 -0.01,-0.34 -0.04,-0.48 -0.03,-0.14 -0.07,-0.26 -0.14,-0.37 -0.07,-0.1 -0.15,-0.18 -0.26,-0.23 -0.11,-0.06 -0.25,-0.09 -0.41,-0.09 -0.17,0 -0.3,0.04 -0.42,0.1 -0.11,0.06 -0.2,0.14 -0.26,0.25 -0.07,0.1 -0.12,0.22 -0.15,0.36 -0.03,0.14 -0.04,0.29 -0.04,0.45 0,0.18 0.01,0.34 0.04,0.48 0.03,0.15 0.07,0.27 0.14,0.38 0.06,0.1 0.15,0.18 0.26,0.23 0.11,0.05 0.25,0.08 0.41,0.08 0.17,0 0.3,-0.03 0.41,-0.09 0.12,-0.06 0.21,-0.15 0.27,-0.25 0.07,-0.11 0.12,-0.23 0.15,-0.37 0.03,-0.14 0.04,-0.29 0.04,-0.45zm3.48 1.57c0,0.02 0,0.03 -0.01,0.05 -0.01,0.01 -0.02,0.02 -0.04,0.03 -0.02,0.01 -0.05,0.01 -0.09,0.02 -0.03,0 -0.08,0 -0.13,0 -0.06,0 -0.1,0 -0.14,0 -0.03,-0.01 -0.06,-0.01 -0.08,-0.02 -0.02,-0.01 -0.03,-0.02 -0.04,-0.03 -0.01,-0.02 -0.02,-0.03 -0.02,-0.05l0 -0.26c-0.12,0.13 -0.25,0.24 -0.38,0.3 -0.13,0.07 -0.27,0.11 -0.41,0.11 -0.16,0 -0.29,-0.03 -0.4,-0.08 -0.1,-0.05 -0.19,-0.12 -0.25,-0.21 -0.07,-0.09 -0.12,-0.19 -0.15,-0.31 -0.02,-0.12 -0.04,-0.26 -0.04,-0.44l0 -1.4c0,-0.01 0.01,-0.03 0.02,-0.04 0,-0.01 0.02,-0.02 0.05,-0.03 0.02,-0.01 0.06,-0.02 0.1,-0.02 0.04,-0.01 0.09,-0.01 0.15,-0.01 0.07,0 0.12,0 0.16,0.01 0.04,0 0.07,0.01 0.1,0.02 0.02,0.01 0.04,0.02 0.05,0.03 0.01,0.01 0.02,0.03 0.02,0.04l0 1.3c0,0.12 0.01,0.21 0.02,0.27 0.01,0.06 0.04,0.12 0.07,0.16 0.03,0.05 0.07,0.08 0.12,0.11 0.05,0.02 0.11,0.03 0.17,0.03 0.08,0 0.17,-0.02 0.25,-0.08 0.08,-0.06 0.17,-0.15 0.26,-0.26l0 -1.53c0,-0.01 0.01,-0.03 0.02,-0.04 0.01,-0.01 0.02,-0.02 0.05,-0.03 0.02,-0.01 0.06,-0.02 0.1,-0.02 0.04,-0.01 0.09,-0.01 0.15,-0.01 0.07,0 0.12,0 0.16,0.01 0.04,0 0.08,0.01 0.1,0.02 0.02,0.01 0.04,0.02 0.05,0.03 0.01,0.01 0.01,0.03 0.01,0.04l0 2.29zm2.2 -2.07c0,0.06 0,0.11 -0.01,0.15 0,0.04 0,0.07 -0.01,0.09 -0.01,0.02 -0.02,0.04 -0.03,0.05 -0.01,0.01 -0.02,0.01 -0.04,0.01 -0.01,0 -0.03,0 -0.05,-0.01 -0.01,-0.01 -0.03,-0.01 -0.05,-0.02 -0.03,-0.01 -0.05,-0.01 -0.08,-0.02 -0.02,0 -0.05,-0.01 -0.08,-0.01 -0.04,0 -0.07,0.01 -0.11,0.02 -0.03,0.02 -0.07,0.04 -0.11,0.07 -0.04,0.03 -0.08,0.08 -0.12,0.13 -0.04,0.05 -0.09,0.11 -0.13,0.18l0 1.43c0,0.02 -0.01,0.03 -0.02,0.05 -0.01,0.01 -0.03,0.02 -0.05,0.03 -0.03,0.01 -0.06,0.01 -0.1,0.02 -0.04,0 -0.09,0 -0.16,0 -0.06,0 -0.11,0 -0.15,0 -0.04,-0.01 -0.08,-0.01 -0.1,-0.02 -0.03,-0.01 -0.04,-0.02 -0.05,-0.03 -0.02,-0.02 -0.02,-0.03 -0.02,-0.05l0 -2.29c0,-0.01 0,-0.03 0.01,-0.04 0.01,-0.01 0.03,-0.02 0.05,-0.03 0.02,-0.01 0.05,-0.02 0.08,-0.02 0.04,-0.01 0.08,-0.01 0.14,-0.01 0.05,0 0.1,0 0.13,0.01 0.04,0 0.07,0.01 0.09,0.02 0.02,0.01 0.03,0.02 0.04,0.03 0.01,0.01 0.01,0.03 0.01,0.04l0 0.29c0.06,-0.09 0.12,-0.16 0.17,-0.21 0.05,-0.06 0.1,-0.1 0.15,-0.13 0.05,-0.04 0.1,-0.06 0.15,-0.07 0.04,-0.01 0.09,-0.02 0.14,-0.02 0.02,0 0.04,0 0.07,0 0.03,0.01 0.05,0.01 0.08,0.02 0.03,0 0.05,0.01 0.07,0.02 0.02,0 0.04,0.01 0.05,0.02 0.01,0.01 0.01,0.02 0.02,0.03 0,0.01 0.01,0.02 0.01,0.04 0,0.02 0,0.05 0.01,0.08 0,0.04 0,0.09 0,0.15zm3.66 1.16c0,0.18 -0.03,0.33 -0.09,0.46 -0.07,0.13 -0.16,0.24 -0.27,0.33 -0.11,0.09 -0.24,0.16 -0.39,0.2 -0.15,0.04 -0.31,0.07 -0.48,0.07 -0.11,0 -0.22,-0.01 -0.32,-0.03 -0.09,-0.02 -0.18,-0.04 -0.25,-0.07 -0.08,-0.03 -0.14,-0.06 -0.19,-0.08 -0.05,-0.03 -0.09,-0.06 -0.11,-0.08 -0.02,-0.03 -0.04,-0.06 -0.05,-0.1 -0.01,-0.04 -0.02,-0.1 -0.02,-0.18 0,-0.05 0.01,-0.1 0.01,-0.13 0,-0.04 0.01,-0.07 0.02,-0.09 0,-0.02 0.02,-0.04 0.03,-0.05 0.01,-0.01 0.03,-0.01 0.04,-0.01 0.03,0 0.06,0.01 0.1,0.04 0.05,0.03 0.1,0.06 0.17,0.09 0.07,0.04 0.15,0.07 0.25,0.1 0.09,0.03 0.2,0.04 0.33,0.04 0.08,0 0.15,-0.01 0.22,-0.03 0.06,-0.02 0.12,-0.05 0.16,-0.08 0.05,-0.04 0.09,-0.08 0.11,-0.13 0.02,-0.06 0.04,-0.11 0.04,-0.18 0,-0.07 -0.02,-0.14 -0.07,-0.19 -0.04,-0.06 -0.09,-0.1 -0.16,-0.15 -0.06,-0.04 -0.14,-0.08 -0.22,-0.11 -0.08,-0.04 -0.17,-0.08 -0.26,-0.12 -0.09,-0.04 -0.18,-0.09 -0.26,-0.14 -0.08,-0.05 -0.16,-0.11 -0.23,-0.19 -0.06,-0.07 -0.11,-0.16 -0.16,-0.25 -0.04,-0.1 -0.06,-0.22 -0.06,-0.36 0,-0.16 0.03,-0.3 0.09,-0.42 0.06,-0.12 0.14,-0.22 0.24,-0.3 0.1,-0.08 0.22,-0.14 0.35,-0.18 0.14,-0.04 0.28,-0.06 0.44,-0.06 0.07,0 0.15,0.01 0.23,0.02 0.08,0.01 0.15,0.03 0.22,0.05 0.07,0.02 0.13,0.04 0.18,0.07 0.06,0.03 0.09,0.05 0.11,0.06 0.01,0.02 0.03,0.03 0.03,0.05 0.01,0.01 0.01,0.03 0.02,0.05 0,0.01 0.01,0.04 0.01,0.07 0,0.03 0,0.07 0,0.11 0,0.05 0,0.09 0,0.13 -0.01,0.03 -0.01,0.06 -0.02,0.08 0,0.02 -0.01,0.04 -0.02,0.05 -0.01,0.01 -0.03,0.01 -0.05,0.01 -0.02,0 -0.05,-0.01 -0.09,-0.03 -0.04,-0.03 -0.09,-0.05 -0.15,-0.08 -0.06,-0.03 -0.13,-0.05 -0.21,-0.08 -0.08,-0.02 -0.16,-0.03 -0.26,-0.03 -0.07,0 -0.13,0.01 -0.19,0.03 -0.05,0.01 -0.1,0.04 -0.14,0.07 -0.03,0.03 -0.06,0.07 -0.08,0.11 -0.02,0.05 -0.02,0.1 -0.02,0.14 0,0.08 0.02,0.14 0.06,0.2 0.04,0.05 0.09,0.1 0.16,0.14 0.06,0.04 0.14,0.08 0.23,0.12 0.08,0.03 0.17,0.07 0.26,0.11 0.09,0.04 0.18,0.09 0.26,0.14 0.09,0.06 0.16,0.12 0.23,0.19 0.07,0.07 0.12,0.16 0.16,0.26 0.04,0.1 0.06,0.21 0.06,0.34zm2.86 -0.26c0,0.2 -0.02,0.38 -0.07,0.54 -0.05,0.16 -0.13,0.3 -0.24,0.41 -0.1,0.12 -0.23,0.21 -0.39,0.27 -0.16,0.07 -0.34,0.1 -0.55,0.1 -0.2,0 -0.38,-0.03 -0.53,-0.09 -0.15,-0.05 -0.28,-0.14 -0.37,-0.24 -0.1,-0.11 -0.18,-0.24 -0.23,-0.4 -0.04,-0.16 -0.07,-0.34 -0.07,-0.54 0,-0.19 0.03,-0.37 0.08,-0.53 0.05,-0.16 0.13,-0.3 0.24,-0.42 0.1,-0.11 0.23,-0.2 0.39,-0.27 0.15,-0.06 0.34,-0.09 0.55,-0.09 0.2,0 0.38,0.03 0.53,0.08 0.15,0.06 0.28,0.14 0.37,0.25 0.1,0.1 0.17,0.24 0.22,0.39 0.05,0.16 0.07,0.34 0.07,0.54zm-0.66 0.03c0,-0.11 -0.01,-0.22 -0.02,-0.31 -0.02,-0.1 -0.05,-0.18 -0.1,-0.25 -0.04,-0.07 -0.1,-0.12 -0.17,-0.16 -0.07,-0.04 -0.16,-0.06 -0.27,-0.06 -0.09,0 -0.18,0.02 -0.25,0.05 -0.07,0.04 -0.13,0.09 -0.18,0.16 -0.04,0.06 -0.08,0.14 -0.1,0.24 -0.02,0.09 -0.04,0.2 -0.04,0.32 0,0.12 0.01,0.22 0.03,0.31 0.02,0.1 0.05,0.18 0.09,0.25 0.05,0.07 0.1,0.13 0.18,0.16 0.07,0.04 0.16,0.06 0.26,0.06 0.1,0 0.19,-0.01 0.26,-0.05 0.07,-0.04 0.13,-0.09 0.18,-0.15 0.04,-0.07 0.08,-0.15 0.1,-0.24 0.02,-0.1 0.03,-0.21 0.03,-0.33zm1.9 1.14c0,0.02 -0.01,0.03 -0.02,0.05 -0.01,0.01 -0.02,0.02 -0.05,0.03 -0.02,0.01 -0.06,0.01 -0.1,0.02 -0.04,0 -0.09,0 -0.15,0 -0.07,0 -0.12,0 -0.16,0 -0.04,-0.01 -0.07,-0.01 -0.1,-0.02 -0.02,-0.01 -0.04,-0.02 -0.05,-0.03 -0.01,-0.02 -0.02,-0.03 -0.02,-0.05l0 -3.37c0,-0.02 0.01,-0.03 0.02,-0.05 0.01,-0.01 0.03,-0.02 0.05,-0.03 0.03,-0.01 0.06,-0.02 0.1,-0.02 0.04,-0.01 0.09,-0.01 0.16,-0.01 0.06,0 0.11,0 0.15,0.01 0.04,0 0.08,0.01 0.1,0.02 0.03,0.01 0.04,0.02 0.05,0.03 0.01,0.02 0.02,0.03 0.02,0.05l0 3.37zm2.89 0c0,0.02 -0.01,0.03 -0.02,0.05 0,0.01 -0.02,0.02 -0.04,0.03 -0.02,0.01 -0.05,0.01 -0.09,0.02 -0.03,0 -0.08,0 -0.13,0 -0.05,0 -0.1,0 -0.14,0 -0.03,-0.01 -0.06,-0.01 -0.08,-0.02 -0.02,-0.01 -0.03,-0.02 -0.04,-0.03 -0.01,-0.02 -0.02,-0.03 -0.02,-0.05l0 -0.26c-0.12,0.13 -0.25,0.24 -0.38,0.3 -0.13,0.07 -0.27,0.11 -0.41,0.11 -0.16,0 -0.29,-0.03 -0.4,-0.08 -0.1,-0.05 -0.19,-0.12 -0.25,-0.21 -0.07,-0.09 -0.12,-0.19 -0.15,-0.31 -0.02,-0.12 -0.04,-0.26 -0.04,-0.44l0 -1.4c0,-0.01 0.01,-0.03 0.02,-0.04 0.01,-0.01 0.02,-0.02 0.05,-0.03 0.02,-0.01 0.06,-0.02 0.1,-0.02 0.04,-0.01 0.09,-0.01 0.15,-0.01 0.07,0 0.12,0 0.16,0.01 0.04,0 0.08,0.01 0.1,0.02 0.02,0.01 0.04,0.02 0.05,0.03 0.01,0.01 0.02,0.03 0.02,0.04l0 1.3c0,0.12 0.01,0.21 0.02,0.27 0.02,0.06 0.04,0.12 0.07,0.16 0.03,0.05 0.07,0.08 0.12,0.11 0.05,0.02 0.11,0.03 0.17,0.03 0.09,0 0.17,-0.02 0.25,-0.08 0.08,-0.06 0.17,-0.15 0.26,-0.26l0 -1.53c0,-0.01 0.01,-0.03 0.02,-0.04 0.01,-0.01 0.03,-0.02 0.05,-0.03 0.03,-0.01 0.06,-0.02 0.1,-0.02 0.04,-0.01 0.09,-0.01 0.16,-0.01 0.06,0 0.11,0 0.15,0.01 0.04,0 0.08,0.01 0.1,0.02 0.02,0.01 0.04,0.02 0.05,0.03 0.01,0.01 0.02,0.03 0.02,0.04l0 2.29zm2.08 -0.22c0,0.07 -0.01,0.13 -0.02,0.17 -0.01,0.04 -0.02,0.07 -0.04,0.08 -0.01,0.02 -0.03,0.04 -0.06,0.05 -0.03,0.01 -0.07,0.02 -0.11,0.03 -0.04,0.01 -0.08,0.02 -0.13,0.02 -0.05,0.01 -0.09,0.01 -0.14,0.01 -0.13,0 -0.24,-0.02 -0.34,-0.05 -0.09,-0.03 -0.17,-0.08 -0.23,-0.15 -0.06,-0.06 -0.11,-0.15 -0.14,-0.25 -0.02,-0.11 -0.04,-0.23 -0.04,-0.37l0 -1.17 -0.28 0c-0.03,0 -0.05,-0.02 -0.07,-0.06 -0.02,-0.04 -0.03,-0.11 -0.03,-0.2 0,-0.05 0,-0.09 0.01,-0.13 0,-0.03 0.01,-0.06 0.02,-0.08 0.01,-0.02 0.02,-0.03 0.03,-0.04 0.01,-0.01 0.03,-0.01 0.05,-0.01l0.27 0 0 -0.52c0,-0.01 0,-0.03 0.01,-0.04 0.01,-0.01 0.03,-0.03 0.06,-0.04 0.02,0 0.06,-0.01 0.1,-0.02 0.04,0 0.09,0 0.15,0 0.07,0 0.12,0 0.16,0 0.04,0.01 0.08,0.02 0.1,0.02 0.02,0.01 0.04,0.03 0.05,0.04 0.01,0.01 0.02,0.03 0.02,0.04l0 0.52 0.49 0c0.02,0 0.04,0 0.05,0.01 0.01,0.01 0.02,0.02 0.03,0.04 0.01,0.02 0.01,0.05 0.02,0.08 0,0.04 0.01,0.08 0.01,0.13 0,0.09 -0.01,0.16 -0.03,0.2 -0.02,0.04 -0.04,0.06 -0.08,0.06l-0.49 0 0 1.08c0,0.12 0.02,0.22 0.06,0.28 0.03,0.06 0.1,0.09 0.21,0.09 0.03,0 0.06,0 0.09,-0.01 0.02,0 0.05,-0.01 0.07,-0.02 0.02,-0.01 0.04,-0.01 0.05,-0.02 0.02,-0.01 0.03,-0.01 0.04,-0.01 0.01,0 0.02,0 0.03,0.01 0.01,0.01 0.02,0.02 0.03,0.04 0,0.01 0,0.04 0.01,0.07 0,0.03 0.01,0.07 0.01,0.12zm1.18 0.22c0,0.02 0,0.03 -0.01,0.05 -0.01,0.01 -0.03,0.02 -0.06,0.03 -0.02,0.01 -0.05,0.01 -0.09,0.02 -0.05,0 -0.1,0 -0.16,0 -0.06,0 -0.12,0 -0.16,0 -0.04,-0.01 -0.07,-0.01 -0.1,-0.02 -0.02,-0.01 -0.04,-0.02 -0.05,-0.03 -0.01,-0.02 -0.01,-0.03 -0.01,-0.05l0 -2.28c0,-0.02 0,-0.03 0.01,-0.05 0.01,-0.01 0.03,-0.02 0.05,-0.03 0.03,-0.01 0.06,-0.02 0.1,-0.02 0.04,-0.01 0.1,-0.01 0.16,-0.01 0.06,0 0.11,0 0.16,0.01 0.04,0 0.07,0.01 0.09,0.02 0.03,0.01 0.05,0.02 0.06,0.03 0.01,0.02 0.01,0.03 0.01,0.05l0 2.28zm0.05 -3.06c0,0.13 -0.02,0.22 -0.08,0.27 -0.05,0.05 -0.15,0.07 -0.29,0.07 -0.15,0 -0.25,-0.02 -0.3,-0.07 -0.05,-0.05 -0.07,-0.14 -0.07,-0.26 0,-0.13 0.02,-0.22 0.08,-0.27 0.05,-0.05 0.15,-0.08 0.29,-0.08 0.15,0 0.25,0.03 0.3,0.08 0.05,0.05 0.07,0.13 0.07,0.26z"/>
   <path class="fil0" d="M74.3 97.81c0,0.2 -0.02,0.38 -0.08,0.54 -0.05,0.16 -0.12,0.3 -0.23,0.41 -0.1,0.12 -0.23,0.21 -0.39,0.27 -0.16,0.07 -0.34,0.1 -0.55,0.1 -0.21,0 -0.38,-0.03 -0.53,-0.09 -0.16,-0.05 -0.28,-0.14 -0.38,-0.24 -0.1,-0.11 -0.17,-0.24 -0.22,-0.4 -0.05,-0.16 -0.07,-0.34 -0.07,-0.54 0,-0.19 0.03,-0.37 0.08,-0.53 0.05,-0.16 0.13,-0.3 0.23,-0.42 0.11,-0.11 0.24,-0.2 0.39,-0.27 0.16,-0.06 0.34,-0.09 0.55,-0.09 0.21,0 0.39,0.03 0.54,0.08 0.15,0.06 0.27,0.14 0.37,0.25 0.1,0.1 0.17,0.24 0.22,0.39 0.05,0.16 0.07,0.34 0.07,0.54zm-0.66 0.03c0,-0.11 -0.01,-0.22 -0.03,-0.31 -0.02,-0.1 -0.05,-0.18 -0.09,-0.25 -0.04,-0.07 -0.1,-0.12 -0.17,-0.16 -0.07,-0.04 -0.16,-0.06 -0.27,-0.06 -0.1,0 -0.18,0.02 -0.25,0.05 -0.07,0.04 -0.13,0.09 -0.18,0.16 -0.05,0.06 -0.08,0.14 -0.1,0.24 -0.03,0.09 -0.04,0.2 -0.04,0.32 0,0.12 0.01,0.22 0.03,0.31 0.02,0.1 0.05,0.18 0.09,0.25 0.04,0.07 0.1,0.13 0.17,0.16 0.07,0.04 0.16,0.06 0.27,0.06 0.1,0 0.18,-0.01 0.25,-0.05 0.08,-0.04 0.14,-0.09 0.18,-0.15 0.05,-0.07 0.08,-0.15 0.11,-0.24 0.02,-0.1 0.03,-0.21 0.03,-0.33zm3.43 1.14c0,0.02 0,0.03 -0.01,0.05 -0.01,0.01 -0.03,0.02 -0.05,0.03 -0.03,0.01 -0.06,0.01 -0.1,0.02 -0.05,0 -0.1,0 -0.16,0 -0.06,0 -0.11,0 -0.16,0 -0.04,-0.01 -0.07,-0.01 -0.1,-0.02 -0.02,-0.01 -0.04,-0.02 -0.05,-0.03 -0.01,-0.02 -0.01,-0.03 -0.01,-0.05l0 -1.3c0,-0.11 -0.01,-0.2 -0.03,-0.26 -0.01,-0.07 -0.04,-0.12 -0.07,-0.17 -0.03,-0.04 -0.07,-0.08 -0.12,-0.1 -0.05,-0.03 -0.1,-0.04 -0.17,-0.04 -0.08,0 -0.16,0.03 -0.24,0.09 -0.09,0.06 -0.18,0.15 -0.27,0.26l0 1.52c0,0.02 0,0.03 -0.01,0.05 -0.01,0.01 -0.03,0.02 -0.05,0.03 -0.03,0.01 -0.06,0.01 -0.1,0.02 -0.04,0 -0.09,0 -0.16,0 -0.06,0 -0.11,0 -0.15,0 -0.04,-0.01 -0.08,-0.01 -0.1,-0.02 -0.03,-0.01 -0.05,-0.02 -0.06,-0.03 -0.01,-0.02 -0.01,-0.03 -0.01,-0.05l0 -2.29c0,-0.01 0,-0.03 0.01,-0.04 0.01,-0.01 0.03,-0.02 0.05,-0.03 0.02,-0.01 0.05,-0.02 0.08,-0.02 0.04,-0.01 0.08,-0.01 0.14,-0.01 0.05,0 0.1,0 0.13,0.01 0.04,0 0.06,0.01 0.08,0.02 0.02,0.01 0.04,0.02 0.05,0.03 0.01,0.01 0.01,0.03 0.01,0.04l0 0.27c0.13,-0.14 0.25,-0.24 0.39,-0.31 0.13,-0.07 0.26,-0.1 0.4,-0.1 0.16,0 0.29,0.02 0.4,0.08 0.1,0.05 0.19,0.12 0.26,0.21 0.06,0.08 0.11,0.19 0.14,0.3 0.03,0.12 0.04,0.26 0.04,0.43l0 1.41z"/>
  </g>
  <path class="fil1" d="M40.5 14.97c13.22,0 23.95,10.72 23.95,23.95 0,13.23 -10.73,23.95 -23.95,23.95 -13.23,0 -23.96,-10.72 -23.96,-23.95 0,-13.23 10.73,-23.95 23.96,-23.95z"/>
  <path class="fil2" d="M40.5 11.7c15.03,0 27.21,12.19 27.21,27.22 0,15.03 -12.18,27.22 -27.21,27.22 -15.04,0 -27.22,-12.19 -27.22,-27.22 0,-15.03 12.18,-27.22 27.22,-27.22zm21.98 36.74c-5.78,-3.59 -4.86,-11.21 -0.77,-18.59 -12.39,2.16 -13.39,16.24 -22.36,23.67 -5.16,4.44 -10.07,7.08 -14.78,3.29 -4.92,-4.39 -8.03,-10.78 -8.03,-17.89 0,-13.23 10.73,-23.95 23.96,-23.95 13.22,0 23.95,10.72 23.95,23.95 0,3.38 -0.71,6.6 -1.97,9.52z"/>
  <path class="fil3" d="M53.42 31.18c-1.42,1.29 -2.63,2.81 -3.74,4.46l2.42 -19.71c1.39,-2.63 2.78,-5.26 4.17,-7.89 -0.95,7.71 -1.9,15.43 -2.85,23.14zm-14.94 8.96l10.04 -2.69c-0.69,1.12 -1.36,2.28 -2.04,3.44l-7.28 1.95 1.67 6.21c-0.67,0.73 -1.38,1.42 -2.16,2.07 -0.05,0.04 -0.1,0.08 -0.15,0.13l-2.78 -10.39 2.7 -0.72z"/>
  <path class="fil4" d="M25.34 12.74l2.56 -0.69 0.15 -0.03 0.85 3.19 0.74 2.77 5.41 20.18 0.73 2.7 -2.71 0.73 -7.7 2.06 -3.31 0.88 -1.82 -2.41 -11.08 -14.7 0 0 4.56 0.78 9.83 13.04 8.8 -2.36 -5.41 -20.18 -0.54 -2.01 -0.89 -3.31 -0.17 -0.64zm-18.65 11.4l0 0 5.07 1.45 0 0 -5.07 -1.45z"/>
  <path class="fil5" d="M46.18 38.07l-7.7 2.07 -2.7 0.72 -0.73 -2.7 -5.41 -20.18 -0.74 -2.77 -0.85 -3.19 2.7 -0.73 0.74 2.77 0.86 3.19 5.41 20.18 8.79 -2.35 1.99 -16.21 3.55 -2.95 0.01 0.01 -2.24 18.26 -0.18 1.45c-0.04,0.05 -0.07,0.1 -0.11,0.15l0 0.01c-0.08,0.12 -0.17,0.25 -0.26,0.39l0 0 -0.03 0.05 -0.02 0.03 -0.02 0.03 -0.03 0.05 -0.01 0.01 -0.03 0.05 -0.03 0.05 -0.01 0.01 -0.02 0.04 -0.01 0.02 -0.01 0 -0.07 0.11 -0.02 0.03 -0.01 0.03 -0.01 0c-0.15,0.25 -0.31,0.5 -0.46,0.75l-2.34 0.62zm2.76 -22.44l0 0 0.87 -0.9 -0.87 0.9z"/>
  <path class="fil6" d="M35.78 40.86l2.78 10.39c-0.8,0.68 -1.6,1.32 -2.39,1.9l-2.37 -8.86 -9.92 2.66 -3.3 0.88 -18.96 -25.15 7.54 4.74 12.9 17.11 11.01 -2.94 2.71 -0.73z"/>
  <polygon class="fil7" points="24.83,0 33.6,10.53 22.49,13.51 "/>
  <polygon class="fil8" points="26.36,5.71 33.6,10.53 22.49,13.51 "/>
  <polygon class="fil9" points="15.1,26.55 13.72,28.2 9.16,27.42 1.62,22.68 "/>
  <polygon class="fil10" points="46.52,18.13 48.54,18.87 52.1,15.91 56.27,8.04 "/>
  <path class="fil0" d="M12.95 70.78c-0.73,1.19 -1.25,2.28 -1.57,3.29 -0.21,-0.63 -0.38,-1.07 -0.55,-1.35 -0.4,-0.7 -1.11,-1.04 -2.12,-1.04 -0.23,0 -0.61,0.02 -1.16,0.06l0 11.43 1.5 1.23 -5.11 0 1.49 -1.23 0 -11.43c-0.54,-0.04 -0.93,-0.06 -1.16,-0.06 -1.01,0 -1.71,0.34 -2.12,1.04 -0.16,0.28 -0.34,0.72 -0.55,1.35 -0.32,-1.02 -0.84,-2.11 -1.56,-3.29l12.91 0zm0.25 1.36c0.52,-0.34 1.08,-0.63 1.66,-0.86 1.41,-0.55 2.81,-0.83 4.22,-0.83 0.73,0 1.44,0.11 2.12,0.31 0.68,0.22 1.25,0.5 1.72,0.87 0.83,0.65 1.24,1.45 1.24,2.41 0,0.83 -0.31,1.56 -0.95,2.2 -0.63,0.64 -1.5,1.1 -2.6,1.38 0.47,1.29 1.13,2.59 1.99,3.89 0.87,1.3 1.7,2.26 2.51,2.89 -1.3,0.41 -2.43,1 -3.41,1.76 -0.26,-1.59 -0.54,-2.94 -0.85,-4.05 -0.31,-1.12 -0.8,-2.5 -1.45,-4.15 -0.32,0.1 -0.75,0.19 -1.31,0.29 -0.56,0.11 -0.98,0.17 -1.28,0.19l0 4.73 1.5 1.23 -5.11 0 1.49 -1.23 0 -4.43c-0.75,0.06 -1.33,0.17 -1.75,0.32 0.23,-0.4 0.39,-0.82 0.46,-1.25 0.22,0.02 0.4,0.03 0.53,0.03 0.2,0 0.45,-0.01 0.76,-0.05l0 -4.83 -1.49 -0.82zm3.61 -0.08l0 5.58c1.31,-0.14 2.39,-0.44 3.26,-0.89 0.66,-0.34 1.14,-0.78 1.43,-1.33 0.24,-0.43 0.36,-0.89 0.36,-1.35 0,-0.88 -0.35,-1.58 -1.03,-2.1 -0.57,-0.43 -1.23,-0.64 -1.99,-0.64 -0.77,0 -1.45,0.24 -2.03,0.73zm8.57 -1.28l5.11 0 -1.5 1.23 0 11.16 1.5 1.23 -5.11 0 1.49 -1.23 0 -11.16 -1.49 -1.23zm6.19 0l4.58 0c2.04,0 3.56,0.39 4.54,1.18 1.46,1.16 2.19,2.99 2.19,5.49 0,2.79 -0.78,4.75 -2.34,5.87 -0.55,0.4 -1.16,0.68 -1.81,0.84 -0.64,0.16 -1.5,0.24 -2.57,0.24l-4.59 0 1.49 -1.23 0 -11.16 -1.49 -1.23zm3.61 0.96l0 11.7c0.6,0.05 1.01,0.08 1.25,0.08 1.37,0 2.39,-0.51 3.06,-1.52 0.72,-1.09 1.08,-2.62 1.08,-4.58 0,-1.63 -0.28,-2.95 -0.84,-3.96 -0.67,-1.19 -1.76,-1.78 -3.25,-1.78 -0.21,0 -0.65,0.02 -1.3,0.06zm20.12 -0.96c-0.54,0.65 -0.92,1.18 -1.14,1.57 -0.23,0.4 -0.48,0.96 -0.74,1.69 -0.06,-0.13 -0.11,-0.25 -0.16,-0.36 -0.24,-0.51 -0.45,-0.89 -0.65,-1.12 -0.19,-0.24 -0.42,-0.42 -0.72,-0.55 -0.46,-0.22 -1.18,-0.33 -2.16,-0.33 -0.65,0 -1.32,0.02 -2.01,0.06l0 4.9 2.89 0 1.35 -1.64 0 4.17 -1.35 -1.63 -2.89 0 0 5.91c0.65,0.04 1.11,0.07 1.38,0.07 1.5,0 2.57,-0.22 3.23,-0.65 0.47,-0.32 0.98,-0.97 1.52,-1.96 0.17,0.76 0.39,1.39 0.68,1.87 0.28,0.48 0.73,1.02 1.35,1.62l-11.78 0 1.49 -1.22 0 -5.64c-0.86,-0.03 -1.6,0.22 -2.22,0.75 0.29,-1.09 1.02,-1.65 2.22,-1.65l0 -4.63 -1.49 -1.23 11.2 0zm10.19 11.02l0 -7.08c0,-1.25 -0.16,-2.16 -0.46,-2.72 -0.31,-0.55 -0.88,-0.96 -1.71,-1.22l5.2 0c-0.84,0.26 -1.41,0.67 -1.72,1.22 -0.3,0.55 -0.46,1.46 -0.46,2.72l0 9.68 -1.71 0 -5.86 -11.36 0 7.42c0,1.26 0.15,2.17 0.46,2.72 0.31,0.55 0.87,0.96 1.71,1.22l-5.2 0c0.84,-0.27 1.41,-0.68 1.71,-1.23 0.31,-0.55 0.46,-1.46 0.46,-2.71l0 -8.45 -1.49 -1.23 5.5 0 -1.5 1.23 5.07 9.79zm15.47 -11.02c-0.72,1.19 -1.24,2.28 -1.56,3.29 -0.21,-0.63 -0.39,-1.07 -0.55,-1.35 -0.41,-0.7 -1.11,-1.04 -2.12,-1.04 -0.23,0 -0.62,0.02 -1.16,0.06l0 11.43 1.5 1.23 -5.12 0 1.5 -1.23 0 -11.43c-0.55,-0.04 -0.93,-0.06 -1.16,-0.06 -1.01,0 -1.72,0.34 -2.12,1.04 -0.16,0.28 -0.34,0.72 -0.55,1.35 -0.33,-1.02 -0.85,-2.11 -1.57,-3.29l12.91 0z"/>
  <path class="fil0" d="M27.64 88.1c-0.09,0.12 -0.2,0.32 -0.34,0.6 -0.14,0.28 -0.27,0.56 -0.37,0.82 -0.06,-0.24 -0.13,-0.44 -0.2,-0.58 -0.1,-0.2 -0.25,-0.36 -0.46,-0.48 -0.22,-0.13 -0.44,-0.19 -0.69,-0.19 -0.31,0 -0.57,0.09 -0.77,0.27 -0.18,0.17 -0.27,0.38 -0.27,0.64 0,0.36 0.18,0.62 0.53,0.78 0.13,0.06 0.24,0.11 0.35,0.14 0.11,0.03 0.41,0.1 0.91,0.22 0.52,0.13 0.9,0.32 1.13,0.58 0.27,0.29 0.4,0.64 0.4,1.03 0,0.45 -0.16,0.83 -0.48,1.14 -0.37,0.37 -0.85,0.56 -1.44,0.56 -0.2,0 -0.39,-0.02 -0.58,-0.06 -0.2,-0.04 -0.5,-0.12 -0.92,-0.25 -0.18,-0.05 -0.33,-0.08 -0.45,-0.08 -0.15,0 -0.37,0.08 -0.64,0.25 0.15,-0.22 0.3,-0.5 0.47,-0.84 0.16,-0.34 0.27,-0.61 0.32,-0.81 0.08,0.32 0.16,0.55 0.24,0.69 0.13,0.22 0.32,0.4 0.57,0.53 0.29,0.15 0.61,0.22 0.98,0.22 0.38,0 0.67,-0.08 0.88,-0.25 0.23,-0.2 0.35,-0.44 0.35,-0.74 0,-0.18 -0.05,-0.35 -0.15,-0.51 -0.1,-0.16 -0.24,-0.3 -0.42,-0.4 -0.13,-0.08 -0.29,-0.14 -0.45,-0.19 -0.17,-0.05 -0.44,-0.12 -0.82,-0.19 -0.55,-0.1 -0.92,-0.27 -1.14,-0.49 -0.26,-0.27 -0.39,-0.61 -0.39,-1.03 0,-0.5 0.18,-0.9 0.55,-1.19 0.31,-0.25 0.7,-0.38 1.17,-0.38 0.34,0 0.73,0.07 1.18,0.21 0.2,0.06 0.35,0.1 0.44,0.1 0.12,0 0.29,-0.04 0.51,-0.12zm0.58 -0.06l2.04 0 -0.6 0.5 0 1.93c0.32,0.09 0.71,0.13 1.16,0.13 0.26,0 0.49,-0.02 0.71,-0.05l0 -2.01 -0.6 -0.5 2.04 0 -0.59 0.5 0 4.46 0.59 0.49 -2.04 0 0.6 -0.49 0 -2.07c-0.27,0.04 -0.53,0.05 -0.81,0.05 -0.43,0 -0.78,-0.03 -1.06,-0.1l0 2.12 0.6 0.49 -2.04 0 0.6 -0.49 0 -2.12c-0.16,0 -0.31,0.03 -0.45,0.09 -0.14,0.06 -0.25,0.15 -0.34,0.27 0.14,-0.43 0.41,-0.68 0.79,-0.76l0 -1.94 -0.6 -0.5zm5.19 0l2.05 0 -0.6 0.5 0 4.46 0.6 0.49 -2.05 0 0.6 -0.49 0 -4.46 -0.6 -0.5zm2.48 0l1.97 0c0.81,0 1.38,0.12 1.72,0.34 0.44,0.28 0.65,0.67 0.65,1.17 0,0.32 -0.09,0.59 -0.28,0.84 -0.33,0.42 -0.99,0.63 -1.98,0.63 -0.14,0 -0.35,-0.01 -0.63,-0.03l0 2.01 0.59 0.49 -2.04 0 0.6 -0.49 0 -2.07c-0.05,0 -0.09,-0.01 -0.14,-0.01 -0.23,0 -0.49,0.05 -0.76,0.16 0.17,-0.37 0.47,-0.54 0.9,-0.53l0 -2.01 -0.6 -0.5zm1.45 0.39l0 2.18c0.16,0.02 0.31,0.02 0.46,0.02 0.39,0 0.72,-0.06 0.97,-0.17 0.19,-0.09 0.33,-0.2 0.41,-0.35 0.09,-0.14 0.13,-0.33 0.13,-0.56 0,-0.21 -0.04,-0.39 -0.12,-0.55 -0.08,-0.17 -0.19,-0.29 -0.33,-0.38 -0.24,-0.14 -0.54,-0.22 -0.92,-0.22 -0.16,0 -0.36,0.01 -0.6,0.03zm3.22 -0.39l1.97 0c0.81,0 1.38,0.12 1.72,0.34 0.44,0.28 0.65,0.67 0.65,1.17 0,0.32 -0.09,0.59 -0.28,0.84 -0.33,0.42 -0.99,0.63 -1.98,0.63 -0.14,0 -0.35,-0.01 -0.64,-0.03l0 2.01 0.6 0.49 -2.04 0 0.6 -0.49 0 -2.07c-0.05,0 -0.09,-0.01 -0.14,-0.01 -0.23,0 -0.49,0.05 -0.77,0.16 0.18,-0.37 0.48,-0.54 0.91,-0.53l0 -2.01 -0.6 -0.5zm1.44 0.39l0 2.18c0.17,0.02 0.32,0.02 0.47,0.02 0.39,0 0.72,-0.06 0.97,-0.17 0.19,-0.09 0.33,-0.2 0.41,-0.35 0.09,-0.14 0.13,-0.33 0.13,-0.56 0,-0.21 -0.04,-0.39 -0.12,-0.55 -0.08,-0.17 -0.19,-0.29 -0.33,-0.38 -0.24,-0.14 -0.54,-0.22 -0.92,-0.22 -0.16,0 -0.36,0.01 -0.61,0.03zm3.23 -0.39l2.04 0 -0.6 0.5 0 4.46 0.6 0.49 -2.04 0 0.6 -0.49 0 -4.46 -0.6 -0.5zm6.1 4.41l0 -2.83c0,-0.5 -0.06,-0.86 -0.18,-1.09 -0.12,-0.22 -0.35,-0.38 -0.69,-0.49l2.08 0c-0.33,0.11 -0.56,0.27 -0.68,0.49 -0.13,0.22 -0.19,0.59 -0.19,1.09l0 3.87 -0.68 0 -2.35 -4.54 0 2.97c0,0.5 0.07,0.86 0.19,1.09 0.12,0.22 0.35,0.38 0.68,0.48l-2.08 0c0.34,-0.1 0.57,-0.27 0.69,-0.49 0.12,-0.22 0.18,-0.58 0.18,-1.08l0 -3.38 -0.6 -0.5 2.2 0 -0.59 0.5 2.02 3.91zm5.97 -4.34l-0.8 1.56c-0.04,-0.35 -0.13,-0.63 -0.26,-0.85 -0.11,-0.17 -0.25,-0.3 -0.42,-0.39 -0.2,-0.12 -0.42,-0.17 -0.67,-0.17 -0.46,0 -0.83,0.16 -1.13,0.49 -0.2,0.22 -0.34,0.45 -0.42,0.72 -0.1,0.37 -0.15,0.77 -0.15,1.21 0,1.64 0.67,2.46 2.03,2.46 0.13,0 0.37,-0.01 0.71,-0.03l0 -2.09 -1.18 0c-0.59,0 -0.88,-0.2 -0.88,-0.58 0,-0.12 0.04,-0.23 0.12,-0.31 0.08,-0.09 0.17,-0.13 0.28,-0.13 0.09,0 0.16,0.02 0.21,0.07 0.06,0.06 0.09,0.12 0.09,0.2 0,0.07 -0.02,0.12 -0.05,0.15 -0.04,0.04 -0.1,0.06 -0.19,0.08 -0.04,0.01 -0.06,0.03 -0.06,0.06 0,0.07 0.1,0.1 0.29,0.1l2.82 0 -0.6 0.49 0 1.85 0.6 0.49 -2.01 0c-0.47,0 -0.81,-0.01 -1.02,-0.04 -0.21,-0.02 -0.4,-0.07 -0.57,-0.15 -0.53,-0.23 -0.92,-0.6 -1.19,-1.13 -0.22,-0.43 -0.33,-0.92 -0.33,-1.45 0,-0.52 0.1,-0.99 0.3,-1.42 0.23,-0.49 0.58,-0.86 1.06,-1.11 0.36,-0.19 0.74,-0.28 1.12,-0.28 0.29,0 0.62,0.05 1,0.16 0.28,0.08 0.45,0.13 0.52,0.15 0.07,0.01 0.15,0.02 0.24,0.02 0.18,0 0.36,-0.04 0.54,-0.13z"/>
  <path class="fil11" d="M4.23 90.42l17.5 0c0.19,0 0.35,0.16 0.35,0.35l0 0c0,0.19 -0.16,0.35 -0.35,0.35l-17.5 0c-0.19,0 -0.35,-0.16 -0.35,-0.35l0 0c0,-0.19 0.16,-0.35 0.35,-0.35z"/>
  <path class="fil11" d="M59.16 90.42l17.5 0c0.19,0 0.35,0.16 0.35,0.35l0 0c0,0.19 -0.16,0.35 -0.35,0.35l-17.5 0c-0.19,0 -0.35,-0.16 -0.35,-0.35l0 0c0,-0.19 0.16,-0.35 0.35,-0.35z"/>
 </g>
</svg>
