<?xml version="1.0" encoding="UTF-8"?>
<!DOCTYPE svg PUBLIC "-//W3C//DTD SVG 1.1//EN" "http://www.w3.org/Graphics/SVG/1.1/DTD/svg11.dtd">
<!-- Creator: CorelDRAW 2019 (64-Bit) -->
<svg xmlns="http://www.w3.org/2000/svg" xml:space="preserve" width="90px" height="110px" version="1.1" style="shape-rendering:geometricPrecision; text-rendering:geometricPrecision; image-rendering:optimizeQuality; fill-rule:evenodd; clip-rule:evenodd"
viewBox="0 0 90 110"
 xmlns:xlink="http://www.w3.org/1999/xlink"
 xmlns:xodm="http://www.corel.com/coreldraw/odm/2003">
 <defs>
  <style type="text/css">
   <![CDATA[
    .fil11 {fill:#FEFEFE}
    .fil8 {fill:#D9DADA}
    .fil1 {fill:#213768}
    .fil0 {fill:#FEFEFE;fill-rule:nonzero}
    .fil2 {fill:url(#id0)}
    .fil10 {fill:url(#id1)}
    .fil9 {fill:url(#id2)}
    .fil6 {fill:url(#id3)}
    .fil4 {fill:url(#id4)}
    .fil5 {fill:url(#id5)}
    .fil3 {fill:url(#id6)}
    .fil7 {fill:url(#id7)}
   ]]>
  </style>
  <linearGradient id="id0" gradientUnits="userSpaceOnUse" x1="15.06" y1="42.81" x2="74.93" y2="42.81">
   <stop offset="0" style="stop-opacity:1; stop-color:#0A6CF1"/>
   <stop offset="1" style="stop-opacity:1; stop-color:#2BFBEE"/>
  </linearGradient>
  <radialGradient id="id1" gradientUnits="userSpaceOnUse" gradientTransform="matrix(1.34997 1.77655E-15 -1.47664E-15 1.34982 -20 -5)" cx="56.98" cy="14.8" r="5.96" fx="56.98" fy="14.8">
   <stop offset="0" style="stop-opacity:1; stop-color:#FEFEFE"/>
   <stop offset="1" style="stop-opacity:1; stop-color:#C5C6C6"/>
  </radialGradient>
  <radialGradient id="id2" gradientUnits="userSpaceOnUse" gradientTransform="matrix(1.08448 -0 -0 1.08461 -1 -2)" xlink:href="#id1" cx="9.65" cy="27.99" r="7.42" fx="9.65" fy="27.99">
  </radialGradient>
  <radialGradient id="id3" gradientUnits="userSpaceOnUse" gradientTransform="matrix(1.29971 -5.4939E-16 5.49374E-16 1.29968 -7 -12)" xlink:href="#id1" cx="22.55" cy="41.71" r="20.32" fx="22.55" fy="41.71">
  </radialGradient>
  <radialGradient id="id4" gradientUnits="userSpaceOnUse" gradientTransform="matrix(2.67406 5.55093E-17 -5.55112E-17 2.67415 -13 -81)" xlink:href="#id1" cx="7.81" cy="48.63" r="17.88" fx="7.81" fy="48.63">
  </radialGradient>
  <radialGradient id="id5" gradientUnits="userSpaceOnUse" gradientTransform="matrix(2.49597 3.33067E-16 2.21149E-16 2.49597 -86 -65)" xlink:href="#id1" cx="57.23" cy="43.64" r="16.26" fx="57.23" fy="43.64">
  </radialGradient>
  <radialGradient id="id6" gradientUnits="userSpaceOnUse" gradientTransform="matrix(1.5237 -2.22039E-16 2.22045E-16 1.52373 -27 -23)" xlink:href="#id1" cx="50.85" cy="43.06" r="23.76" fx="50.85" fy="43.06">
  </radialGradient>
  <radialGradient id="id7" gradientUnits="userSpaceOnUse" gradientTransform="matrix(1.74718 -0 -0 1.74729 -21 -4)" cx="28.24" cy="5.64" r="48.25" fx="28.24" fy="5.64">
   <stop offset="0" style="stop-opacity:1; stop-color:#FEFEFE"/>
   <stop offset="0.560784" style="stop-opacity:1; stop-color:#E1E2E2"/>
   <stop offset="1" style="stop-opacity:1; stop-color:#C5C6C6"/>
  </radialGradient>
 </defs>
 <g id="Layer_x0020_1">
  <metadata id="CorelCorpID_0Corel-Layer"/>
  <g id="_3001760916704">
   <path class="fil0" d="M6.82 107.59l0 1.28c0,0.02 -0.01,0.04 -0.02,0.05 -0.01,0.02 -0.03,0.03 -0.06,0.04 -0.03,0.01 -0.07,0.01 -0.11,0.02 -0.05,0.01 -0.11,0.01 -0.18,0.01 -0.08,0 -0.14,0 -0.18,-0.01 -0.05,-0.01 -0.09,-0.01 -0.12,-0.02 -0.03,-0.01 -0.05,-0.02 -0.06,-0.04 -0.01,-0.01 -0.02,-0.03 -0.02,-0.05l0 -1.28 -0.99 -1.99c-0.04,-0.07 -0.06,-0.12 -0.07,-0.16 -0.01,-0.04 -0.01,-0.07 0.01,-0.09 0.02,-0.02 0.06,-0.03 0.12,-0.04 0.06,0 0.14,0 0.24,0 0.09,0 0.16,0 0.21,0 0.05,0.01 0.09,0.01 0.12,0.02 0.03,0.01 0.06,0.03 0.07,0.04 0.01,0.02 0.03,0.04 0.04,0.07l0.41 0.9c0.04,0.08 0.08,0.17 0.12,0.27 0.04,0.09 0.07,0.2 0.11,0.3l0.01 0c0.04,-0.1 0.07,-0.2 0.11,-0.3 0.04,-0.09 0.07,-0.18 0.11,-0.27l0.4 -0.89c0.01,-0.03 0.02,-0.06 0.04,-0.07 0.01,-0.02 0.03,-0.03 0.06,-0.05 0.03,-0.01 0.07,-0.01 0.12,-0.02 0.04,0 0.11,0 0.19,0 0.11,0 0.19,0 0.25,0 0.06,0.01 0.1,0.02 0.12,0.04 0.02,0.02 0.03,0.05 0.02,0.09 -0.02,0.04 -0.04,0.09 -0.07,0.16l-1 1.99zm3.64 0c0,0.22 -0.02,0.41 -0.08,0.59 -0.06,0.18 -0.14,0.33 -0.26,0.46 -0.11,0.12 -0.25,0.22 -0.43,0.29 -0.17,0.07 -0.37,0.11 -0.6,0.11 -0.23,0 -0.42,-0.03 -0.59,-0.1 -0.16,-0.06 -0.3,-0.15 -0.41,-0.27 -0.11,-0.12 -0.19,-0.26 -0.24,-0.43 -0.06,-0.18 -0.08,-0.37 -0.08,-0.6 0,-0.21 0.03,-0.41 0.08,-0.58 0.06,-0.18 0.15,-0.33 0.26,-0.46 0.12,-0.13 0.26,-0.22 0.43,-0.3 0.17,-0.07 0.38,-0.1 0.61,-0.1 0.22,0 0.42,0.03 0.58,0.09 0.17,0.06 0.31,0.15 0.41,0.27 0.11,0.12 0.19,0.27 0.25,0.44 0.05,0.17 0.07,0.37 0.07,0.59zm-0.72 0.03c0,-0.12 -0.01,-0.24 -0.03,-0.34 -0.02,-0.11 -0.06,-0.2 -0.1,-0.27 -0.05,-0.08 -0.11,-0.14 -0.19,-0.18 -0.08,-0.05 -0.18,-0.07 -0.3,-0.07 -0.1,0 -0.2,0.02 -0.28,0.06 -0.07,0.04 -0.14,0.09 -0.19,0.17 -0.05,0.07 -0.09,0.16 -0.12,0.27 -0.02,0.1 -0.03,0.22 -0.03,0.35 0,0.13 0.01,0.24 0.03,0.35 0.02,0.1 0.05,0.19 0.1,0.27 0.04,0.07 0.11,0.13 0.19,0.18 0.08,0.04 0.17,0.06 0.29,0.06 0.11,0 0.2,-0.02 0.28,-0.06 0.08,-0.04 0.15,-0.09 0.2,-0.17 0.05,-0.07 0.09,-0.16 0.11,-0.26 0.03,-0.11 0.04,-0.23 0.04,-0.36zm3.76 1.26c0,0.02 -0.01,0.03 -0.02,0.05 -0.01,0.01 -0.02,0.02 -0.05,0.03 -0.02,0.01 -0.05,0.02 -0.09,0.02 -0.04,0.01 -0.09,0.01 -0.14,0.01 -0.07,0 -0.12,0 -0.16,-0.01 -0.03,0 -0.07,-0.01 -0.09,-0.02 -0.02,-0.01 -0.04,-0.02 -0.04,-0.03 -0.01,-0.02 -0.02,-0.03 -0.02,-0.05l0 -0.29c-0.14,0.15 -0.28,0.26 -0.42,0.33 -0.15,0.08 -0.3,0.12 -0.45,0.12 -0.17,0 -0.32,-0.03 -0.44,-0.09 -0.12,-0.05 -0.21,-0.13 -0.28,-0.23 -0.08,-0.1 -0.13,-0.21 -0.16,-0.34 -0.03,-0.13 -0.05,-0.29 -0.05,-0.48l0 -1.54c0,-0.02 0.01,-0.04 0.02,-0.05 0.01,-0.01 0.03,-0.03 0.06,-0.04 0.02,0 0.06,-0.01 0.11,-0.02 0.04,0 0.1,0 0.17,0 0.07,0 0.13,0 0.17,0 0.05,0.01 0.08,0.02 0.11,0.02 0.03,0.01 0.05,0.03 0.06,0.04 0.01,0.01 0.02,0.03 0.02,0.05l0 1.42c0,0.13 0,0.23 0.02,0.3 0.02,0.07 0.04,0.13 0.08,0.18 0.03,0.05 0.08,0.09 0.13,0.12 0.05,0.02 0.12,0.04 0.19,0.04 0.09,0 0.18,-0.03 0.27,-0.1 0.09,-0.07 0.19,-0.16 0.29,-0.29l0 -1.67c0,-0.02 0.01,-0.04 0.02,-0.05 0.01,-0.01 0.03,-0.03 0.05,-0.04 0.03,0 0.07,-0.01 0.11,-0.02 0.05,0 0.11,0 0.17,0 0.07,0 0.13,0 0.18,0 0.04,0.01 0.08,0.02 0.1,0.02 0.03,0.01 0.05,0.03 0.06,0.04 0.01,0.01 0.02,0.03 0.02,0.05l0 2.52zm2.41 -2.29c0,0.07 0,0.13 0,0.17 -0.01,0.04 -0.01,0.08 -0.02,0.1 -0.01,0.03 -0.02,0.04 -0.03,0.05 -0.01,0.01 -0.03,0.02 -0.05,0.02 -0.01,0 -0.03,-0.01 -0.05,-0.01 -0.02,-0.01 -0.04,-0.02 -0.06,-0.03 -0.03,0 -0.05,-0.01 -0.08,-0.02 -0.03,0 -0.06,-0.01 -0.09,-0.01 -0.04,0 -0.08,0.01 -0.12,0.03 -0.04,0.02 -0.08,0.04 -0.12,0.07 -0.05,0.04 -0.09,0.08 -0.14,0.14 -0.04,0.05 -0.09,0.12 -0.15,0.21l0 1.57c0,0.02 0,0.03 -0.01,0.05 -0.01,0.01 -0.03,0.02 -0.06,0.03 -0.03,0.01 -0.06,0.02 -0.11,0.02 -0.04,0.01 -0.1,0.01 -0.17,0.01 -0.07,0 -0.13,0 -0.17,-0.01 -0.05,0 -0.08,-0.01 -0.11,-0.02 -0.03,-0.01 -0.05,-0.02 -0.06,-0.03 -0.01,-0.02 -0.02,-0.03 -0.02,-0.05l0 -2.52c0,-0.02 0.01,-0.04 0.02,-0.05 0.01,-0.01 0.02,-0.03 0.05,-0.04 0.02,0 0.05,-0.01 0.09,-0.02 0.04,0 0.09,0 0.15,0 0.06,0 0.11,0 0.15,0 0.04,0.01 0.07,0.02 0.09,0.02 0.02,0.01 0.04,0.03 0.05,0.04 0.01,0.01 0.01,0.03 0.01,0.05l0 0.31c0.07,-0.09 0.13,-0.17 0.19,-0.23 0.05,-0.06 0.11,-0.11 0.16,-0.14 0.06,-0.04 0.11,-0.07 0.16,-0.08 0.05,-0.01 0.11,-0.02 0.16,-0.02 0.02,0 0.05,0 0.08,0 0.03,0.01 0.06,0.01 0.09,0.02 0.03,0.01 0.05,0.01 0.07,0.02 0.03,0.01 0.04,0.02 0.05,0.03 0.01,0.01 0.02,0.02 0.03,0.03 0,0.01 0.01,0.03 0.01,0.05 0,0.01 0.01,0.05 0.01,0.08 0,0.04 0,0.1 0,0.16zm4.03 1.29c0,0.19 -0.04,0.36 -0.11,0.5 -0.07,0.15 -0.16,0.27 -0.29,0.36 -0.12,0.1 -0.26,0.17 -0.43,0.22 -0.16,0.05 -0.33,0.08 -0.52,0.08 -0.13,0 -0.24,-0.01 -0.35,-0.04 -0.11,-0.02 -0.21,-0.04 -0.29,-0.07 -0.08,-0.03 -0.15,-0.06 -0.21,-0.09 -0.05,-0.04 -0.09,-0.07 -0.12,-0.09 -0.02,-0.03 -0.04,-0.06 -0.05,-0.11 -0.01,-0.04 -0.01,-0.11 -0.01,-0.2 0,-0.05 0,-0.1 0,-0.14 0.01,-0.04 0.01,-0.07 0.02,-0.1 0.01,-0.02 0.02,-0.04 0.03,-0.05 0.02,-0.01 0.03,-0.01 0.05,-0.01 0.03,0 0.07,0.01 0.11,0.04 0.05,0.03 0.11,0.07 0.19,0.11 0.07,0.03 0.17,0.07 0.27,0.1 0.1,0.03 0.23,0.05 0.36,0.05 0.09,0 0.17,-0.02 0.25,-0.04 0.07,-0.02 0.13,-0.05 0.18,-0.09 0.05,-0.04 0.09,-0.09 0.11,-0.14 0.03,-0.06 0.04,-0.13 0.04,-0.2 0,-0.08 -0.02,-0.15 -0.07,-0.21 -0.04,-0.06 -0.1,-0.11 -0.17,-0.16 -0.07,-0.04 -0.16,-0.09 -0.25,-0.13 -0.09,-0.04 -0.19,-0.08 -0.28,-0.13 -0.1,-0.04 -0.2,-0.09 -0.29,-0.15 -0.09,-0.06 -0.17,-0.12 -0.25,-0.2 -0.07,-0.08 -0.13,-0.18 -0.17,-0.29 -0.05,-0.11 -0.07,-0.24 -0.07,-0.39 0,-0.17 0.03,-0.33 0.1,-0.46 0.06,-0.13 0.15,-0.24 0.26,-0.33 0.11,-0.09 0.24,-0.15 0.39,-0.2 0.15,-0.04 0.3,-0.06 0.47,-0.06 0.09,0 0.18,0.01 0.26,0.02 0.09,0.01 0.17,0.03 0.24,0.05 0.08,0.03 0.15,0.05 0.2,0.08 0.06,0.03 0.1,0.05 0.12,0.07 0.02,0.02 0.03,0.03 0.04,0.05 0,0.01 0.01,0.03 0.01,0.05 0.01,0.02 0.01,0.05 0.01,0.08 0.01,0.03 0.01,0.08 0.01,0.12 0,0.06 0,0.1 -0.01,0.14 0,0.04 0,0.07 -0.01,0.09 -0.01,0.03 -0.02,0.05 -0.03,0.06 -0.01,0.01 -0.03,0.01 -0.05,0.01 -0.02,0 -0.05,-0.01 -0.1,-0.03 -0.04,-0.03 -0.1,-0.06 -0.16,-0.09 -0.07,-0.03 -0.15,-0.06 -0.23,-0.08 -0.09,-0.03 -0.18,-0.04 -0.29,-0.04 -0.08,0 -0.15,0.01 -0.21,0.03 -0.06,0.02 -0.11,0.04 -0.15,0.08 -0.04,0.03 -0.07,0.07 -0.09,0.12 -0.02,0.05 -0.03,0.1 -0.03,0.16 0,0.08 0.02,0.15 0.07,0.21 0.04,0.06 0.1,0.11 0.17,0.16 0.08,0.04 0.16,0.09 0.26,0.13 0.09,0.04 0.19,0.08 0.29,0.12 0.09,0.05 0.19,0.1 0.28,0.16 0.1,0.06 0.18,0.12 0.26,0.2 0.07,0.08 0.13,0.18 0.17,0.29 0.05,0.1 0.07,0.23 0.07,0.38zm3.01 1c0,0.02 -0.01,0.03 -0.02,0.05 -0.01,0.01 -0.03,0.02 -0.05,0.03 -0.03,0.01 -0.07,0.02 -0.11,0.02 -0.05,0.01 -0.11,0.01 -0.17,0.01 -0.07,0 -0.13,0 -0.18,-0.01 -0.04,0 -0.08,-0.01 -0.11,-0.02 -0.02,-0.01 -0.04,-0.02 -0.05,-0.03 -0.02,-0.02 -0.02,-0.03 -0.02,-0.05l0 -1.44c0,-0.12 -0.01,-0.22 -0.03,-0.29 -0.02,-0.07 -0.04,-0.13 -0.08,-0.17 -0.03,-0.05 -0.07,-0.09 -0.13,-0.12 -0.05,-0.03 -0.11,-0.04 -0.18,-0.04 -0.09,0 -0.18,0.03 -0.28,0.1 -0.09,0.06 -0.18,0.16 -0.28,0.28l0 1.68c0,0.02 -0.01,0.03 -0.02,0.05 -0.01,0.01 -0.03,0.02 -0.06,0.03 -0.02,0.01 -0.06,0.02 -0.11,0.02 -0.04,0.01 -0.1,0.01 -0.17,0.01 -0.07,0 -0.13,0 -0.17,-0.01 -0.04,0 -0.08,-0.01 -0.11,-0.02 -0.03,-0.01 -0.04,-0.02 -0.06,-0.03 -0.01,-0.02 -0.01,-0.03 -0.01,-0.05l0 -3.71c0,-0.02 0,-0.04 0.01,-0.05 0.02,-0.02 0.03,-0.03 0.06,-0.04 0.03,-0.01 0.07,-0.02 0.11,-0.03 0.04,0 0.1,0 0.17,0 0.07,0 0.13,0 0.17,0 0.05,0.01 0.09,0.02 0.11,0.03 0.03,0.01 0.05,0.02 0.06,0.04 0.01,0.01 0.02,0.03 0.02,0.05l0 1.39c0.12,-0.12 0.24,-0.21 0.37,-0.27 0.13,-0.06 0.26,-0.09 0.4,-0.09 0.17,0 0.31,0.03 0.43,0.09 0.12,0.05 0.21,0.13 0.29,0.23 0.07,0.09 0.12,0.21 0.15,0.34 0.03,0.13 0.05,0.29 0.05,0.47l0 1.55zm1.49 0c0,0.02 -0.01,0.03 -0.02,0.05 -0.01,0.01 -0.03,0.02 -0.06,0.03 -0.02,0.01 -0.06,0.02 -0.1,0.02 -0.05,0.01 -0.11,0.01 -0.18,0.01 -0.07,0 -0.12,0 -0.17,-0.01 -0.04,0 -0.08,-0.01 -0.11,-0.02 -0.02,-0.01 -0.04,-0.02 -0.05,-0.03 -0.02,-0.02 -0.02,-0.03 -0.02,-0.05l0 -2.52c0,-0.01 0,-0.03 0.02,-0.04 0.01,-0.02 0.03,-0.03 0.05,-0.04 0.03,-0.01 0.07,-0.02 0.11,-0.02 0.05,-0.01 0.1,-0.01 0.17,-0.01 0.07,0 0.13,0 0.18,0.01 0.04,0 0.08,0.01 0.1,0.02 0.03,0.01 0.05,0.02 0.06,0.04 0.01,0.01 0.02,0.03 0.02,0.04l0 2.52zm0.06 -3.38c0,0.15 -0.03,0.25 -0.09,0.3 -0.06,0.06 -0.17,0.08 -0.33,0.08 -0.16,0 -0.26,-0.02 -0.32,-0.08 -0.06,-0.05 -0.08,-0.14 -0.08,-0.28 0,-0.14 0.03,-0.24 0.08,-0.3 0.06,-0.05 0.17,-0.08 0.33,-0.08 0.16,0 0.26,0.02 0.32,0.08 0.06,0.05 0.09,0.15 0.09,0.28zm3.26 2.08c0,0.22 -0.02,0.43 -0.07,0.61 -0.05,0.18 -0.12,0.33 -0.21,0.45 -0.09,0.13 -0.21,0.23 -0.34,0.29 -0.14,0.07 -0.3,0.11 -0.48,0.11 -0.07,0 -0.14,-0.01 -0.2,-0.02 -0.06,-0.02 -0.12,-0.04 -0.18,-0.07 -0.05,-0.03 -0.11,-0.06 -0.17,-0.11 -0.05,-0.04 -0.11,-0.09 -0.17,-0.15l0 1.18c0,0.02 0,0.04 -0.02,0.05 -0.01,0.02 -0.03,0.03 -0.05,0.04 -0.03,0.01 -0.07,0.02 -0.11,0.03 -0.05,0 -0.11,0 -0.17,0 -0.07,0 -0.13,0 -0.18,0 -0.04,-0.01 -0.08,-0.02 -0.1,-0.03 -0.03,-0.01 -0.05,-0.02 -0.06,-0.04 -0.01,-0.01 -0.02,-0.03 -0.02,-0.05l0 -3.51c0,-0.02 0,-0.04 0.01,-0.05 0.01,-0.01 0.03,-0.03 0.05,-0.04 0.03,0 0.06,-0.01 0.1,-0.02 0.04,0 0.08,0 0.14,0 0.06,0 0.11,0 0.14,0 0.04,0.01 0.07,0.02 0.1,0.02 0.02,0.01 0.04,0.03 0.05,0.04 0.01,0.01 0.01,0.03 0.01,0.05l0 0.3c0.07,-0.08 0.15,-0.14 0.22,-0.2 0.07,-0.06 0.14,-0.11 0.21,-0.15 0.08,-0.03 0.15,-0.06 0.23,-0.08 0.08,-0.02 0.16,-0.03 0.25,-0.03 0.18,0 0.34,0.04 0.47,0.11 0.13,0.07 0.23,0.17 0.32,0.3 0.08,0.12 0.14,0.27 0.17,0.44 0.04,0.16 0.06,0.34 0.06,0.53zm-0.74 0.05c0,-0.11 -0.01,-0.21 -0.02,-0.31 -0.02,-0.1 -0.05,-0.18 -0.09,-0.26 -0.03,-0.08 -0.08,-0.14 -0.15,-0.18 -0.06,-0.05 -0.14,-0.07 -0.23,-0.07 -0.05,0 -0.1,0 -0.14,0.02 -0.05,0.01 -0.09,0.03 -0.14,0.07 -0.05,0.03 -0.1,0.07 -0.15,0.12 -0.05,0.05 -0.1,0.11 -0.16,0.19l0 0.83c0.1,0.12 0.19,0.22 0.28,0.29 0.09,0.07 0.19,0.1 0.29,0.1 0.09,0 0.17,-0.02 0.23,-0.07 0.06,-0.05 0.12,-0.11 0.16,-0.18 0.04,-0.08 0.07,-0.17 0.09,-0.26 0.02,-0.1 0.03,-0.19 0.03,-0.29zm3.92 -0.05c0,0.22 -0.02,0.43 -0.07,0.61 -0.05,0.18 -0.12,0.33 -0.21,0.45 -0.09,0.13 -0.21,0.23 -0.34,0.29 -0.14,0.07 -0.3,0.11 -0.47,0.11 -0.08,0 -0.14,-0.01 -0.2,-0.02 -0.07,-0.02 -0.13,-0.04 -0.18,-0.07 -0.06,-0.03 -0.12,-0.06 -0.17,-0.11 -0.06,-0.04 -0.12,-0.09 -0.18,-0.15l0 1.18c0,0.02 0,0.04 -0.01,0.05 -0.02,0.02 -0.04,0.03 -0.06,0.04 -0.03,0.01 -0.07,0.02 -0.11,0.03 -0.05,0 -0.1,0 -0.17,0 -0.07,0 -0.13,0 -0.17,0 -0.05,-0.01 -0.09,-0.02 -0.11,-0.03 -0.03,-0.01 -0.05,-0.02 -0.06,-0.04 -0.01,-0.01 -0.02,-0.03 -0.02,-0.05l0 -3.51c0,-0.02 0.01,-0.04 0.02,-0.05 0.01,-0.01 0.02,-0.03 0.05,-0.04 0.02,0 0.05,-0.01 0.09,-0.02 0.04,0 0.09,0 0.14,0 0.06,0 0.11,0 0.15,0 0.03,0.01 0.07,0.02 0.09,0.02 0.02,0.01 0.04,0.03 0.05,0.04 0.01,0.01 0.01,0.03 0.01,0.05l0 0.3c0.08,-0.08 0.15,-0.14 0.22,-0.2 0.07,-0.06 0.14,-0.11 0.21,-0.15 0.08,-0.03 0.15,-0.06 0.23,-0.08 0.08,-0.02 0.16,-0.03 0.25,-0.03 0.18,0 0.34,0.04 0.47,0.11 0.13,0.07 0.23,0.17 0.32,0.3 0.08,0.12 0.14,0.27 0.18,0.44 0.03,0.16 0.05,0.34 0.05,0.53zm-0.74 0.05c0,-0.11 -0.01,-0.21 -0.02,-0.31 -0.02,-0.1 -0.04,-0.18 -0.08,-0.26 -0.04,-0.08 -0.09,-0.14 -0.15,-0.18 -0.07,-0.05 -0.15,-0.07 -0.24,-0.07 -0.05,0 -0.09,0 -0.14,0.02 -0.05,0.01 -0.09,0.03 -0.14,0.07 -0.05,0.03 -0.1,0.07 -0.15,0.12 -0.05,0.05 -0.1,0.11 -0.16,0.19l0 0.83c0.1,0.12 0.2,0.22 0.29,0.29 0.09,0.07 0.18,0.1 0.28,0.1 0.09,0 0.17,-0.02 0.23,-0.07 0.07,-0.05 0.12,-0.11 0.16,-0.18 0.04,-0.08 0.07,-0.17 0.09,-0.26 0.02,-0.1 0.03,-0.19 0.03,-0.29zm2.1 1.25c0,0.02 0,0.03 -0.01,0.05 -0.01,0.01 -0.03,0.02 -0.06,0.03 -0.03,0.01 -0.06,0.02 -0.11,0.02 -0.04,0.01 -0.1,0.01 -0.17,0.01 -0.07,0 -0.13,0 -0.17,-0.01 -0.05,0 -0.08,-0.01 -0.11,-0.02 -0.03,-0.01 -0.05,-0.02 -0.06,-0.03 -0.01,-0.02 -0.02,-0.03 -0.02,-0.05l0 -2.52c0,-0.01 0.01,-0.03 0.02,-0.04 0.01,-0.02 0.03,-0.03 0.06,-0.04 0.03,-0.01 0.06,-0.02 0.11,-0.02 0.04,-0.01 0.1,-0.01 0.17,-0.01 0.07,0 0.13,0 0.17,0.01 0.05,0 0.08,0.01 0.11,0.02 0.03,0.01 0.05,0.02 0.06,0.04 0.01,0.01 0.01,0.03 0.01,0.04l0 2.52zm0.06 -3.38c0,0.15 -0.03,0.25 -0.09,0.3 -0.05,0.06 -0.16,0.08 -0.32,0.08 -0.16,0 -0.27,-0.02 -0.32,-0.08 -0.06,-0.05 -0.09,-0.14 -0.09,-0.28 0,-0.14 0.03,-0.24 0.09,-0.3 0.06,-0.05 0.16,-0.08 0.33,-0.08 0.15,0 0.26,0.02 0.32,0.08 0.05,0.05 0.08,0.15 0.08,0.28zm3.14 3.38c0,0.02 -0.01,0.03 -0.02,0.05 -0.01,0.01 -0.03,0.02 -0.06,0.03 -0.02,0.01 -0.06,0.02 -0.11,0.02 -0.04,0.01 -0.1,0.01 -0.17,0.01 -0.07,0 -0.12,0 -0.17,-0.01 -0.05,0 -0.08,-0.01 -0.11,-0.02 -0.02,-0.01 -0.04,-0.02 -0.06,-0.03 -0.01,-0.02 -0.01,-0.03 -0.01,-0.05l0 -1.44c0,-0.12 -0.01,-0.22 -0.03,-0.29 -0.02,-0.07 -0.04,-0.13 -0.08,-0.17 -0.03,-0.05 -0.07,-0.09 -0.13,-0.12 -0.05,-0.03 -0.11,-0.04 -0.18,-0.04 -0.09,0 -0.18,0.03 -0.28,0.1 -0.09,0.06 -0.18,0.16 -0.28,0.28l0 1.68c0,0.02 -0.01,0.03 -0.02,0.05 -0.01,0.01 -0.03,0.02 -0.06,0.03 -0.03,0.01 -0.06,0.02 -0.11,0.02 -0.04,0.01 -0.1,0.01 -0.17,0.01 -0.07,0 -0.13,0 -0.17,-0.01 -0.05,0 -0.08,-0.01 -0.11,-0.02 -0.03,-0.01 -0.05,-0.02 -0.06,-0.03 -0.01,-0.02 -0.01,-0.03 -0.01,-0.05l0 -2.52c0,-0.02 0,-0.04 0.01,-0.05 0.01,-0.01 0.03,-0.03 0.05,-0.04 0.03,0 0.06,-0.01 0.09,-0.02 0.04,0 0.09,0 0.15,0 0.06,0 0.11,0 0.15,0 0.04,0.01 0.07,0.02 0.09,0.02 0.02,0.01 0.04,0.03 0.05,0.04 0.01,0.01 0.01,0.03 0.01,0.05l0 0.29c0.14,-0.15 0.28,-0.26 0.43,-0.34 0.14,-0.07 0.29,-0.11 0.45,-0.11 0.17,0 0.31,0.03 0.43,0.09 0.12,0.05 0.21,0.13 0.28,0.23 0.08,0.09 0.13,0.2 0.16,0.33 0.03,0.13 0.05,0.29 0.05,0.47l0 1.56zm3.04 -2.34c0,0.09 -0.01,0.15 -0.03,0.2 -0.02,0.04 -0.05,0.06 -0.08,0.06l-0.29 0c0.04,0.05 0.07,0.1 0.09,0.15 0.02,0.06 0.02,0.12 0.02,0.18 0,0.15 -0.02,0.28 -0.07,0.39 -0.05,0.12 -0.12,0.21 -0.21,0.29 -0.09,0.08 -0.2,0.14 -0.33,0.18 -0.13,0.04 -0.27,0.06 -0.43,0.06 -0.08,0 -0.16,-0.01 -0.23,-0.03 -0.07,-0.02 -0.13,-0.04 -0.17,-0.07 -0.02,0.02 -0.04,0.05 -0.06,0.09 -0.02,0.03 -0.03,0.07 -0.03,0.11 0,0.05 0.03,0.1 0.07,0.14 0.05,0.03 0.12,0.05 0.21,0.05l0.61 0.03c0.14,0 0.27,0.02 0.38,0.06 0.11,0.03 0.21,0.08 0.28,0.14 0.08,0.07 0.14,0.14 0.18,0.23 0.04,0.09 0.06,0.19 0.06,0.3 0,0.13 -0.03,0.24 -0.08,0.35 -0.06,0.11 -0.14,0.21 -0.25,0.29 -0.11,0.08 -0.25,0.14 -0.41,0.19 -0.16,0.05 -0.36,0.07 -0.58,0.07 -0.21,0 -0.39,-0.02 -0.55,-0.05 -0.15,-0.03 -0.27,-0.08 -0.37,-0.14 -0.09,-0.06 -0.16,-0.13 -0.21,-0.22 -0.04,-0.08 -0.06,-0.17 -0.06,-0.27 0,-0.06 0,-0.12 0.02,-0.18 0.02,-0.06 0.04,-0.11 0.07,-0.16 0.03,-0.05 0.07,-0.1 0.11,-0.15 0.05,-0.05 0.1,-0.09 0.16,-0.14 -0.08,-0.04 -0.14,-0.1 -0.19,-0.17 -0.04,-0.08 -0.07,-0.16 -0.07,-0.25 0,-0.11 0.03,-0.21 0.08,-0.3 0.05,-0.09 0.12,-0.17 0.2,-0.25 -0.07,-0.06 -0.12,-0.14 -0.16,-0.23 -0.04,-0.09 -0.06,-0.21 -0.06,-0.35 0,-0.14 0.03,-0.27 0.08,-0.39 0.05,-0.11 0.12,-0.21 0.22,-0.29 0.09,-0.08 0.2,-0.14 0.33,-0.18 0.12,-0.05 0.26,-0.07 0.42,-0.07 0.08,0 0.15,0.01 0.22,0.02 0.08,0 0.15,0.02 0.21,0.03l0.79 0c0.04,0 0.06,0.03 0.08,0.07 0.02,0.04 0.03,0.11 0.03,0.21zm-0.91 0.59c0,-0.13 -0.04,-0.24 -0.11,-0.31 -0.08,-0.08 -0.18,-0.12 -0.32,-0.12 -0.07,0 -0.13,0.01 -0.18,0.04 -0.06,0.02 -0.1,0.05 -0.14,0.09 -0.03,0.04 -0.06,0.09 -0.07,0.15 -0.02,0.05 -0.03,0.11 -0.03,0.16 0,0.13 0.04,0.23 0.12,0.31 0.07,0.07 0.17,0.11 0.31,0.11 0.07,0 0.13,-0.01 0.18,-0.04 0.06,-0.02 0.1,-0.05 0.13,-0.09 0.04,-0.04 0.07,-0.08 0.08,-0.14 0.02,-0.05 0.03,-0.1 0.03,-0.16zm0.17 2.01c0,-0.09 -0.04,-0.15 -0.1,-0.2 -0.07,-0.04 -0.16,-0.07 -0.28,-0.07l-0.51 -0.01c-0.05,0.03 -0.09,0.07 -0.12,0.1 -0.02,0.03 -0.05,0.06 -0.07,0.09 -0.01,0.03 -0.02,0.06 -0.03,0.09 -0.01,0.03 -0.01,0.06 -0.01,0.09 0,0.09 0.05,0.16 0.14,0.21 0.1,0.05 0.23,0.07 0.4,0.07 0.11,0 0.2,-0.01 0.28,-0.03 0.07,-0.02 0.13,-0.05 0.17,-0.08 0.05,-0.04 0.08,-0.08 0.1,-0.12 0.02,-0.05 0.03,-0.09 0.03,-0.14z"/>
   <path class="fil0" d="M43.45 108.71c0,0.05 -0.01,0.08 -0.02,0.12 -0.02,0.03 -0.04,0.06 -0.06,0.08 -0.03,0.03 -0.06,0.04 -0.09,0.05 -0.04,0.01 -0.07,0.02 -0.11,0.02l-0.31 0c-0.07,0 -0.13,-0.01 -0.18,-0.02 -0.04,-0.01 -0.09,-0.04 -0.13,-0.07 -0.04,-0.04 -0.08,-0.09 -0.11,-0.15 -0.04,-0.05 -0.08,-0.13 -0.13,-0.22l-0.91 -1.71c-0.05,-0.1 -0.1,-0.21 -0.16,-0.33 -0.05,-0.12 -0.1,-0.23 -0.14,-0.34l-0.01 0c0.01,0.13 0.01,0.27 0.02,0.4 0,0.14 0,0.28 0,0.42l0 1.91c0,0.02 0,0.03 -0.01,0.05 -0.01,0.01 -0.03,0.03 -0.06,0.04 -0.02,0.01 -0.05,0.01 -0.1,0.02 -0.04,0.01 -0.1,0.01 -0.16,0.01 -0.07,0 -0.13,0 -0.17,-0.01 -0.04,-0.01 -0.08,-0.01 -0.1,-0.02 -0.03,-0.01 -0.04,-0.03 -0.05,-0.04 -0.01,-0.02 -0.02,-0.03 -0.02,-0.05l0 -3.28c0,-0.09 0.03,-0.16 0.08,-0.2 0.05,-0.04 0.12,-0.07 0.19,-0.07l0.4 0c0.07,0 0.13,0.01 0.18,0.02 0.05,0.01 0.09,0.03 0.13,0.06 0.04,0.03 0.08,0.07 0.11,0.12 0.03,0.05 0.07,0.11 0.1,0.18l0.71 1.34c0.04,0.08 0.09,0.16 0.13,0.24 0.04,0.08 0.08,0.15 0.11,0.23 0.04,0.08 0.08,0.16 0.11,0.23 0.04,0.08 0.07,0.15 0.11,0.23l0 0c-0.01,-0.13 -0.01,-0.27 -0.01,-0.41 -0.01,-0.15 -0.01,-0.28 -0.01,-0.41l0 -1.72c0,-0.02 0.01,-0.03 0.02,-0.05 0.01,-0.01 0.03,-0.03 0.06,-0.04 0.02,-0.01 0.06,-0.02 0.1,-0.02 0.04,-0.01 0.1,-0.01 0.17,-0.01 0.06,0 0.12,0 0.16,0.01 0.04,0 0.08,0.01 0.1,0.02 0.02,0.01 0.04,0.03 0.05,0.04 0.01,0.02 0.01,0.03 0.01,0.05l0 3.28zm3.16 -1.16c0,0.08 -0.02,0.15 -0.06,0.19 -0.03,0.04 -0.09,0.06 -0.16,0.06l-1.53 0c0,0.11 0.01,0.2 0.04,0.29 0.03,0.09 0.07,0.16 0.12,0.22 0.06,0.06 0.13,0.11 0.22,0.14 0.08,0.03 0.19,0.05 0.31,0.05 0.12,0 0.23,-0.01 0.33,-0.03 0.09,-0.02 0.17,-0.04 0.24,-0.06 0.07,-0.02 0.12,-0.04 0.17,-0.06 0.04,-0.02 0.08,-0.02 0.11,-0.02 0.02,0 0.03,0 0.04,0 0.01,0.01 0.02,0.02 0.03,0.04 0.01,0.02 0.01,0.04 0.02,0.07 0,0.03 0,0.07 0,0.12 0,0.04 0,0.08 0,0.1 0,0.03 -0.01,0.06 -0.01,0.08 0,0.02 -0.01,0.04 -0.02,0.05 -0.01,0.01 -0.02,0.03 -0.03,0.04 -0.01,0.01 -0.04,0.03 -0.1,0.06 -0.05,0.02 -0.12,0.04 -0.21,0.06 -0.08,0.02 -0.18,0.04 -0.29,0.06 -0.1,0.02 -0.22,0.03 -0.35,0.03 -0.22,0 -0.42,-0.03 -0.58,-0.09 -0.17,-0.05 -0.31,-0.14 -0.43,-0.26 -0.11,-0.11 -0.19,-0.25 -0.25,-0.43 -0.05,-0.17 -0.08,-0.38 -0.08,-0.61 0,-0.23 0.03,-0.43 0.09,-0.61 0.06,-0.18 0.14,-0.33 0.25,-0.45 0.11,-0.13 0.25,-0.23 0.41,-0.29 0.15,-0.07 0.33,-0.1 0.53,-0.1 0.21,0 0.39,0.03 0.54,0.09 0.15,0.07 0.28,0.15 0.37,0.26 0.1,0.11 0.17,0.24 0.21,0.39 0.05,0.15 0.07,0.32 0.07,0.49l0 0.12zm-0.69 -0.21c0.01,-0.2 -0.03,-0.35 -0.12,-0.47 -0.08,-0.11 -0.21,-0.17 -0.39,-0.17 -0.09,0 -0.17,0.02 -0.24,0.05 -0.07,0.04 -0.12,0.08 -0.17,0.14 -0.04,0.06 -0.07,0.13 -0.1,0.2 -0.02,0.08 -0.03,0.17 -0.04,0.25l1.06 0zm3.68 0.21c0,0.08 -0.02,0.15 -0.06,0.19 -0.03,0.04 -0.09,0.06 -0.16,0.06l-1.53 0c0,0.11 0.01,0.2 0.04,0.29 0.03,0.09 0.07,0.16 0.12,0.22 0.06,0.06 0.13,0.11 0.22,0.14 0.08,0.03 0.19,0.05 0.31,0.05 0.12,0 0.23,-0.01 0.33,-0.03 0.09,-0.02 0.17,-0.04 0.24,-0.06 0.07,-0.02 0.13,-0.04 0.17,-0.06 0.05,-0.02 0.08,-0.02 0.11,-0.02 0.02,0 0.03,0 0.04,0 0.01,0.01 0.02,0.02 0.03,0.04 0.01,0.02 0.01,0.04 0.02,0.07 0,0.03 0,0.07 0,0.12 0,0.04 0,0.08 0,0.1 0,0.03 -0.01,0.06 -0.01,0.08 -0.01,0.02 -0.01,0.04 -0.02,0.05 -0.01,0.01 -0.01,0.03 -0.03,0.04 -0.01,0.01 -0.04,0.03 -0.1,0.06 -0.05,0.02 -0.12,0.04 -0.21,0.06 -0.08,0.02 -0.18,0.04 -0.29,0.06 -0.1,0.02 -0.22,0.03 -0.35,0.03 -0.22,0 -0.41,-0.03 -0.58,-0.09 -0.17,-0.05 -0.31,-0.14 -0.42,-0.26 -0.12,-0.11 -0.2,-0.25 -0.26,-0.43 -0.05,-0.17 -0.08,-0.38 -0.08,-0.61 0,-0.23 0.03,-0.43 0.09,-0.61 0.06,-0.18 0.14,-0.33 0.25,-0.45 0.11,-0.13 0.25,-0.23 0.41,-0.29 0.16,-0.07 0.34,-0.1 0.53,-0.1 0.21,0 0.39,0.03 0.54,0.09 0.15,0.07 0.28,0.15 0.37,0.26 0.1,0.11 0.17,0.24 0.21,0.39 0.05,0.15 0.07,0.32 0.07,0.49l0 0.12zm-0.69 -0.21c0.01,-0.2 -0.03,-0.35 -0.12,-0.47 -0.08,-0.11 -0.21,-0.17 -0.39,-0.17 -0.09,0 -0.17,0.02 -0.24,0.05 -0.07,0.04 -0.12,0.08 -0.17,0.14 -0.04,0.06 -0.07,0.13 -0.1,0.2 -0.02,0.08 -0.03,0.17 -0.04,0.25l1.06 0zm3.75 1.54c0,0.02 -0.01,0.03 -0.02,0.05 -0.01,0.01 -0.02,0.02 -0.05,0.03 -0.02,0.01 -0.05,0.02 -0.09,0.02 -0.04,0.01 -0.08,0.01 -0.14,0.01 -0.06,0 -0.11,0 -0.15,-0.01 -0.03,0 -0.06,-0.01 -0.09,-0.02 -0.02,-0.01 -0.04,-0.02 -0.05,-0.03 -0.01,-0.02 -0.02,-0.03 -0.02,-0.05l0 -0.28c-0.12,0.14 -0.26,0.24 -0.4,0.32 -0.14,0.08 -0.3,0.12 -0.48,0.12 -0.19,0 -0.35,-0.04 -0.48,-0.12 -0.13,-0.07 -0.24,-0.17 -0.33,-0.3 -0.08,-0.12 -0.14,-0.27 -0.18,-0.44 -0.03,-0.17 -0.05,-0.34 -0.05,-0.53 0,-0.22 0.02,-0.42 0.07,-0.6 0.05,-0.18 0.12,-0.33 0.21,-0.46 0.09,-0.12 0.21,-0.22 0.34,-0.29 0.14,-0.07 0.3,-0.1 0.48,-0.1 0.14,0 0.27,0.03 0.38,0.09 0.12,0.05 0.23,0.14 0.34,0.25l0 -1.36c0,-0.02 0.01,-0.04 0.02,-0.05 0.01,-0.02 0.03,-0.03 0.05,-0.04 0.03,-0.01 0.07,-0.02 0.11,-0.02 0.05,-0.01 0.1,-0.01 0.17,-0.01 0.07,0 0.13,0 0.18,0.01 0.04,0 0.08,0.01 0.1,0.02 0.03,0.01 0.05,0.02 0.06,0.04 0.01,0.01 0.02,0.03 0.02,0.05l0 3.7zm-0.71 -1.68c-0.1,-0.13 -0.2,-0.23 -0.29,-0.3 -0.09,-0.07 -0.19,-0.1 -0.29,-0.1 -0.09,0 -0.17,0.02 -0.24,0.07 -0.07,0.05 -0.12,0.11 -0.16,0.18 -0.04,0.08 -0.07,0.17 -0.09,0.26 -0.02,0.1 -0.03,0.19 -0.03,0.29 0,0.11 0.01,0.21 0.02,0.31 0.02,0.1 0.05,0.19 0.09,0.27 0.04,0.08 0.09,0.14 0.15,0.19 0.06,0.04 0.15,0.07 0.24,0.07 0.05,0 0.1,-0.01 0.15,-0.03 0.04,-0.01 0.09,-0.03 0.14,-0.06 0.04,-0.04 0.09,-0.08 0.14,-0.13 0.06,-0.05 0.11,-0.11 0.17,-0.19l0 -0.83zm6.13 -0.09c0,0.3 -0.04,0.57 -0.11,0.81 -0.08,0.24 -0.19,0.44 -0.34,0.6 -0.15,0.17 -0.33,0.3 -0.55,0.39 -0.22,0.08 -0.47,0.13 -0.76,0.13 -0.28,0 -0.53,-0.04 -0.74,-0.12 -0.21,-0.07 -0.39,-0.18 -0.53,-0.34 -0.14,-0.15 -0.25,-0.34 -0.32,-0.58 -0.07,-0.23 -0.1,-0.51 -0.1,-0.83 0,-0.3 0.03,-0.56 0.11,-0.8 0.07,-0.23 0.18,-0.43 0.33,-0.6 0.15,-0.16 0.34,-0.29 0.55,-0.38 0.22,-0.09 0.48,-0.13 0.77,-0.13 0.27,0 0.52,0.04 0.73,0.11 0.21,0.07 0.39,0.18 0.53,0.34 0.14,0.15 0.25,0.34 0.32,0.57 0.07,0.24 0.11,0.51 0.11,0.83zm-0.78 0.03c0,-0.19 -0.02,-0.36 -0.05,-0.52 -0.03,-0.16 -0.08,-0.29 -0.15,-0.4 -0.07,-0.12 -0.17,-0.2 -0.29,-0.26 -0.12,-0.06 -0.27,-0.09 -0.45,-0.09 -0.18,0 -0.33,0.03 -0.45,0.1 -0.13,0.07 -0.23,0.16 -0.3,0.27 -0.08,0.12 -0.13,0.25 -0.16,0.41 -0.03,0.15 -0.05,0.31 -0.05,0.48 0,0.2 0.02,0.38 0.05,0.54 0.03,0.16 0.08,0.29 0.15,0.41 0.07,0.11 0.17,0.2 0.29,0.25 0.12,0.06 0.27,0.09 0.45,0.09 0.18,0 0.34,-0.03 0.46,-0.1 0.12,-0.07 0.22,-0.16 0.29,-0.27 0.08,-0.12 0.13,-0.26 0.16,-0.41 0.03,-0.16 0.05,-0.32 0.05,-0.5zm3.83 1.74c0,0.02 0,0.03 -0.01,0.05 -0.01,0.01 -0.03,0.02 -0.05,0.03 -0.03,0.01 -0.06,0.02 -0.1,0.02 -0.03,0.01 -0.08,0.01 -0.14,0.01 -0.06,0 -0.11,0 -0.15,-0.01 -0.04,0 -0.07,-0.01 -0.09,-0.02 -0.03,-0.01 -0.04,-0.02 -0.05,-0.03 -0.01,-0.02 -0.02,-0.03 -0.02,-0.05l0 -0.29c-0.13,0.15 -0.28,0.26 -0.42,0.33 -0.14,0.08 -0.29,0.12 -0.45,0.12 -0.17,0 -0.32,-0.03 -0.43,-0.09 -0.12,-0.05 -0.22,-0.13 -0.29,-0.23 -0.07,-0.1 -0.12,-0.21 -0.15,-0.34 -0.04,-0.13 -0.05,-0.29 -0.05,-0.48l0 -1.54c0,-0.02 0,-0.04 0.01,-0.05 0.01,-0.01 0.03,-0.03 0.06,-0.04 0.03,0 0.07,-0.01 0.11,-0.02 0.05,0 0.1,0 0.17,0 0.07,0 0.13,0 0.18,0 0.04,0.01 0.08,0.02 0.1,0.02 0.03,0.01 0.05,0.03 0.06,0.04 0.01,0.01 0.02,0.03 0.02,0.05l0 1.42c0,0.13 0.01,0.23 0.02,0.3 0.02,0.07 0.05,0.13 0.08,0.18 0.04,0.05 0.08,0.09 0.13,0.12 0.06,0.02 0.12,0.04 0.19,0.04 0.09,0 0.18,-0.03 0.28,-0.1 0.09,-0.07 0.18,-0.16 0.29,-0.29l0 -1.67c0,-0.02 0,-0.04 0.01,-0.05 0.01,-0.01 0.03,-0.03 0.06,-0.04 0.03,0 0.06,-0.01 0.11,-0.02 0.04,0 0.1,0 0.17,0 0.07,0 0.13,0 0.17,0 0.04,0.01 0.08,0.02 0.11,0.02 0.02,0.01 0.04,0.03 0.05,0.04 0.01,0.01 0.02,0.03 0.02,0.05l0 2.52zm2.41 -2.29c0,0.07 0,0.13 0,0.17 0,0.04 -0.01,0.08 -0.02,0.1 0,0.03 -0.02,0.04 -0.03,0.05 -0.01,0.01 -0.03,0.02 -0.04,0.02 -0.02,0 -0.04,-0.01 -0.06,-0.01 -0.01,-0.01 -0.04,-0.02 -0.06,-0.03 -0.02,0 -0.05,-0.01 -0.08,-0.02 -0.03,0 -0.06,-0.01 -0.09,-0.01 -0.04,0 -0.08,0.01 -0.12,0.03 -0.04,0.02 -0.08,0.04 -0.12,0.07 -0.04,0.04 -0.09,0.08 -0.13,0.14 -0.05,0.05 -0.1,0.12 -0.15,0.21l0 1.57c0,0.02 -0.01,0.03 -0.02,0.05 -0.01,0.01 -0.03,0.02 -0.06,0.03 -0.02,0.01 -0.06,0.02 -0.1,0.02 -0.05,0.01 -0.11,0.01 -0.18,0.01 -0.07,0 -0.12,0 -0.17,-0.01 -0.04,0 -0.08,-0.01 -0.11,-0.02 -0.02,-0.01 -0.04,-0.02 -0.05,-0.03 -0.02,-0.02 -0.02,-0.03 -0.02,-0.05l0 -2.52c0,-0.02 0,-0.04 0.01,-0.05 0.01,-0.01 0.03,-0.03 0.05,-0.04 0.03,0 0.06,-0.01 0.1,-0.02 0.04,0 0.08,0 0.14,0 0.06,0 0.11,0 0.15,0 0.04,0.01 0.07,0.02 0.09,0.02 0.02,0.01 0.04,0.03 0.05,0.04 0.01,0.01 0.01,0.03 0.01,0.05l0 0.31c0.07,-0.09 0.13,-0.17 0.19,-0.23 0.06,-0.06 0.12,-0.11 0.17,-0.14 0.05,-0.04 0.1,-0.07 0.16,-0.08 0.05,-0.01 0.1,-0.02 0.15,-0.02 0.03,0 0.05,0 0.08,0 0.03,0.01 0.06,0.01 0.09,0.02 0.03,0.01 0.06,0.01 0.08,0.02 0.02,0.01 0.04,0.02 0.05,0.03 0.01,0.01 0.02,0.02 0.02,0.03 0.01,0.01 0.01,0.03 0.01,0.05 0.01,0.01 0.01,0.05 0.01,0.08 0,0.04 0,0.1 0,0.16zm4.04 1.29c0,0.19 -0.04,0.36 -0.11,0.5 -0.07,0.15 -0.17,0.27 -0.29,0.36 -0.13,0.1 -0.27,0.17 -0.43,0.22 -0.17,0.05 -0.34,0.08 -0.53,0.08 -0.12,0 -0.24,-0.01 -0.35,-0.04 -0.11,-0.02 -0.2,-0.04 -0.28,-0.07 -0.09,-0.03 -0.16,-0.06 -0.21,-0.09 -0.06,-0.04 -0.1,-0.07 -0.12,-0.09 -0.03,-0.03 -0.04,-0.06 -0.05,-0.11 -0.01,-0.04 -0.02,-0.11 -0.02,-0.2 0,-0.05 0,-0.1 0.01,-0.14 0,-0.04 0.01,-0.07 0.01,-0.1 0.01,-0.02 0.02,-0.04 0.04,-0.05 0.01,-0.01 0.03,-0.01 0.05,-0.01 0.02,0 0.06,0.01 0.11,0.04 0.05,0.03 0.11,0.07 0.18,0.11 0.08,0.03 0.17,0.07 0.27,0.1 0.11,0.03 0.23,0.05 0.37,0.05 0.09,0 0.17,-0.02 0.24,-0.04 0.07,-0.02 0.13,-0.05 0.18,-0.09 0.05,-0.04 0.09,-0.09 0.12,-0.14 0.02,-0.06 0.04,-0.13 0.04,-0.2 0,-0.08 -0.03,-0.15 -0.07,-0.21 -0.05,-0.06 -0.11,-0.11 -0.18,-0.16 -0.07,-0.04 -0.15,-0.09 -0.25,-0.13 -0.09,-0.04 -0.18,-0.08 -0.28,-0.13 -0.1,-0.04 -0.19,-0.09 -0.28,-0.15 -0.1,-0.06 -0.18,-0.12 -0.25,-0.2 -0.08,-0.08 -0.13,-0.18 -0.18,-0.29 -0.04,-0.11 -0.07,-0.24 -0.07,-0.39 0,-0.17 0.04,-0.33 0.1,-0.46 0.06,-0.13 0.15,-0.24 0.26,-0.33 0.11,-0.09 0.24,-0.15 0.39,-0.2 0.15,-0.04 0.31,-0.06 0.48,-0.06 0.08,0 0.17,0.01 0.26,0.02 0.08,0.01 0.16,0.03 0.24,0.05 0.07,0.03 0.14,0.05 0.2,0.08 0.06,0.03 0.09,0.05 0.11,0.07 0.02,0.02 0.03,0.03 0.04,0.05 0.01,0.01 0.01,0.03 0.02,0.05 0,0.02 0.01,0.05 0.01,0.08 0,0.03 0,0.08 0,0.12 0,0.06 0,0.1 0,0.14 -0.01,0.04 -0.01,0.07 -0.02,0.09 0,0.03 -0.01,0.05 -0.02,0.06 -0.02,0.01 -0.03,0.01 -0.06,0.01 -0.02,0 -0.05,-0.01 -0.09,-0.03 -0.05,-0.03 -0.1,-0.06 -0.17,-0.09 -0.07,-0.03 -0.14,-0.06 -0.23,-0.08 -0.09,-0.03 -0.18,-0.04 -0.28,-0.04 -0.08,0 -0.16,0.01 -0.22,0.03 -0.06,0.02 -0.11,0.04 -0.15,0.08 -0.04,0.03 -0.07,0.07 -0.09,0.12 -0.02,0.05 -0.03,0.1 -0.03,0.16 0,0.08 0.03,0.15 0.07,0.21 0.05,0.06 0.1,0.11 0.18,0.16 0.07,0.04 0.16,0.09 0.25,0.13 0.09,0.04 0.19,0.08 0.29,0.12 0.1,0.05 0.19,0.1 0.29,0.16 0.09,0.06 0.17,0.12 0.25,0.2 0.07,0.08 0.13,0.18 0.18,0.29 0.04,0.1 0.07,0.23 0.07,0.38zm3.14 -0.29c0,0.22 -0.03,0.41 -0.08,0.59 -0.06,0.18 -0.14,0.33 -0.26,0.46 -0.11,0.12 -0.26,0.22 -0.43,0.29 -0.17,0.07 -0.38,0.11 -0.61,0.11 -0.22,0 -0.42,-0.03 -0.58,-0.1 -0.17,-0.06 -0.3,-0.15 -0.41,-0.27 -0.11,-0.12 -0.19,-0.26 -0.25,-0.43 -0.05,-0.18 -0.07,-0.37 -0.07,-0.6 0,-0.21 0.02,-0.41 0.08,-0.58 0.06,-0.18 0.14,-0.33 0.26,-0.46 0.11,-0.13 0.26,-0.22 0.43,-0.3 0.17,-0.07 0.37,-0.1 0.6,-0.1 0.23,0 0.43,0.03 0.59,0.09 0.17,0.06 0.3,0.15 0.41,0.27 0.11,0.12 0.19,0.27 0.24,0.44 0.06,0.17 0.08,0.37 0.08,0.59zm-0.73 0.03c0,-0.12 -0.01,-0.24 -0.03,-0.34 -0.02,-0.11 -0.05,-0.2 -0.1,-0.27 -0.04,-0.08 -0.11,-0.14 -0.18,-0.18 -0.08,-0.05 -0.18,-0.07 -0.3,-0.07 -0.11,0 -0.2,0.02 -0.28,0.06 -0.08,0.04 -0.14,0.09 -0.19,0.17 -0.05,0.07 -0.09,0.16 -0.12,0.27 -0.02,0.1 -0.04,0.22 -0.04,0.35 0,0.13 0.01,0.24 0.03,0.35 0.02,0.1 0.06,0.19 0.1,0.27 0.05,0.07 0.11,0.13 0.19,0.18 0.08,0.04 0.18,0.06 0.3,0.06 0.11,0 0.2,-0.02 0.28,-0.06 0.08,-0.04 0.14,-0.09 0.19,-0.17 0.05,-0.07 0.09,-0.16 0.12,-0.26 0.02,-0.11 0.03,-0.23 0.03,-0.36zm2.09 1.26c0,0.02 -0.01,0.03 -0.02,0.05 -0.01,0.01 -0.03,0.02 -0.06,0.03 -0.02,0.01 -0.06,0.02 -0.1,0.02 -0.05,0.01 -0.11,0.01 -0.18,0.01 -0.07,0 -0.12,0 -0.17,-0.01 -0.04,0 -0.08,-0.01 -0.11,-0.02 -0.02,-0.01 -0.04,-0.02 -0.05,-0.03 -0.02,-0.02 -0.02,-0.03 -0.02,-0.05l0 -3.71c0,-0.02 0,-0.04 0.02,-0.05 0.01,-0.02 0.03,-0.03 0.05,-0.04 0.03,-0.01 0.07,-0.02 0.11,-0.03 0.05,0 0.1,0 0.17,0 0.07,0 0.13,0 0.18,0 0.04,0.01 0.08,0.02 0.1,0.03 0.03,0.01 0.05,0.02 0.06,0.04 0.01,0.01 0.02,0.03 0.02,0.05l0 3.71zm3.17 0c0,0.02 0,0.03 -0.01,0.05 -0.01,0.01 -0.02,0.02 -0.05,0.03 -0.02,0.01 -0.05,0.02 -0.09,0.02 -0.04,0.01 -0.09,0.01 -0.15,0.01 -0.06,0 -0.11,0 -0.15,-0.01 -0.04,0 -0.07,-0.01 -0.09,-0.02 -0.02,-0.01 -0.04,-0.02 -0.05,-0.03 -0.01,-0.02 -0.01,-0.03 -0.01,-0.05l0 -0.29c-0.14,0.15 -0.28,0.26 -0.43,0.33 -0.14,0.08 -0.29,0.12 -0.44,0.12 -0.18,0 -0.32,-0.03 -0.44,-0.09 -0.12,-0.05 -0.21,-0.13 -0.28,-0.23 -0.08,-0.1 -0.13,-0.21 -0.16,-0.34 -0.03,-0.13 -0.05,-0.29 -0.05,-0.48l0 -1.54c0,-0.02 0.01,-0.04 0.02,-0.05 0.01,-0.01 0.03,-0.03 0.06,-0.04 0.02,0 0.06,-0.01 0.11,-0.02 0.04,0 0.1,0 0.17,0 0.07,0 0.12,0 0.17,0 0.05,0.01 0.08,0.02 0.11,0.02 0.03,0.01 0.05,0.03 0.06,0.04 0.01,0.01 0.01,0.03 0.01,0.05l0 1.42c0,0.13 0.01,0.23 0.03,0.3 0.02,0.07 0.04,0.13 0.08,0.18 0.03,0.05 0.08,0.09 0.13,0.12 0.05,0.02 0.11,0.04 0.19,0.04 0.09,0 0.18,-0.03 0.27,-0.1 0.09,-0.07 0.19,-0.16 0.29,-0.29l0 -1.67c0,-0.02 0.01,-0.04 0.02,-0.05 0.01,-0.01 0.02,-0.03 0.05,-0.04 0.03,0 0.07,-0.01 0.11,-0.02 0.05,0 0.1,0 0.17,0 0.07,0 0.13,0 0.18,0 0.04,0.01 0.08,0.02 0.1,0.02 0.03,0.01 0.05,0.03 0.06,0.04 0.01,0.01 0.01,0.03 0.01,0.05l0 2.52zm2.29 -0.25c0,0.08 0,0.15 -0.01,0.19 -0.01,0.04 -0.03,0.08 -0.04,0.09 -0.02,0.02 -0.05,0.04 -0.08,0.05 -0.03,0.01 -0.07,0.03 -0.12,0.04 -0.04,0.01 -0.09,0.02 -0.14,0.02 -0.05,0.01 -0.1,0.01 -0.16,0.01 -0.14,0 -0.26,-0.02 -0.36,-0.05 -0.11,-0.04 -0.19,-0.09 -0.26,-0.17 -0.07,-0.07 -0.12,-0.17 -0.15,-0.28 -0.03,-0.11 -0.05,-0.25 -0.05,-0.4l0 -1.29 -0.3 0c-0.04,0 -0.06,-0.02 -0.08,-0.06 -0.02,-0.05 -0.03,-0.12 -0.03,-0.23 0,-0.05 0,-0.1 0,-0.14 0.01,-0.03 0.02,-0.06 0.03,-0.09 0.01,-0.02 0.02,-0.03 0.03,-0.04 0.02,-0.01 0.03,-0.02 0.05,-0.02l0.3 0 0 -0.56c0,-0.02 0.01,-0.03 0.02,-0.05 0.01,-0.01 0.03,-0.03 0.06,-0.04 0.02,-0.01 0.06,-0.02 0.11,-0.02 0.04,0 0.1,-0.01 0.17,-0.01 0.07,0 0.12,0.01 0.17,0.01 0.05,0 0.08,0.01 0.11,0.02 0.03,0.01 0.05,0.03 0.06,0.04 0.01,0.02 0.01,0.03 0.01,0.05l0 0.56 0.55 0c0.02,0 0.03,0.01 0.05,0.02 0.01,0.01 0.02,0.02 0.03,0.04 0.01,0.03 0.02,0.06 0.03,0.09 0,0.04 0,0.09 0,0.14 0,0.11 -0.01,0.18 -0.03,0.23 -0.01,0.04 -0.04,0.06 -0.08,0.06l-0.55 0 0 1.18c0,0.14 0.02,0.24 0.07,0.31 0.04,0.07 0.12,0.11 0.23,0.11 0.04,0 0.07,-0.01 0.1,-0.01 0.03,-0.01 0.06,-0.02 0.08,-0.03 0.02,-0.01 0.04,-0.01 0.06,-0.02 0.02,-0.01 0.03,-0.01 0.04,-0.01 0.02,0 0.03,0 0.04,0.01 0.01,0.01 0.01,0.02 0.02,0.04 0,0.02 0.01,0.05 0.02,0.08 0,0.03 0,0.08 0,0.13zm1.31 0.25c0,0.02 -0.01,0.03 -0.02,0.05 -0.01,0.01 -0.03,0.02 -0.06,0.03 -0.03,0.01 -0.06,0.02 -0.11,0.02 -0.04,0.01 -0.1,0.01 -0.17,0.01 -0.07,0 -0.13,0 -0.17,-0.01 -0.04,0 -0.08,-0.01 -0.11,-0.02 -0.03,-0.01 -0.04,-0.02 -0.06,-0.03 -0.01,-0.02 -0.01,-0.03 -0.01,-0.05l0 -2.52c0,-0.01 0,-0.03 0.01,-0.04 0.02,-0.02 0.03,-0.03 0.06,-0.04 0.03,-0.01 0.07,-0.02 0.11,-0.02 0.04,-0.01 0.1,-0.01 0.17,-0.01 0.07,0 0.13,0 0.17,0.01 0.05,0 0.08,0.01 0.11,0.02 0.03,0.01 0.05,0.02 0.06,0.04 0.01,0.01 0.02,0.03 0.02,0.04l0 2.52zm0.06 -3.38c0,0.15 -0.03,0.25 -0.09,0.3 -0.06,0.06 -0.17,0.08 -0.33,0.08 -0.16,0 -0.27,-0.02 -0.32,-0.08 -0.06,-0.05 -0.09,-0.14 -0.09,-0.28 0,-0.14 0.03,-0.24 0.09,-0.3 0.06,-0.05 0.17,-0.08 0.33,-0.08 0.16,0 0.26,0.02 0.32,0.08 0.06,0.05 0.09,0.15 0.09,0.28z"/>
   <path class="fil0" d="M82.18 107.59c0,0.22 -0.03,0.41 -0.09,0.59 -0.05,0.18 -0.14,0.33 -0.25,0.46 -0.12,0.12 -0.26,0.22 -0.43,0.29 -0.18,0.07 -0.38,0.11 -0.61,0.11 -0.22,0 -0.42,-0.03 -0.58,-0.1 -0.17,-0.06 -0.31,-0.15 -0.42,-0.27 -0.1,-0.12 -0.19,-0.26 -0.24,-0.43 -0.05,-0.18 -0.08,-0.37 -0.08,-0.6 0,-0.21 0.03,-0.41 0.09,-0.58 0.06,-0.18 0.14,-0.33 0.26,-0.46 0.11,-0.13 0.26,-0.22 0.43,-0.3 0.17,-0.07 0.37,-0.1 0.6,-0.1 0.23,0 0.42,0.03 0.59,0.09 0.16,0.06 0.3,0.15 0.41,0.27 0.11,0.12 0.19,0.27 0.24,0.44 0.05,0.17 0.08,0.37 0.08,0.59zm-0.73 0.03c0,-0.12 -0.01,-0.24 -0.03,-0.34 -0.02,-0.11 -0.05,-0.2 -0.1,-0.27 -0.05,-0.08 -0.11,-0.14 -0.19,-0.18 -0.08,-0.05 -0.17,-0.07 -0.29,-0.07 -0.11,0 -0.2,0.02 -0.28,0.06 -0.08,0.04 -0.15,0.09 -0.2,0.17 -0.05,0.07 -0.09,0.16 -0.11,0.27 -0.03,0.1 -0.04,0.22 -0.04,0.35 0,0.13 0.01,0.24 0.03,0.35 0.02,0.1 0.06,0.19 0.1,0.27 0.05,0.07 0.11,0.13 0.19,0.18 0.08,0.04 0.18,0.06 0.29,0.06 0.11,0 0.21,-0.02 0.29,-0.06 0.08,-0.04 0.14,-0.09 0.19,-0.17 0.05,-0.07 0.09,-0.16 0.12,-0.26 0.02,-0.11 0.03,-0.23 0.03,-0.36zm3.78 1.26c0,0.02 -0.01,0.03 -0.02,0.05 -0.01,0.01 -0.03,0.02 -0.06,0.03 -0.02,0.01 -0.06,0.02 -0.1,0.02 -0.05,0.01 -0.11,0.01 -0.17,0.01 -0.07,0 -0.13,0 -0.18,-0.01 -0.04,0 -0.08,-0.01 -0.11,-0.02 -0.02,-0.01 -0.04,-0.02 -0.05,-0.03 -0.02,-0.02 -0.02,-0.03 -0.02,-0.05l0 -1.44c0,-0.12 -0.01,-0.22 -0.03,-0.29 -0.02,-0.07 -0.04,-0.13 -0.08,-0.17 -0.03,-0.05 -0.07,-0.09 -0.13,-0.12 -0.05,-0.03 -0.11,-0.04 -0.18,-0.04 -0.09,0 -0.18,0.03 -0.28,0.1 -0.09,0.06 -0.18,0.16 -0.28,0.28l0 1.68c0,0.02 -0.01,0.03 -0.02,0.05 -0.01,0.01 -0.03,0.02 -0.06,0.03 -0.03,0.01 -0.06,0.02 -0.11,0.02 -0.04,0.01 -0.1,0.01 -0.17,0.01 -0.07,0 -0.13,0 -0.17,-0.01 -0.04,0 -0.08,-0.01 -0.11,-0.02 -0.03,-0.01 -0.05,-0.02 -0.06,-0.03 -0.01,-0.02 -0.01,-0.03 -0.01,-0.05l0 -2.52c0,-0.02 0,-0.04 0.01,-0.05 0.01,-0.01 0.03,-0.03 0.05,-0.04 0.03,0 0.06,-0.01 0.1,-0.02 0.03,0 0.08,0 0.14,0 0.06,0 0.11,0 0.15,0 0.04,0.01 0.07,0.02 0.09,0.02 0.02,0.01 0.04,0.03 0.05,0.04 0.01,0.01 0.01,0.03 0.01,0.05l0 0.29c0.14,-0.15 0.28,-0.26 0.43,-0.34 0.14,-0.07 0.29,-0.11 0.45,-0.11 0.17,0 0.31,0.03 0.43,0.09 0.12,0.05 0.21,0.13 0.29,0.23 0.07,0.09 0.12,0.2 0.15,0.33 0.03,0.13 0.05,0.29 0.05,0.47l0 1.56z"/>
  </g>
  <path class="fil1" d="M44.99 16.46c14.55,0 26.35,11.8 26.35,26.35 0,14.55 -11.8,26.34 -26.35,26.34 -14.55,0 -26.34,-11.79 -26.34,-26.34 0,-14.55 11.79,-26.35 26.34,-26.35z"/>
  <path class="fil2" d="M44.99 12.87c16.54,0 29.94,13.4 29.94,29.94 0,16.53 -13.4,29.94 -29.94,29.94 -16.53,0 -29.93,-13.41 -29.93,-29.94 0,-16.54 13.4,-29.94 29.93,-29.94zm24.19 40.41c-6.36,-3.94 -5.35,-12.33 -0.85,-20.44 -13.63,2.37 -14.73,17.86 -24.59,26.03 -5.68,4.88 -11.08,7.79 -16.26,3.62 -5.42,-4.83 -8.83,-11.85 -8.83,-19.68 0,-14.55 11.79,-26.35 26.34,-26.35 14.55,0 26.35,11.8 26.35,26.35 0,3.72 -0.77,7.26 -2.16,10.47z"/>
  <path class="fil3" d="M59.21 34.29c-1.56,1.42 -2.89,3.1 -4.11,4.91l2.66 -21.68c1.53,-2.89 3.05,-5.78 4.58,-8.68 -1.04,8.49 -2.08,16.97 -3.13,25.45zm-16.43 9.86l11.04 -2.96c-0.76,1.23 -1.5,2.51 -2.24,3.79l-8.01 2.14 1.84 6.84c-0.74,0.8 -1.53,1.56 -2.38,2.27 -0.05,0.04 -0.11,0.09 -0.17,0.14l-3.06 -11.43 2.98 -0.79z"/>
  <path class="fil4" d="M28.33 14.01l2.81 -0.75 0.16 -0.04 0.94 3.51 0.82 3.04 5.95 22.2 0.79 2.97 -2.97 0.8 -8.48 2.27 -3.63 0.98 -2 -2.66 -12.19 -16.17 0 0 5.01 0.86 10.82 14.34 9.67 -2.59 -5.95 -22.2 -0.59 -2.21 -0.98 -3.65 -0.18 -0.7zm-20.52 12.54l0 0 5.57 1.6 0 0 -5.57 -1.6z"/>
  <path class="fil5" d="M51.25 41.88l-8.47 2.27 -2.98 0.79 -0.79 -2.97 -5.95 -22.2 -0.82 -3.04 -0.94 -3.51 2.98 -0.8 0.81 3.05 0.94 3.5 5.95 22.2 9.68 -2.59 2.19 -17.83 3.9 -3.23 0.01 0 -2.47 20.09 -0.19 1.59c-0.04,0.06 -0.08,0.11 -0.12,0.17l0 0c-0.1,0.15 -0.19,0.29 -0.28,0.43l-0.01 0.01 -0.03 0.05 -0.02 0.03 -0.02 0.04 -0.04 0.05 -0.01 0.01 -0.04 0.06 -0.03 0.05 -0.01 0.01 -0.02 0.05 -0.02 0.02 0 0 -0.08 0.12 -0.02 0.03 -0.02 0.04 0 0c-0.17,0.27 -0.34,0.54 -0.51,0.82l-2.57 0.69zm3.04 -24.69l0 0 0.95 -0.99 -0.95 0.99z"/>
  <path class="fil6" d="M39.8 44.94l3.06 11.43c-0.88,0.75 -1.75,1.46 -2.62,2.09l-2.61 -9.74 -10.91 2.92 -3.64 0.97 -20.85 -27.66 8.3 5.21 14.19 18.83 12.11 -3.25 2.97 -0.8z"/>
  <polygon class="fil7" points="27.76,0 37.42,11.58 25.19,14.86 "/>
  <polygon class="fil8" points="29.44,6.28 37.42,11.58 25.19,14.86 "/>
  <polygon class="fil9" points="17.06,29.21 15.54,31.02 10.53,30.16 2.23,24.95 "/>
  <polygon class="fil10" points="51.63,19.95 53.85,20.75 57.76,17.51 62.34,8.84 "/>
  <path class="fil0" d="M14.69 77.85c-0.79,1.31 -1.37,2.51 -1.72,3.62 -0.23,-0.69 -0.43,-1.18 -0.6,-1.48 -0.45,-0.77 -1.22,-1.15 -2.34,-1.15 -0.25,0 -0.67,0.03 -1.27,0.08l0 12.56 1.65 1.35 -5.63 0 1.65 -1.35 0 -12.56c-0.6,-0.05 -1.03,-0.08 -1.28,-0.08 -1.11,0 -1.89,0.38 -2.33,1.15 -0.18,0.3 -0.38,0.79 -0.6,1.48 -0.36,-1.11 -0.94,-2.32 -1.73,-3.62l14.2 0zm0.28 1.5c0.57,-0.37 1.18,-0.69 1.83,-0.95 1.55,-0.6 3.09,-0.91 4.64,-0.91 0.8,0 1.58,0.12 2.33,0.35 0.74,0.23 1.38,0.54 1.89,0.95 0.91,0.71 1.37,1.6 1.37,2.65 0,0.91 -0.35,1.72 -1.05,2.42 -0.69,0.7 -1.65,1.21 -2.86,1.52 0.51,1.42 1.24,2.85 2.2,4.28 0.95,1.43 1.86,2.48 2.75,3.17 -1.43,0.45 -2.68,1.1 -3.75,1.94 -0.28,-1.74 -0.59,-3.23 -0.93,-4.45 -0.35,-1.23 -0.88,-2.75 -1.6,-4.56 -0.35,0.1 -0.83,0.21 -1.44,0.32 -0.61,0.11 -1.08,0.18 -1.4,0.21l0 5.19 1.64 1.35 -5.62 0 1.64 -1.35 0 -4.87c-0.82,0.07 -1.46,0.19 -1.92,0.36 0.25,-0.45 0.42,-0.91 0.51,-1.38 0.24,0.02 0.43,0.03 0.58,0.03 0.21,0 0.49,-0.01 0.83,-0.06l0 -5.3 -1.64 -0.91zm3.98 -0.08l0 6.13c1.43,-0.15 2.62,-0.48 3.58,-0.98 0.72,-0.37 1.25,-0.86 1.57,-1.46 0.26,-0.48 0.39,-0.97 0.39,-1.49 0,-0.96 -0.38,-1.73 -1.13,-2.31 -0.62,-0.46 -1.35,-0.7 -2.19,-0.7 -0.85,0 -1.59,0.27 -2.22,0.81zm9.42 -1.42l5.62 0 -1.65 1.36 0 12.27 1.65 1.35 -5.62 0 1.64 -1.35 0 -12.27 -1.64 -1.36zm6.8 0l5.05 0c2.24,0 3.91,0.43 4.99,1.3 1.6,1.28 2.41,3.29 2.41,6.04 0,3.08 -0.86,5.23 -2.58,6.46 -0.61,0.44 -1.27,0.74 -1.98,0.92 -0.72,0.18 -1.66,0.26 -2.83,0.26l-5.06 0 1.65 -1.35 0 -12.27 -1.65 -1.36zm3.98 1.07l0 12.86c0.65,0.06 1.11,0.09 1.37,0.09 1.51,0 2.64,-0.56 3.37,-1.67 0.79,-1.2 1.19,-2.88 1.19,-5.04 0,-1.79 -0.31,-3.24 -0.93,-4.35 -0.74,-1.31 -1.93,-1.97 -3.57,-1.97 -0.24,0 -0.71,0.03 -1.43,0.08zm22.13 -1.07c-0.59,0.72 -1.01,1.3 -1.26,1.74 -0.25,0.43 -0.52,1.05 -0.81,1.85 -0.07,-0.14 -0.12,-0.27 -0.18,-0.4 -0.26,-0.56 -0.49,-0.97 -0.7,-1.23 -0.21,-0.26 -0.48,-0.46 -0.8,-0.61 -0.51,-0.24 -1.3,-0.36 -2.38,-0.36 -0.71,0 -1.45,0.03 -2.21,0.08l0 5.38 3.18 0 1.49 -1.8 0 4.58 -1.49 -1.79 -3.18 0 0 6.5c0.71,0.05 1.22,0.08 1.52,0.08 1.65,0 2.83,-0.24 3.55,-0.71 0.52,-0.36 1.08,-1.07 1.67,-2.16 0.19,0.84 0.44,1.52 0.75,2.05 0.31,0.53 0.81,1.12 1.49,1.78l-12.96 0 1.64 -1.33 0 -6.21c-0.95,-0.03 -1.76,0.24 -2.44,0.83 0.31,-1.21 1.12,-1.81 2.44,-1.82l0 -5.09 -1.64 -1.36 12.32 0zm11.2 12.13l0 -7.78c0,-1.39 -0.16,-2.39 -0.5,-3 -0.34,-0.61 -0.96,-1.06 -1.88,-1.35l5.72 0c-0.92,0.29 -1.55,0.74 -1.89,1.34 -0.33,0.61 -0.5,1.61 -0.5,3.01l0 10.63 -1.89 0 -6.44 -12.49 0 8.16c0,1.39 0.16,2.39 0.5,3 0.34,0.6 0.96,1.05 1.88,1.33l-5.72 0c0.92,-0.29 1.55,-0.74 1.89,-1.35 0.33,-0.61 0.5,-1.6 0.5,-2.98l0 -9.29 -1.64 -1.36 6.05 0 -1.64 1.36 5.56 10.77zm17.03 -12.13c-0.8,1.31 -1.37,2.51 -1.73,3.62 -0.22,-0.69 -0.42,-1.18 -0.6,-1.48 -0.44,-0.77 -1.22,-1.15 -2.33,-1.15 -0.25,0 -0.68,0.03 -1.28,0.08l0 12.56 1.65 1.35 -5.62 0 1.64 -1.35 0 -12.56c-0.6,-0.05 -1.02,-0.08 -1.27,-0.08 -1.12,0 -1.89,0.38 -2.34,1.15 -0.17,0.3 -0.37,0.79 -0.6,1.48 -0.36,-1.11 -0.93,-2.32 -1.72,-3.62l14.2 0z"/>
  <path class="fil0" d="M30.86 96.9c-0.1,0.14 -0.23,0.36 -0.38,0.67 -0.16,0.31 -0.29,0.61 -0.41,0.9 -0.06,-0.27 -0.13,-0.48 -0.21,-0.64 -0.12,-0.22 -0.29,-0.39 -0.51,-0.53 -0.24,-0.14 -0.49,-0.21 -0.76,-0.21 -0.34,0 -0.63,0.1 -0.85,0.31 -0.2,0.18 -0.3,0.41 -0.3,0.69 0,0.4 0.2,0.68 0.58,0.86 0.15,0.07 0.28,0.12 0.39,0.16 0.12,0.03 0.45,0.11 1,0.24 0.58,0.14 0.99,0.35 1.25,0.63 0.29,0.33 0.44,0.71 0.44,1.14 0,0.49 -0.18,0.91 -0.53,1.26 -0.41,0.41 -0.94,0.61 -1.59,0.61 -0.21,0 -0.42,-0.02 -0.64,-0.07 -0.21,-0.04 -0.55,-0.13 -1,-0.27 -0.21,-0.06 -0.37,-0.09 -0.5,-0.09 -0.17,0 -0.4,0.09 -0.71,0.28 0.17,-0.25 0.34,-0.55 0.52,-0.93 0.18,-0.37 0.3,-0.67 0.36,-0.89 0.08,0.36 0.17,0.61 0.26,0.76 0.14,0.25 0.35,0.44 0.63,0.58 0.31,0.16 0.67,0.24 1.08,0.24 0.41,0 0.73,-0.09 0.96,-0.27 0.26,-0.22 0.39,-0.48 0.39,-0.81 0,-0.2 -0.06,-0.39 -0.17,-0.57 -0.11,-0.18 -0.26,-0.32 -0.46,-0.44 -0.15,-0.08 -0.32,-0.15 -0.5,-0.21 -0.18,-0.05 -0.48,-0.12 -0.9,-0.2 -0.6,-0.12 -1.01,-0.3 -1.25,-0.54 -0.29,-0.3 -0.43,-0.68 -0.43,-1.13 0,-0.56 0.2,-0.99 0.6,-1.31 0.34,-0.28 0.77,-0.42 1.29,-0.42 0.38,0 0.81,0.08 1.3,0.23 0.22,0.07 0.39,0.1 0.49,0.1 0.13,0 0.32,-0.04 0.56,-0.13zm0.63 -0.05l2.25 0 -0.66 0.54 0 2.12c0.35,0.1 0.77,0.15 1.27,0.15 0.28,0 0.54,-0.02 0.78,-0.06l0 -2.21 -0.66 -0.54 2.25 0 -0.66 0.54 0 4.91 0.66 0.54 -2.25 0 0.66 -0.54 0 -2.28c-0.29,0.04 -0.58,0.06 -0.89,0.06 -0.47,0 -0.86,-0.04 -1.16,-0.12l0 2.34 0.66 0.54 -2.25 0 0.66 -0.54 0 -2.34c-0.18,0 -0.34,0.04 -0.49,0.1 -0.16,0.08 -0.28,0.17 -0.37,0.3 0.15,-0.47 0.44,-0.75 0.86,-0.84l0 -2.13 -0.66 -0.54zm5.71 0l2.25 0 -0.65 0.54 0 4.91 0.65 0.54 -2.25 0 0.66 -0.54 0 -4.91 -0.66 -0.54zm2.73 0l2.16 0c0.89,0 1.53,0.12 1.9,0.37 0.48,0.31 0.72,0.73 0.72,1.28 0,0.35 -0.11,0.66 -0.32,0.93 -0.36,0.45 -1.08,0.69 -2.17,0.69 -0.15,0 -0.39,-0.02 -0.7,-0.04l0 2.22 0.66 0.54 -2.25 0 0.65 -0.54 0 -2.28c-0.04,-0.01 -0.09,-0.01 -0.14,-0.01 -0.26,0 -0.54,0.06 -0.85,0.17 0.2,-0.4 0.53,-0.59 0.99,-0.58l0 -2.21 -0.65 -0.54zm1.59 0.42l0 2.4c0.18,0.01 0.35,0.02 0.51,0.02 0.43,0 0.79,-0.06 1.07,-0.19 0.21,-0.09 0.36,-0.22 0.45,-0.38 0.1,-0.15 0.14,-0.36 0.14,-0.62 0,-0.22 -0.04,-0.43 -0.13,-0.61 -0.09,-0.18 -0.21,-0.32 -0.37,-0.41 -0.25,-0.16 -0.59,-0.24 -1,-0.24 -0.18,0 -0.4,0.01 -0.67,0.03zm3.54 -0.42l2.17 0c0.89,0 1.52,0.12 1.9,0.37 0.48,0.31 0.71,0.73 0.71,1.28 0,0.35 -0.1,0.66 -0.31,0.93 -0.36,0.45 -1.09,0.69 -2.18,0.69 -0.15,0 -0.38,-0.02 -0.69,-0.04l0 2.22 0.65 0.54 -2.25 0 0.66 -0.54 0 -2.28c-0.05,-0.01 -0.1,-0.01 -0.14,-0.01 -0.27,0 -0.55,0.06 -0.85,0.17 0.2,-0.4 0.53,-0.59 0.99,-0.58l0 -2.21 -0.66 -0.54zm1.6 0.42l0 2.4c0.17,0.01 0.35,0.02 0.51,0.02 0.43,0 0.79,-0.06 1.07,-0.19 0.2,-0.09 0.36,-0.22 0.45,-0.38 0.09,-0.15 0.14,-0.36 0.14,-0.62 0,-0.22 -0.04,-0.43 -0.13,-0.61 -0.09,-0.18 -0.21,-0.32 -0.37,-0.41 -0.26,-0.16 -0.59,-0.24 -1.01,-0.24 -0.17,0 -0.39,0.01 -0.66,0.03zm3.54 -0.42l2.25 0 -0.66 0.54 0 4.91 0.66 0.54 -2.25 0 0.66 -0.54 0 -4.91 -0.66 -0.54zm6.71 4.85l0 -3.12c0,-0.55 -0.06,-0.95 -0.2,-1.2 -0.13,-0.24 -0.38,-0.42 -0.75,-0.53l2.29 0c-0.37,0.11 -0.62,0.29 -0.76,0.53 -0.13,0.25 -0.2,0.65 -0.2,1.2l0 4.26 -0.75 0 -2.58 -5 0 3.27c0,0.55 0.07,0.95 0.2,1.19 0.14,0.24 0.38,0.42 0.75,0.54l-2.29 0c0.37,-0.12 0.62,-0.3 0.76,-0.54 0.13,-0.25 0.2,-0.64 0.2,-1.19l0 -3.72 -0.66 -0.54 2.42 0 -0.65 0.54 2.22 4.31zm6.57 -4.78l-0.88 1.71c-0.04,-0.38 -0.14,-0.69 -0.29,-0.93 -0.12,-0.19 -0.27,-0.33 -0.46,-0.43 -0.22,-0.13 -0.47,-0.19 -0.74,-0.19 -0.5,0 -0.91,0.18 -1.24,0.54 -0.22,0.24 -0.37,0.5 -0.46,0.79 -0.11,0.41 -0.17,0.85 -0.17,1.33 0,1.81 0.75,2.71 2.24,2.71 0.14,0 0.4,-0.01 0.78,-0.03l0 -2.3 -1.3 0c-0.64,0 -0.97,-0.22 -0.97,-0.64 0,-0.13 0.05,-0.25 0.13,-0.35 0.09,-0.09 0.19,-0.14 0.32,-0.14 0.09,0 0.16,0.03 0.23,0.09 0.06,0.06 0.09,0.13 0.09,0.21 0,0.08 -0.02,0.14 -0.06,0.17 -0.03,0.04 -0.1,0.07 -0.2,0.09 -0.04,0 -0.06,0.03 -0.06,0.07 0,0.07 0.1,0.1 0.31,0.1l3.1 0 -0.66 0.55 0 2.03 0.66 0.54 -2.21 0c-0.51,0 -0.88,-0.02 -1.12,-0.04 -0.23,-0.03 -0.44,-0.09 -0.63,-0.17 -0.57,-0.25 -1.01,-0.67 -1.31,-1.25 -0.24,-0.47 -0.35,-1.01 -0.35,-1.59 0,-0.57 0.1,-1.09 0.32,-1.56 0.25,-0.54 0.64,-0.95 1.16,-1.22 0.41,-0.21 0.82,-0.32 1.24,-0.32 0.32,0 0.69,0.06 1.1,0.19 0.3,0.09 0.49,0.14 0.57,0.16 0.07,0.01 0.16,0.02 0.26,0.02 0.2,0 0.4,-0.05 0.6,-0.14z"/>
  <path class="fil11" d="M5.1 99.46l19.25 0c0.21,0 0.39,0.17 0.39,0.38l0 0c0,0.21 -0.18,0.39 -0.39,0.39l-19.25 0c-0.21,0 -0.38,-0.18 -0.38,-0.39l0 0c0,-0.21 0.17,-0.38 0.38,-0.38z"/>
  <path class="fil11" d="M65.52 99.46l19.25 0c0.21,0 0.39,0.17 0.39,0.38l0 0c0,0.21 -0.18,0.39 -0.39,0.39l-19.25 0c-0.21,0 -0.38,-0.18 -0.38,-0.39l0 0c0,-0.21 0.17,-0.38 0.38,-0.38z"/>
 </g>
</svg>
