<?xml version="1.0" encoding="UTF-8"?>
<!DOCTYPE svg PUBLIC "-//W3C//DTD SVG 1.1//EN" "http://www.w3.org/Graphics/SVG/1.1/DTD/svg11.dtd">
<!-- Creator: CorelDRAW 2019 (64-Bit) -->
<svg xmlns="http://www.w3.org/2000/svg" xml:space="preserve" width="73px" height="90px" version="1.1" style="shape-rendering:geometricPrecision; text-rendering:geometricPrecision; image-rendering:optimizeQuality; fill-rule:evenodd; clip-rule:evenodd"
viewBox="0 0 73 90"
 xmlns:xlink="http://www.w3.org/1999/xlink"
 xmlns:xodm="http://www.corel.com/coreldraw/odm/2003">
 <defs>
  <style type="text/css">
   <![CDATA[
    .fil8 {fill:#D9DADA}
    .fil12 {fill:#1394F0}
    .fil1 {fill:#213768}
    .fil0 {fill:#1394F0;fill-rule:nonzero}
    .fil11 {fill:#213768;fill-rule:nonzero}
    .fil2 {fill:url(#id0)}
    .fil10 {fill:url(#id1)}
    .fil6 {fill:url(#id2)}
    .fil9 {fill:url(#id3)}
    .fil5 {fill:url(#id4)}
    .fil3 {fill:url(#id5)}
    .fil7 {fill:url(#id6)}
    .fil4 {fill:url(#id7)}
   ]]>
  </style>
  <linearGradient id="id0" gradientUnits="userSpaceOnUse" x1="12" y1="35.02" x2="60.99" y2="35.02">
   <stop offset="0" style="stop-opacity:1; stop-color:#0A6CF1"/>
   <stop offset="1" style="stop-opacity:1; stop-color:#2BFBEE"/>
  </linearGradient>
  <radialGradient id="id1" gradientUnits="userSpaceOnUse" gradientTransform="matrix(1.34994 8.88178E-16 -5.88432E-16 1.34994 -16 -4)" cx="46.31" cy="12.11" r="4.87" fx="46.31" fy="12.11">
   <stop offset="0" style="stop-opacity:1; stop-color:#FEFEFE"/>
   <stop offset="1" style="stop-opacity:1; stop-color:#C5C6C6"/>
  </radialGradient>
  <radialGradient id="id2" gradientUnits="userSpaceOnUse" gradientTransform="matrix(1.29971 -5.49365E-16 8.37964E-16 1.29972 -5 -10)" xlink:href="#id1" cx="18.13" cy="34.12" r="16.62" fx="18.13" fy="34.12">
  </radialGradient>
  <radialGradient id="id3" gradientUnits="userSpaceOnUse" gradientTransform="matrix(1.08449 -0 -0 1.08449 -1 -2)" xlink:href="#id1" cx="7.57" cy="22.9" r="6.07" fx="7.57" fy="22.9">
  </radialGradient>
  <radialGradient id="id4" gradientUnits="userSpaceOnUse" gradientTransform="matrix(2.49609 2.22057E-16 -2.22045E-16 2.49595 -70 -53)" xlink:href="#id1" cx="46.51" cy="35.71" r="13.31" fx="46.51" fy="35.71">
  </radialGradient>
  <radialGradient id="id5" gradientUnits="userSpaceOnUse" gradientTransform="matrix(1.52382 -3.33078E-16 3.33067E-16 1.52377 -22 -18)" xlink:href="#id1" cx="41.28" cy="35.23" r="19.44" fx="41.28" fy="35.23">
  </radialGradient>
  <radialGradient id="id6" gradientUnits="userSpaceOnUse" gradientTransform="matrix(1.74731 -0 -0 1.74728 -17 -3)" cx="22.79" cy="4.62" r="48.25" fx="22.79" fy="4.62">
   <stop offset="0" style="stop-opacity:1; stop-color:#FEFEFE"/>
   <stop offset="0.560784" style="stop-opacity:1; stop-color:#E1E2E2"/>
   <stop offset="1" style="stop-opacity:1; stop-color:#C5C6C6"/>
  </radialGradient>
  <radialGradient id="id7" gradientUnits="userSpaceOnUse" gradientTransform="matrix(2.67421 -0 -0 2.67409 -10 -67)" xlink:href="#id1" cx="6.07" cy="39.79" r="14.63" fx="6.07" fy="39.79">
  </radialGradient>
 </defs>
 <g id="Layer_x0020_1">
  <metadata id="CorelCorpID_0Corel-Layer"/>
  <g id="_3001506732144">
   <g>
    <path class="fil0" d="M5.26 88.03l0 1.05c0,0.01 0,0.03 -0.01,0.04 -0.01,0.01 -0.03,0.02 -0.05,0.03 -0.03,0.01 -0.06,0.01 -0.1,0.02 -0.04,0 -0.08,0 -0.14,0 -0.06,0 -0.11,0 -0.15,0 -0.04,-0.01 -0.07,-0.01 -0.09,-0.02 -0.03,-0.01 -0.05,-0.02 -0.05,-0.03 -0.01,-0.01 -0.02,-0.03 -0.02,-0.04l0 -1.05 -0.82 -1.63c-0.02,-0.06 -0.04,-0.1 -0.05,-0.13 -0.01,-0.04 -0.01,-0.06 0.01,-0.08 0.02,-0.01 0.05,-0.02 0.1,-0.03 0.05,0 0.11,0 0.2,0 0.07,0 0.12,0 0.17,0 0.04,0.01 0.07,0.01 0.1,0.02 0.02,0.01 0.04,0.02 0.05,0.03 0.01,0.02 0.02,0.04 0.03,0.06l0.34 0.73c0.03,0.07 0.06,0.15 0.09,0.23 0.04,0.07 0.07,0.16 0.1,0.24l0 0c0.03,-0.08 0.06,-0.16 0.09,-0.24 0.04,-0.08 0.07,-0.15 0.09,-0.22l0.33 -0.73c0.01,-0.03 0.02,-0.05 0.03,-0.06 0.01,-0.02 0.03,-0.03 0.05,-0.04 0.03,-0.01 0.06,-0.01 0.1,-0.02 0.04,0 0.09,0 0.16,0 0.09,0 0.15,0 0.2,0 0.05,0.01 0.08,0.02 0.1,0.03 0.02,0.02 0.02,0.05 0.01,0.08 0,0.03 -0.02,0.07 -0.05,0.13l-0.82 1.63zm2.98 0c0,0.18 -0.02,0.34 -0.07,0.48 -0.04,0.14 -0.11,0.27 -0.21,0.37 -0.09,0.11 -0.21,0.19 -0.35,0.25 -0.14,0.05 -0.3,0.08 -0.49,0.08 -0.19,0 -0.35,-0.02 -0.48,-0.08 -0.14,-0.05 -0.25,-0.12 -0.34,-0.22 -0.09,-0.09 -0.15,-0.21 -0.2,-0.35 -0.04,-0.15 -0.06,-0.31 -0.06,-0.49 0,-0.17 0.02,-0.33 0.07,-0.48 0.04,-0.14 0.12,-0.27 0.21,-0.37 0.09,-0.11 0.21,-0.19 0.35,-0.24 0.14,-0.06 0.31,-0.09 0.5,-0.09 0.18,0 0.34,0.03 0.48,0.08 0.13,0.05 0.24,0.12 0.33,0.22 0.09,0.09 0.16,0.21 0.2,0.35 0.04,0.14 0.06,0.31 0.06,0.49zm-0.59 0.02c0,-0.1 -0.01,-0.19 -0.03,-0.28 -0.01,-0.08 -0.04,-0.16 -0.08,-0.22 -0.04,-0.06 -0.09,-0.11 -0.15,-0.15 -0.07,-0.03 -0.15,-0.05 -0.24,-0.05 -0.09,0 -0.17,0.01 -0.23,0.05 -0.07,0.03 -0.12,0.07 -0.16,0.13 -0.04,0.07 -0.07,0.14 -0.1,0.22 -0.02,0.09 -0.03,0.19 -0.03,0.3 0,0.1 0.01,0.19 0.03,0.28 0.02,0.08 0.04,0.16 0.08,0.22 0.04,0.06 0.09,0.11 0.16,0.15 0.06,0.03 0.14,0.05 0.24,0.05 0.08,0 0.16,-0.02 0.23,-0.05 0.06,-0.03 0.11,-0.08 0.16,-0.14 0.04,-0.06 0.07,-0.13 0.09,-0.21 0.02,-0.09 0.03,-0.19 0.03,-0.3zm3.07 1.03c0,0.02 0,0.03 -0.01,0.04 0,0.01 -0.02,0.02 -0.04,0.03 -0.02,0.01 -0.04,0.01 -0.07,0.02 -0.03,0 -0.08,0 -0.12,0 -0.05,0 -0.09,0 -0.13,0 -0.03,-0.01 -0.05,-0.01 -0.07,-0.02 -0.02,-0.01 -0.03,-0.02 -0.04,-0.03 -0.01,-0.01 -0.01,-0.02 -0.01,-0.04l0 -0.24c-0.11,0.13 -0.23,0.22 -0.35,0.28 -0.12,0.06 -0.24,0.09 -0.36,0.09 -0.15,0 -0.27,-0.02 -0.36,-0.07 -0.1,-0.04 -0.18,-0.11 -0.24,-0.19 -0.05,-0.08 -0.1,-0.17 -0.12,-0.28 -0.03,-0.1 -0.04,-0.23 -0.04,-0.39l0 -1.26c0,-0.01 0,-0.03 0.01,-0.04 0.01,-0.01 0.03,-0.02 0.05,-0.03 0.02,-0.01 0.05,-0.01 0.09,-0.02 0.04,0 0.08,0 0.14,0 0.06,0 0.1,0 0.14,0 0.04,0.01 0.07,0.01 0.09,0.02 0.02,0.01 0.04,0.02 0.05,0.03 0.01,0.01 0.01,0.03 0.01,0.04l0 1.16c0,0.11 0.01,0.19 0.02,0.25 0.01,0.06 0.04,0.11 0.06,0.15 0.03,0.04 0.07,0.07 0.11,0.09 0.05,0.02 0.1,0.04 0.16,0.04 0.07,0 0.15,-0.03 0.22,-0.09 0.07,-0.05 0.15,-0.13 0.24,-0.23l0 -1.37c0,-0.01 0,-0.03 0.01,-0.04 0.01,-0.01 0.02,-0.02 0.05,-0.03 0.02,-0.01 0.05,-0.01 0.09,-0.02 0.03,0 0.08,0 0.14,0 0.05,0 0.1,0 0.14,0 0.03,0.01 0.06,0.01 0.08,0.02 0.03,0.01 0.04,0.02 0.05,0.03 0.01,0.01 0.01,0.03 0.01,0.04l0 2.06zm1.98 -1.87c0,0.06 0,0.1 -0.01,0.14 0,0.03 0,0.06 -0.01,0.08 -0.01,0.02 -0.01,0.04 -0.02,0.04 -0.01,0.01 -0.03,0.02 -0.04,0.02 -0.01,0 -0.03,-0.01 -0.04,-0.01 -0.02,-0.01 -0.04,-0.01 -0.06,-0.02 -0.01,-0.01 -0.04,-0.01 -0.06,-0.02 -0.02,0 -0.05,-0.01 -0.07,-0.01 -0.04,0 -0.07,0.01 -0.1,0.02 -0.03,0.02 -0.07,0.04 -0.1,0.07 -0.04,0.02 -0.07,0.06 -0.11,0.11 -0.04,0.04 -0.08,0.1 -0.12,0.17l0 1.28c0,0.02 -0.01,0.03 -0.02,0.04 0,0.01 -0.02,0.02 -0.04,0.03 -0.03,0.01 -0.06,0.01 -0.09,0.02 -0.04,0 -0.09,0 -0.14,0 -0.06,0 -0.11,0 -0.14,0 -0.04,-0.01 -0.07,-0.01 -0.09,-0.02 -0.02,-0.01 -0.04,-0.02 -0.05,-0.03 -0.01,-0.01 -0.01,-0.02 -0.01,-0.04l0 -2.06c0,-0.01 0,-0.03 0.01,-0.04 0.01,-0.01 0.02,-0.02 0.04,-0.03 0.02,-0.01 0.04,-0.01 0.08,-0.02 0.03,0 0.07,0 0.12,0 0.05,0 0.09,0 0.12,0 0.03,0.01 0.06,0.01 0.07,0.02 0.02,0.01 0.03,0.02 0.04,0.03 0.01,0.01 0.01,0.03 0.01,0.04l0 0.26c0.06,-0.08 0.11,-0.14 0.15,-0.19 0.05,-0.05 0.1,-0.09 0.14,-0.12 0.04,-0.03 0.09,-0.05 0.13,-0.06 0.04,-0.01 0.09,-0.02 0.13,-0.02 0.02,0 0.04,0 0.06,0 0.03,0.01 0.05,0.01 0.08,0.02 0.02,0 0.04,0.01 0.06,0.01 0.02,0.01 0.03,0.02 0.04,0.03 0.01,0 0.02,0.01 0.02,0.02 0,0.01 0.01,0.02 0.01,0.04 0,0.02 0.01,0.04 0.01,0.07 0,0.03 0,0.08 0,0.13zm3.3 1.05c0,0.16 -0.03,0.3 -0.09,0.42 -0.06,0.11 -0.14,0.21 -0.24,0.29 -0.1,0.08 -0.22,0.14 -0.35,0.18 -0.13,0.04 -0.28,0.06 -0.43,0.06 -0.1,0 -0.2,-0.01 -0.29,-0.03 -0.09,-0.01 -0.16,-0.03 -0.23,-0.06 -0.07,-0.02 -0.13,-0.05 -0.17,-0.07 -0.05,-0.03 -0.08,-0.05 -0.1,-0.07 -0.02,-0.02 -0.03,-0.05 -0.04,-0.09 -0.01,-0.04 -0.01,-0.09 -0.01,-0.16 0,-0.05 0,-0.09 0,-0.12 0,-0.03 0.01,-0.06 0.01,-0.08 0.01,-0.02 0.02,-0.03 0.03,-0.04 0.01,-0.01 0.03,-0.02 0.04,-0.02 0.02,0 0.06,0.02 0.1,0.04 0.03,0.03 0.09,0.06 0.15,0.09 0.06,0.03 0.13,0.06 0.22,0.08 0.08,0.03 0.18,0.04 0.29,0.04 0.08,0 0.14,-0.01 0.2,-0.03 0.06,-0.01 0.11,-0.04 0.15,-0.07 0.04,-0.03 0.07,-0.07 0.1,-0.12 0.02,-0.05 0.03,-0.1 0.03,-0.16 0,-0.07 -0.02,-0.12 -0.06,-0.17 -0.03,-0.05 -0.08,-0.09 -0.14,-0.13 -0.06,-0.04 -0.13,-0.08 -0.2,-0.11 -0.08,-0.03 -0.16,-0.07 -0.24,-0.1 -0.08,-0.04 -0.16,-0.08 -0.23,-0.13 -0.08,-0.04 -0.14,-0.1 -0.2,-0.17 -0.06,-0.06 -0.11,-0.14 -0.15,-0.23 -0.03,-0.09 -0.05,-0.2 -0.05,-0.32 0,-0.14 0.02,-0.27 0.08,-0.38 0.05,-0.1 0.12,-0.19 0.21,-0.27 0.09,-0.07 0.2,-0.12 0.32,-0.16 0.12,-0.03 0.25,-0.05 0.39,-0.05 0.07,0 0.14,0.01 0.21,0.02 0.07,0.01 0.14,0.02 0.2,0.04 0.06,0.02 0.11,0.04 0.16,0.06 0.05,0.03 0.08,0.05 0.1,0.06 0.01,0.02 0.02,0.03 0.03,0.04 0,0.01 0.01,0.03 0.01,0.04 0.01,0.02 0.01,0.04 0.01,0.07 0,0.03 0,0.06 0,0.1 0,0.04 0,0.08 0,0.11 0,0.03 -0.01,0.06 -0.01,0.08 -0.01,0.02 -0.02,0.03 -0.03,0.04 -0.01,0.01 -0.02,0.02 -0.04,0.02 -0.01,0 -0.04,-0.01 -0.08,-0.04 -0.03,-0.02 -0.08,-0.04 -0.13,-0.07 -0.06,-0.02 -0.12,-0.04 -0.19,-0.06 -0.07,-0.03 -0.15,-0.04 -0.23,-0.04 -0.07,0 -0.13,0.01 -0.18,0.03 -0.05,0.01 -0.09,0.04 -0.12,0.06 -0.03,0.03 -0.06,0.07 -0.07,0.11 -0.02,0.04 -0.03,0.08 -0.03,0.12 0,0.07 0.02,0.13 0.06,0.18 0.03,0.04 0.08,0.09 0.14,0.13 0.06,0.03 0.13,0.07 0.21,0.1 0.08,0.03 0.15,0.07 0.23,0.11 0.08,0.03 0.16,0.07 0.24,0.12 0.08,0.05 0.14,0.11 0.21,0.17 0.06,0.07 0.1,0.14 0.14,0.23 0.04,0.09 0.06,0.19 0.06,0.31zm2.46 0.82c0,0.02 -0.01,0.03 -0.02,0.04 0,0.01 -0.02,0.02 -0.04,0.03 -0.02,0.01 -0.05,0.01 -0.09,0.02 -0.04,0 -0.09,0 -0.14,0 -0.06,0 -0.1,0 -0.14,0 -0.04,-0.01 -0.07,-0.01 -0.09,-0.02 -0.02,-0.01 -0.04,-0.02 -0.05,-0.03 -0.01,-0.01 -0.01,-0.02 -0.01,-0.04l0 -1.17c0,-0.1 -0.01,-0.18 -0.03,-0.24 -0.01,-0.06 -0.03,-0.1 -0.06,-0.14 -0.02,-0.05 -0.06,-0.08 -0.11,-0.1 -0.04,-0.02 -0.09,-0.03 -0.15,-0.03 -0.07,0 -0.15,0.02 -0.22,0.08 -0.08,0.05 -0.15,0.13 -0.24,0.23l0 1.37c0,0.02 0,0.03 -0.01,0.04 -0.01,0.01 -0.02,0.02 -0.05,0.03 -0.02,0.01 -0.05,0.01 -0.09,0.02 -0.03,0 -0.08,0 -0.14,0 -0.05,0 -0.1,0 -0.14,0 -0.03,-0.01 -0.06,-0.01 -0.09,-0.02 -0.02,-0.01 -0.03,-0.02 -0.04,-0.03 -0.01,-0.01 -0.02,-0.02 -0.02,-0.04l0 -3.03c0,-0.02 0.01,-0.03 0.02,-0.05 0.01,-0.01 0.02,-0.02 0.04,-0.03 0.03,-0.01 0.06,-0.01 0.09,-0.02 0.04,0 0.09,0 0.14,0 0.06,0 0.11,0 0.14,0 0.04,0.01 0.07,0.01 0.09,0.02 0.03,0.01 0.04,0.02 0.05,0.03 0.01,0.02 0.01,0.03 0.01,0.05l0 1.13c0.1,-0.09 0.2,-0.17 0.31,-0.22 0.1,-0.04 0.21,-0.07 0.32,-0.07 0.14,0 0.26,0.02 0.36,0.07 0.09,0.05 0.17,0.11 0.23,0.19 0.06,0.08 0.1,0.17 0.13,0.28 0.03,0.11 0.04,0.24 0.04,0.39l0 1.26zm1.22 0c0,0.02 -0.01,0.03 -0.02,0.04 -0.01,0.01 -0.02,0.02 -0.04,0.03 -0.03,0.01 -0.06,0.01 -0.09,0.02 -0.04,0 -0.09,0 -0.14,0 -0.06,0 -0.11,0 -0.14,0 -0.04,-0.01 -0.07,-0.01 -0.09,-0.02 -0.02,-0.01 -0.04,-0.02 -0.05,-0.03 -0.01,-0.01 -0.01,-0.02 -0.01,-0.04l0 -2.05c0,-0.02 0,-0.03 0.01,-0.04 0.01,-0.02 0.03,-0.03 0.05,-0.03 0.02,-0.01 0.05,-0.02 0.09,-0.02 0.03,-0.01 0.08,-0.01 0.14,-0.01 0.05,0 0.1,0 0.14,0.01 0.03,0 0.06,0.01 0.09,0.02 0.02,0 0.03,0.01 0.04,0.03 0.01,0.01 0.02,0.02 0.02,0.04l0 2.05zm0.04 -2.76c0,0.12 -0.02,0.2 -0.07,0.24 -0.04,0.05 -0.13,0.07 -0.26,0.07 -0.13,0 -0.22,-0.02 -0.27,-0.06 -0.04,-0.05 -0.07,-0.12 -0.07,-0.24 0,-0.11 0.03,-0.19 0.07,-0.24 0.05,-0.05 0.14,-0.07 0.27,-0.07 0.13,0 0.22,0.02 0.26,0.07 0.05,0.04 0.07,0.12 0.07,0.23zm2.67 1.7c0,0.18 -0.01,0.35 -0.06,0.5 -0.03,0.14 -0.09,0.27 -0.17,0.37 -0.07,0.1 -0.17,0.18 -0.28,0.24 -0.11,0.05 -0.24,0.08 -0.38,0.08 -0.06,0 -0.12,-0.01 -0.17,-0.02 -0.05,-0.01 -0.09,-0.03 -0.14,-0.05 -0.05,-0.02 -0.1,-0.05 -0.14,-0.09 -0.05,-0.03 -0.09,-0.08 -0.14,-0.12l0 0.97c0,0.01 -0.01,0.03 -0.02,0.04 -0.01,0.01 -0.02,0.02 -0.05,0.03 -0.02,0.01 -0.05,0.01 -0.08,0.02 -0.04,0 -0.09,0.01 -0.14,0.01 -0.06,0 -0.11,-0.01 -0.15,-0.01 -0.03,-0.01 -0.06,-0.01 -0.08,-0.02 -0.03,-0.01 -0.04,-0.02 -0.05,-0.03 -0.01,-0.01 -0.02,-0.03 -0.02,-0.04l0 -2.88c0,-0.01 0.01,-0.03 0.02,-0.04 0,-0.01 0.02,-0.02 0.04,-0.03 0.02,-0.01 0.04,-0.01 0.07,-0.02 0.04,0 0.07,0 0.12,0 0.05,0 0.09,0 0.12,0 0.03,0.01 0.06,0.01 0.07,0.02 0.02,0.01 0.04,0.02 0.04,0.03 0.01,0.01 0.02,0.03 0.02,0.04l0 0.24c0.06,-0.06 0.11,-0.11 0.17,-0.16 0.06,-0.04 0.12,-0.08 0.18,-0.12 0.06,-0.03 0.12,-0.05 0.18,-0.07 0.07,-0.01 0.14,-0.02 0.21,-0.02 0.15,0 0.28,0.03 0.38,0.09 0.11,0.06 0.2,0.14 0.26,0.24 0.07,0.11 0.12,0.23 0.15,0.36 0.03,0.14 0.04,0.29 0.04,0.44zm-0.6 0.04c0,-0.09 -0.01,-0.17 -0.02,-0.25 -0.01,-0.08 -0.04,-0.15 -0.07,-0.22 -0.03,-0.06 -0.07,-0.11 -0.12,-0.15 -0.05,-0.03 -0.12,-0.05 -0.19,-0.05 -0.04,0 -0.08,0 -0.12,0.01 -0.03,0.02 -0.07,0.03 -0.11,0.06 -0.04,0.03 -0.08,0.06 -0.12,0.1 -0.04,0.04 -0.09,0.1 -0.13,0.16l0 0.67c0.08,0.11 0.16,0.19 0.23,0.24 0.07,0.06 0.15,0.08 0.23,0.08 0.07,0 0.14,-0.01 0.19,-0.05 0.05,-0.04 0.1,-0.09 0.13,-0.15 0.03,-0.07 0.06,-0.14 0.08,-0.21 0.01,-0.08 0.02,-0.16 0.02,-0.24zm3.21 -0.04c0,0.18 -0.02,0.35 -0.06,0.5 -0.04,0.14 -0.1,0.27 -0.17,0.37 -0.08,0.1 -0.17,0.18 -0.28,0.24 -0.12,0.05 -0.24,0.08 -0.39,0.08 -0.06,0 -0.11,-0.01 -0.16,-0.02 -0.05,-0.01 -0.1,-0.03 -0.15,-0.05 -0.04,-0.02 -0.09,-0.05 -0.14,-0.09 -0.04,-0.03 -0.09,-0.08 -0.14,-0.12l0 0.97c0,0.01 -0.01,0.03 -0.02,0.04 0,0.01 -0.02,0.02 -0.04,0.03 -0.02,0.01 -0.05,0.01 -0.09,0.02 -0.04,0 -0.08,0.01 -0.14,0.01 -0.06,0 -0.11,-0.01 -0.14,-0.01 -0.04,-0.01 -0.07,-0.01 -0.09,-0.02 -0.02,-0.01 -0.04,-0.02 -0.05,-0.03 -0.01,-0.01 -0.01,-0.03 -0.01,-0.04l0 -2.88c0,-0.01 0,-0.03 0.01,-0.04 0.01,-0.01 0.02,-0.02 0.04,-0.03 0.02,-0.01 0.04,-0.01 0.08,-0.02 0.03,0 0.07,0 0.11,0 0.05,0 0.09,0 0.12,0 0.03,0.01 0.06,0.01 0.08,0.02 0.02,0.01 0.03,0.02 0.04,0.03 0.01,0.01 0.01,0.03 0.01,0.04l0 0.24c0.06,-0.06 0.12,-0.11 0.18,-0.16 0.05,-0.04 0.11,-0.08 0.17,-0.12 0.06,-0.03 0.12,-0.05 0.19,-0.07 0.06,-0.01 0.13,-0.02 0.2,-0.02 0.15,0 0.28,0.03 0.39,0.09 0.1,0.06 0.19,0.14 0.26,0.24 0.06,0.11 0.11,0.23 0.14,0.36 0.03,0.14 0.05,0.29 0.05,0.44zm-0.61 0.04c0,-0.09 0,-0.17 -0.02,-0.25 -0.01,-0.08 -0.03,-0.15 -0.06,-0.22 -0.04,-0.06 -0.08,-0.11 -0.13,-0.15 -0.05,-0.03 -0.11,-0.05 -0.19,-0.05 -0.04,0 -0.08,0 -0.11,0.01 -0.04,0.02 -0.08,0.03 -0.12,0.06 -0.04,0.03 -0.08,0.06 -0.12,0.1 -0.04,0.04 -0.09,0.1 -0.13,0.16l0 0.67c0.08,0.11 0.16,0.19 0.23,0.24 0.08,0.06 0.15,0.08 0.23,0.08 0.08,0 0.14,-0.01 0.19,-0.05 0.06,-0.04 0.1,-0.09 0.13,-0.15 0.04,-0.07 0.06,-0.14 0.08,-0.21 0.02,-0.08 0.02,-0.16 0.02,-0.24zm1.72 1.02c0,0.02 0,0.03 -0.01,0.04 -0.01,0.01 -0.03,0.02 -0.05,0.03 -0.02,0.01 -0.05,0.01 -0.09,0.02 -0.03,0 -0.08,0 -0.14,0 -0.06,0 -0.1,0 -0.14,0 -0.04,-0.01 -0.07,-0.01 -0.09,-0.02 -0.02,-0.01 -0.04,-0.02 -0.04,-0.03 -0.01,-0.01 -0.02,-0.02 -0.02,-0.04l0 -2.05c0,-0.02 0.01,-0.03 0.02,-0.04 0,-0.02 0.02,-0.03 0.04,-0.03 0.02,-0.01 0.05,-0.02 0.09,-0.02 0.04,-0.01 0.08,-0.01 0.14,-0.01 0.06,0 0.11,0 0.14,0.01 0.04,0 0.07,0.01 0.09,0.02 0.02,0 0.04,0.01 0.05,0.03 0.01,0.01 0.01,0.02 0.01,0.04l0 2.05zm0.05 -2.76c0,0.12 -0.02,0.2 -0.07,0.24 -0.05,0.05 -0.14,0.07 -0.27,0.07 -0.13,0 -0.22,-0.02 -0.26,-0.06 -0.05,-0.05 -0.07,-0.12 -0.07,-0.24 0,-0.11 0.02,-0.19 0.07,-0.24 0.05,-0.05 0.14,-0.07 0.27,-0.07 0.13,0 0.21,0.02 0.26,0.07 0.05,0.04 0.07,0.12 0.07,0.23zm2.57 2.76c0,0.02 -0.01,0.03 -0.02,0.04 -0.01,0.01 -0.02,0.02 -0.04,0.03 -0.03,0.01 -0.06,0.01 -0.09,0.02 -0.04,0 -0.09,0 -0.14,0 -0.06,0 -0.11,0 -0.15,0 -0.03,-0.01 -0.06,-0.01 -0.09,-0.02 -0.02,-0.01 -0.03,-0.02 -0.04,-0.03 -0.01,-0.01 -0.02,-0.02 -0.02,-0.04l0 -1.17c0,-0.1 0,-0.18 -0.02,-0.24 -0.01,-0.06 -0.03,-0.1 -0.06,-0.14 -0.03,-0.05 -0.06,-0.08 -0.11,-0.1 -0.04,-0.02 -0.09,-0.03 -0.15,-0.03 -0.07,0 -0.15,0.02 -0.22,0.08 -0.08,0.05 -0.16,0.13 -0.24,0.23l0 1.37c0,0.02 0,0.03 -0.01,0.04 -0.01,0.01 -0.03,0.02 -0.05,0.03 -0.02,0.01 -0.05,0.01 -0.09,0.02 -0.03,0 -0.08,0 -0.14,0 -0.06,0 -0.1,0 -0.14,0 -0.04,-0.01 -0.07,-0.01 -0.09,-0.02 -0.02,-0.01 -0.04,-0.02 -0.05,-0.03 0,-0.01 -0.01,-0.02 -0.01,-0.04l0 -2.06c0,-0.01 0,-0.03 0.01,-0.04 0.01,-0.01 0.02,-0.02 0.04,-0.03 0.02,-0.01 0.05,-0.01 0.08,-0.02 0.03,0 0.07,0 0.12,0 0.05,0 0.09,0 0.12,0 0.03,0.01 0.06,0.01 0.08,0.02 0.01,0.01 0.03,0.02 0.03,0.03 0.01,0.01 0.02,0.03 0.02,0.04l0 0.24c0.11,-0.12 0.23,-0.22 0.34,-0.28 0.12,-0.06 0.24,-0.09 0.37,-0.09 0.14,0 0.26,0.02 0.36,0.07 0.09,0.05 0.17,0.11 0.23,0.19 0.06,0.08 0.1,0.17 0.13,0.28 0.02,0.1 0.04,0.23 0.04,0.38l0 1.27zm2.49 -1.91c0,0.07 -0.01,0.12 -0.03,0.16 -0.02,0.03 -0.04,0.05 -0.06,0.05l-0.24 0c0.03,0.04 0.05,0.08 0.07,0.13 0.01,0.04 0.02,0.09 0.02,0.14 0,0.12 -0.02,0.23 -0.06,0.32 -0.04,0.1 -0.1,0.17 -0.17,0.24 -0.08,0.06 -0.17,0.11 -0.27,0.14 -0.11,0.04 -0.22,0.05 -0.35,0.05 -0.07,0 -0.13,-0.01 -0.19,-0.02 -0.06,-0.02 -0.11,-0.04 -0.14,-0.06 -0.02,0.02 -0.04,0.05 -0.05,0.07 -0.02,0.03 -0.02,0.06 -0.02,0.1 0,0.04 0.02,0.08 0.06,0.11 0.04,0.02 0.09,0.04 0.16,0.04l0.5 0.02c0.12,0.01 0.22,0.02 0.31,0.05 0.1,0.03 0.17,0.07 0.24,0.12 0.06,0.05 0.11,0.12 0.14,0.19 0.03,0.07 0.05,0.15 0.05,0.24 0,0.11 -0.02,0.2 -0.07,0.29 -0.04,0.09 -0.11,0.17 -0.2,0.24 -0.09,0.06 -0.2,0.11 -0.34,0.15 -0.13,0.04 -0.29,0.06 -0.47,0.06 -0.17,0 -0.32,-0.01 -0.45,-0.04 -0.12,-0.03 -0.22,-0.07 -0.3,-0.12 -0.08,-0.05 -0.14,-0.1 -0.17,-0.17 -0.04,-0.07 -0.06,-0.15 -0.06,-0.23 0,-0.05 0.01,-0.1 0.02,-0.14 0.02,-0.05 0.03,-0.09 0.06,-0.14 0.02,-0.04 0.06,-0.08 0.09,-0.12 0.04,-0.04 0.08,-0.07 0.13,-0.11 -0.07,-0.03 -0.12,-0.08 -0.15,-0.14 -0.04,-0.06 -0.06,-0.13 -0.06,-0.2 0,-0.09 0.02,-0.18 0.06,-0.25 0.05,-0.08 0.1,-0.14 0.17,-0.2 -0.06,-0.06 -0.1,-0.12 -0.13,-0.2 -0.03,-0.07 -0.05,-0.16 -0.05,-0.28 0,-0.12 0.02,-0.22 0.06,-0.32 0.04,-0.09 0.1,-0.17 0.18,-0.24 0.07,-0.06 0.16,-0.11 0.27,-0.15 0.1,-0.03 0.22,-0.05 0.34,-0.05 0.07,0 0.13,0 0.19,0.01 0.06,0.01 0.11,0.02 0.17,0.03l0.65 0c0.02,0 0.05,0.02 0.06,0.05 0.02,0.04 0.03,0.09 0.03,0.18zm-0.75 0.48c0,-0.11 -0.03,-0.19 -0.09,-0.26 -0.06,-0.06 -0.15,-0.09 -0.26,-0.09 -0.06,0 -0.11,0.01 -0.15,0.03 -0.05,0.02 -0.08,0.05 -0.11,0.08 -0.03,0.03 -0.05,0.07 -0.06,0.12 -0.02,0.04 -0.02,0.09 -0.02,0.13 0,0.11 0.03,0.19 0.09,0.25 0.06,0.06 0.15,0.09 0.25,0.09 0.06,0 0.11,-0.01 0.16,-0.03 0.04,-0.01 0.08,-0.04 0.1,-0.07 0.03,-0.03 0.05,-0.07 0.07,-0.11 0.01,-0.05 0.02,-0.09 0.02,-0.14zm0.14 1.64c0,-0.06 -0.03,-0.12 -0.09,-0.15 -0.05,-0.04 -0.13,-0.06 -0.22,-0.06l-0.42 -0.02c-0.04,0.03 -0.07,0.06 -0.09,0.09 -0.03,0.03 -0.05,0.05 -0.06,0.08 -0.02,0.02 -0.02,0.04 -0.03,0.07 0,0.02 -0.01,0.04 -0.01,0.07 0,0.07 0.04,0.13 0.12,0.17 0.08,0.04 0.19,0.06 0.33,0.06 0.09,0 0.16,-0.01 0.22,-0.02 0.06,-0.02 0.11,-0.04 0.14,-0.07 0.04,-0.03 0.07,-0.07 0.08,-0.1 0.02,-0.04 0.03,-0.08 0.03,-0.12z"/>
    <path class="fil0" d="M35.23 88.95c0,0.03 0,0.06 -0.01,0.09 -0.02,0.03 -0.03,0.05 -0.05,0.07 -0.02,0.02 -0.05,0.03 -0.08,0.04 -0.03,0.01 -0.06,0.01 -0.08,0.01l-0.26 0c-0.06,0 -0.1,0 -0.14,-0.01 -0.04,-0.01 -0.08,-0.03 -0.11,-0.06 -0.04,-0.03 -0.07,-0.07 -0.1,-0.12 -0.03,-0.05 -0.06,-0.11 -0.1,-0.19l-0.74 -1.39c-0.05,-0.08 -0.09,-0.17 -0.13,-0.27 -0.05,-0.1 -0.09,-0.19 -0.12,-0.28l-0.01 0c0.01,0.11 0.01,0.22 0.02,0.33 0,0.11 0,0.22 0,0.34l0 1.56c0,0.02 0,0.03 -0.01,0.05 -0.01,0.01 -0.03,0.02 -0.05,0.03 -0.02,0.01 -0.04,0.01 -0.08,0.02 -0.04,0 -0.08,0 -0.14,0 -0.05,0 -0.1,0 -0.13,0 -0.04,-0.01 -0.06,-0.01 -0.08,-0.02 -0.02,-0.01 -0.04,-0.02 -0.05,-0.03 0,-0.02 -0.01,-0.03 -0.01,-0.05l0 -2.68c0,-0.07 0.02,-0.13 0.07,-0.16 0.04,-0.04 0.09,-0.06 0.15,-0.06l0.33 0c0.06,0 0.11,0.01 0.15,0.02 0.04,0.01 0.07,0.02 0.1,0.05 0.03,0.02 0.06,0.05 0.09,0.09 0.03,0.04 0.06,0.09 0.09,0.15l0.58 1.1c0.03,0.06 0.06,0.13 0.1,0.19 0.03,0.07 0.06,0.13 0.09,0.19 0.03,0.07 0.06,0.13 0.09,0.19 0.03,0.06 0.06,0.13 0.09,0.19l0 0c0,-0.11 -0.01,-0.22 -0.01,-0.34 0,-0.12 0,-0.23 0,-0.34l0 -1.4c0,-0.01 0,-0.03 0.01,-0.04 0.01,-0.01 0.02,-0.02 0.05,-0.03 0.02,-0.01 0.05,-0.02 0.08,-0.02 0.04,-0.01 0.08,-0.01 0.14,-0.01 0.05,0 0.09,0 0.13,0.01 0.04,0 0.06,0.01 0.08,0.02 0.02,0.01 0.03,0.02 0.04,0.03 0.01,0.01 0.01,0.03 0.01,0.04l0 2.69zm2.59 -0.96c0,0.07 -0.02,0.12 -0.05,0.16 -0.03,0.03 -0.07,0.05 -0.13,0.05l-1.25 0c0,0.09 0.01,0.17 0.03,0.24 0.02,0.07 0.05,0.13 0.1,0.18 0.04,0.05 0.1,0.09 0.17,0.11 0.07,0.03 0.16,0.04 0.26,0.04 0.1,0 0.19,-0.01 0.27,-0.02 0.07,-0.02 0.14,-0.03 0.2,-0.05 0.05,-0.02 0.1,-0.03 0.14,-0.05 0.03,-0.01 0.06,-0.02 0.09,-0.02 0.01,0 0.02,0 0.03,0.01 0.01,0 0.02,0.01 0.02,0.03 0.01,0.01 0.01,0.03 0.02,0.06 0,0.02 0,0.05 0,0.09 0,0.03 0,0.06 0,0.09 0,0.02 -0.01,0.04 -0.01,0.06 0,0.02 -0.01,0.03 -0.01,0.04 -0.01,0.01 -0.02,0.02 -0.03,0.03 -0.01,0.01 -0.03,0.03 -0.08,0.05 -0.04,0.02 -0.1,0.03 -0.17,0.05 -0.07,0.02 -0.15,0.04 -0.24,0.05 -0.09,0.01 -0.18,0.02 -0.28,0.02 -0.19,0 -0.35,-0.02 -0.49,-0.07 -0.13,-0.04 -0.25,-0.11 -0.34,-0.21 -0.09,-0.09 -0.16,-0.21 -0.21,-0.35 -0.04,-0.15 -0.06,-0.31 -0.06,-0.51 0,-0.18 0.02,-0.34 0.07,-0.49 0.05,-0.15 0.12,-0.27 0.21,-0.37 0.09,-0.11 0.2,-0.18 0.33,-0.24 0.13,-0.05 0.27,-0.08 0.44,-0.08 0.17,0 0.32,0.03 0.44,0.08 0.12,0.05 0.22,0.12 0.3,0.21 0.08,0.09 0.14,0.2 0.17,0.32 0.04,0.12 0.06,0.25 0.06,0.4l0 0.09zm-0.56 -0.16c0,-0.17 -0.03,-0.3 -0.1,-0.39 -0.07,-0.09 -0.18,-0.14 -0.33,-0.14 -0.07,0 -0.14,0.02 -0.19,0.04 -0.05,0.03 -0.1,0.07 -0.14,0.12 -0.03,0.04 -0.06,0.1 -0.08,0.16 -0.02,0.07 -0.03,0.13 -0.03,0.21l0.87 0zm3.01 0.16c0,0.07 -0.02,0.12 -0.05,0.16 -0.03,0.03 -0.08,0.05 -0.13,0.05l-1.26 0c0,0.09 0.01,0.17 0.03,0.24 0.03,0.07 0.06,0.13 0.1,0.18 0.05,0.05 0.11,0.09 0.18,0.11 0.07,0.03 0.16,0.04 0.26,0.04 0.1,0 0.19,-0.01 0.26,-0.02 0.08,-0.02 0.15,-0.03 0.2,-0.05 0.06,-0.02 0.11,-0.03 0.14,-0.05 0.04,-0.01 0.07,-0.02 0.09,-0.02 0.02,0 0.03,0 0.04,0.01 0.01,0 0.01,0.01 0.02,0.03 0.01,0.01 0.01,0.03 0.01,0.06 0.01,0.02 0.01,0.05 0.01,0.09 0,0.03 0,0.06 -0.01,0.09 0,0.02 0,0.04 0,0.06 -0.01,0.02 -0.01,0.03 -0.02,0.04 0,0.01 -0.01,0.02 -0.02,0.03 -0.01,0.01 -0.04,0.03 -0.08,0.05 -0.05,0.02 -0.11,0.03 -0.17,0.05 -0.07,0.02 -0.15,0.04 -0.24,0.05 -0.09,0.01 -0.19,0.02 -0.29,0.02 -0.18,0 -0.34,-0.02 -0.48,-0.07 -0.13,-0.04 -0.25,-0.11 -0.34,-0.21 -0.09,-0.09 -0.16,-0.21 -0.21,-0.35 -0.04,-0.15 -0.07,-0.31 -0.07,-0.51 0,-0.18 0.03,-0.34 0.07,-0.49 0.05,-0.15 0.12,-0.27 0.21,-0.37 0.09,-0.11 0.2,-0.18 0.33,-0.24 0.13,-0.05 0.28,-0.08 0.44,-0.08 0.18,0 0.32,0.03 0.45,0.08 0.12,0.05 0.22,0.12 0.3,0.21 0.07,0.09 0.13,0.2 0.17,0.32 0.04,0.12 0.06,0.25 0.06,0.4l0 0.09zm-0.57 -0.16c0.01,-0.17 -0.03,-0.3 -0.1,-0.39 -0.07,-0.09 -0.17,-0.14 -0.32,-0.14 -0.07,0 -0.14,0.02 -0.19,0.04 -0.06,0.03 -0.1,0.07 -0.14,0.12 -0.04,0.04 -0.06,0.1 -0.08,0.16 -0.02,0.07 -0.03,0.13 -0.04,0.21l0.87 0zm3.06 1.25c0,0.02 0,0.03 -0.01,0.04 -0.01,0.02 -0.02,0.02 -0.04,0.03 -0.02,0.01 -0.04,0.01 -0.07,0.02 -0.03,0 -0.07,0 -0.12,0 -0.05,0 -0.09,0 -0.12,0 -0.03,-0.01 -0.05,-0.01 -0.07,-0.02 -0.02,-0.01 -0.04,-0.02 -0.04,-0.03 -0.01,-0.01 -0.02,-0.02 -0.02,-0.04l0 -0.23c-0.1,0.12 -0.22,0.2 -0.33,0.27 -0.12,0.06 -0.25,0.09 -0.39,0.09 -0.15,0 -0.29,-0.03 -0.4,-0.09 -0.1,-0.06 -0.19,-0.14 -0.26,-0.25 -0.07,-0.1 -0.12,-0.22 -0.15,-0.36 -0.03,-0.13 -0.05,-0.28 -0.05,-0.43 0,-0.18 0.02,-0.35 0.06,-0.5 0.04,-0.14 0.1,-0.26 0.17,-0.37 0.08,-0.1 0.17,-0.18 0.29,-0.24 0.11,-0.05 0.24,-0.08 0.38,-0.08 0.12,0 0.22,0.02 0.32,0.07 0.09,0.05 0.18,0.12 0.28,0.21l0 -1.12c0,-0.01 0,-0.02 0.01,-0.04 0.01,-0.01 0.02,-0.02 0.05,-0.03 0.02,-0.01 0.05,-0.01 0.08,-0.02 0.04,0 0.09,0 0.15,0 0.05,0 0.1,0 0.14,0 0.03,0.01 0.06,0.01 0.08,0.02 0.03,0.01 0.04,0.02 0.05,0.03 0.01,0.02 0.01,0.03 0.01,0.04l0 3.03zm-0.57 -1.38c-0.09,-0.1 -0.17,-0.18 -0.24,-0.23 -0.08,-0.06 -0.16,-0.09 -0.24,-0.09 -0.08,0 -0.14,0.02 -0.19,0.06 -0.06,0.04 -0.1,0.09 -0.14,0.15 -0.03,0.06 -0.06,0.13 -0.07,0.21 -0.02,0.08 -0.03,0.16 -0.03,0.24 0,0.09 0.01,0.17 0.03,0.25 0.01,0.08 0.03,0.15 0.06,0.22 0.04,0.06 0.08,0.11 0.13,0.15 0.05,0.04 0.12,0.06 0.2,0.06 0.04,0 0.08,-0.01 0.12,-0.02 0.03,-0.01 0.07,-0.03 0.11,-0.05 0.04,-0.03 0.08,-0.06 0.12,-0.11 0.04,-0.04 0.09,-0.09 0.14,-0.15l0 -0.69zm5.01 -0.07c0,0.25 -0.03,0.47 -0.09,0.67 -0.06,0.19 -0.15,0.36 -0.28,0.49 -0.12,0.14 -0.27,0.24 -0.45,0.31 -0.18,0.08 -0.38,0.11 -0.62,0.11 -0.23,0 -0.43,-0.03 -0.61,-0.09 -0.17,-0.06 -0.31,-0.15 -0.43,-0.28 -0.11,-0.12 -0.2,-0.28 -0.26,-0.47 -0.06,-0.2 -0.09,-0.42 -0.09,-0.69 0,-0.24 0.04,-0.45 0.1,-0.65 0.06,-0.19 0.15,-0.35 0.27,-0.49 0.12,-0.13 0.27,-0.24 0.45,-0.31 0.18,-0.07 0.39,-0.11 0.63,-0.11 0.22,0 0.42,0.03 0.6,0.09 0.17,0.06 0.31,0.15 0.43,0.28 0.11,0.12 0.2,0.28 0.26,0.47 0.06,0.19 0.09,0.41 0.09,0.67zm-0.64 0.03c0,-0.15 -0.01,-0.3 -0.03,-0.43 -0.03,-0.12 -0.07,-0.23 -0.13,-0.33 -0.06,-0.09 -0.14,-0.16 -0.24,-0.21 -0.09,-0.05 -0.22,-0.07 -0.36,-0.07 -0.15,0 -0.28,0.03 -0.38,0.08 -0.1,0.06 -0.18,0.13 -0.24,0.23 -0.06,0.09 -0.1,0.2 -0.13,0.32 -0.02,0.13 -0.04,0.26 -0.04,0.4 0,0.17 0.02,0.31 0.04,0.44 0.02,0.13 0.07,0.24 0.12,0.34 0.06,0.09 0.14,0.16 0.24,0.21 0.1,0.05 0.22,0.07 0.37,0.07 0.15,0 0.27,-0.03 0.37,-0.08 0.1,-0.06 0.18,-0.13 0.24,-0.23 0.07,-0.1 0.11,-0.21 0.14,-0.33 0.02,-0.13 0.03,-0.26 0.03,-0.41zm3.14 1.42c0,0.02 -0.01,0.03 -0.01,0.04 -0.01,0.01 -0.02,0.02 -0.04,0.03 -0.02,0.01 -0.05,0.01 -0.08,0.02 -0.03,0 -0.07,0 -0.12,0 -0.05,0 -0.09,0 -0.12,0 -0.03,-0.01 -0.06,-0.01 -0.08,-0.02 -0.02,-0.01 -0.03,-0.02 -0.04,-0.03 0,-0.01 -0.01,-0.02 -0.01,-0.04l0 -0.24c-0.11,0.13 -0.23,0.22 -0.35,0.28 -0.11,0.06 -0.24,0.09 -0.36,0.09 -0.14,0 -0.26,-0.02 -0.36,-0.07 -0.1,-0.04 -0.17,-0.11 -0.23,-0.19 -0.06,-0.08 -0.1,-0.17 -0.13,-0.28 -0.02,-0.1 -0.04,-0.23 -0.04,-0.39l0 -1.26c0,-0.01 0.01,-0.03 0.02,-0.04 0,-0.01 0.02,-0.02 0.04,-0.03 0.02,-0.01 0.05,-0.01 0.09,-0.02 0.04,0 0.09,0 0.14,0 0.06,0 0.11,0 0.14,0 0.04,0.01 0.07,0.01 0.09,0.02 0.03,0.01 0.04,0.02 0.05,0.03 0.01,0.01 0.01,0.03 0.01,0.04l0 1.16c0,0.11 0.01,0.19 0.02,0.25 0.02,0.06 0.04,0.11 0.07,0.15 0.03,0.04 0.06,0.07 0.11,0.09 0.04,0.02 0.09,0.04 0.15,0.04 0.07,0 0.15,-0.03 0.22,-0.09 0.08,-0.05 0.16,-0.13 0.24,-0.23l0 -1.37c0,-0.01 0.01,-0.03 0.01,-0.04 0.01,-0.01 0.03,-0.02 0.05,-0.03 0.02,-0.01 0.05,-0.01 0.09,-0.02 0.04,0 0.08,0 0.14,0 0.06,0 0.1,0 0.14,0 0.04,0.01 0.07,0.01 0.09,0.02 0.02,0.01 0.04,0.02 0.04,0.03 0.01,0.01 0.02,0.03 0.02,0.04l0 2.06zm1.97 -1.87c0,0.06 0,0.1 0,0.14 0,0.03 -0.01,0.06 -0.02,0.08 0,0.02 -0.01,0.04 -0.02,0.04 -0.01,0.01 -0.02,0.02 -0.04,0.02 -0.01,0 -0.02,-0.01 -0.04,-0.01 -0.01,-0.01 -0.03,-0.01 -0.05,-0.02 -0.02,-0.01 -0.04,-0.01 -0.06,-0.02 -0.03,0 -0.05,-0.01 -0.08,-0.01 -0.03,0 -0.07,0.01 -0.1,0.02 -0.03,0.02 -0.06,0.04 -0.1,0.07 -0.03,0.02 -0.07,0.06 -0.11,0.11 -0.04,0.04 -0.08,0.1 -0.12,0.17l0 1.28c0,0.02 0,0.03 -0.01,0.04 -0.01,0.01 -0.03,0.02 -0.05,0.03 -0.02,0.01 -0.05,0.01 -0.09,0.02 -0.04,0 -0.08,0 -0.14,0 -0.06,0 -0.1,0 -0.14,0 -0.04,-0.01 -0.07,-0.01 -0.09,-0.02 -0.02,-0.01 -0.04,-0.02 -0.05,-0.03 -0.01,-0.01 -0.01,-0.02 -0.01,-0.04l0 -2.06c0,-0.01 0,-0.03 0.01,-0.04 0.01,-0.01 0.02,-0.02 0.04,-0.03 0.02,-0.01 0.05,-0.01 0.08,-0.02 0.03,0 0.07,0 0.12,0 0.05,0 0.09,0 0.12,0 0.03,0.01 0.06,0.01 0.08,0.02 0.01,0.01 0.03,0.02 0.03,0.03 0.01,0.01 0.02,0.03 0.02,0.04l0 0.26c0.05,-0.08 0.1,-0.14 0.15,-0.19 0.05,-0.05 0.09,-0.09 0.13,-0.12 0.05,-0.03 0.09,-0.05 0.13,-0.06 0.05,-0.01 0.09,-0.02 0.13,-0.02 0.02,0 0.05,0 0.07,0 0.02,0.01 0.04,0.01 0.07,0.02 0.02,0 0.05,0.01 0.06,0.01 0.02,0.01 0.04,0.02 0.05,0.03 0,0 0.01,0.01 0.01,0.02 0.01,0.01 0.01,0.02 0.01,0.04 0.01,0.02 0.01,0.04 0.01,0.07 0,0.03 0,0.08 0,0.13zm3.3 1.05c0,0.16 -0.03,0.3 -0.09,0.42 -0.06,0.11 -0.14,0.21 -0.23,0.29 -0.11,0.08 -0.22,0.14 -0.36,0.18 -0.13,0.04 -0.27,0.06 -0.43,0.06 -0.1,0 -0.19,-0.01 -0.28,-0.03 -0.09,-0.01 -0.17,-0.03 -0.24,-0.06 -0.06,-0.02 -0.12,-0.05 -0.17,-0.07 -0.04,-0.03 -0.08,-0.05 -0.1,-0.07 -0.02,-0.02 -0.03,-0.05 -0.04,-0.09 -0.01,-0.04 -0.01,-0.09 -0.01,-0.16 0,-0.05 0,-0.09 0,-0.12 0.01,-0.03 0.01,-0.06 0.02,-0.08 0.01,-0.02 0.02,-0.03 0.03,-0.04 0.01,-0.01 0.02,-0.02 0.04,-0.02 0.02,0 0.05,0.02 0.09,0.04 0.04,0.03 0.09,0.06 0.15,0.09 0.06,0.03 0.14,0.06 0.22,0.08 0.09,0.03 0.18,0.04 0.3,0.04 0.07,0 0.14,-0.01 0.2,-0.03 0.06,-0.01 0.11,-0.04 0.15,-0.07 0.04,-0.03 0.07,-0.07 0.09,-0.12 0.02,-0.05 0.03,-0.1 0.03,-0.16 0,-0.07 -0.02,-0.12 -0.05,-0.17 -0.04,-0.05 -0.09,-0.09 -0.15,-0.13 -0.06,-0.04 -0.13,-0.08 -0.2,-0.11 -0.08,-0.03 -0.15,-0.07 -0.23,-0.1 -0.08,-0.04 -0.16,-0.08 -0.24,-0.13 -0.07,-0.04 -0.14,-0.1 -0.2,-0.17 -0.06,-0.06 -0.11,-0.14 -0.14,-0.23 -0.04,-0.09 -0.06,-0.2 -0.06,-0.32 0,-0.14 0.03,-0.27 0.08,-0.38 0.05,-0.1 0.13,-0.19 0.22,-0.27 0.08,-0.07 0.19,-0.12 0.31,-0.16 0.12,-0.03 0.25,-0.05 0.39,-0.05 0.07,0 0.14,0.01 0.21,0.02 0.07,0.01 0.14,0.02 0.2,0.04 0.06,0.02 0.12,0.04 0.17,0.06 0.04,0.03 0.07,0.05 0.09,0.06 0.02,0.02 0.03,0.03 0.03,0.04 0.01,0.01 0.01,0.03 0.01,0.04 0.01,0.02 0.01,0.04 0.01,0.07 0,0.03 0.01,0.06 0.01,0.1 0,0.04 -0.01,0.08 -0.01,0.11 0,0.03 0,0.06 -0.01,0.08 0,0.02 -0.01,0.03 -0.02,0.04 -0.01,0.01 -0.03,0.02 -0.04,0.02 -0.02,0 -0.05,-0.01 -0.08,-0.04 -0.04,-0.02 -0.09,-0.04 -0.14,-0.07 -0.05,-0.02 -0.12,-0.04 -0.19,-0.06 -0.07,-0.03 -0.15,-0.04 -0.23,-0.04 -0.07,0 -0.12,0.01 -0.17,0.03 -0.05,0.01 -0.09,0.04 -0.13,0.06 -0.03,0.03 -0.05,0.07 -0.07,0.11 -0.02,0.04 -0.02,0.08 -0.02,0.12 0,0.07 0.01,0.13 0.05,0.18 0.04,0.04 0.08,0.09 0.14,0.13 0.07,0.03 0.13,0.07 0.21,0.1 0.08,0.03 0.16,0.07 0.24,0.11 0.08,0.03 0.16,0.07 0.23,0.12 0.08,0.05 0.15,0.11 0.21,0.17 0.06,0.07 0.11,0.14 0.14,0.23 0.04,0.09 0.06,0.19 0.06,0.31zm2.58 -0.23c0,0.18 -0.03,0.34 -0.07,0.48 -0.05,0.14 -0.12,0.27 -0.21,0.37 -0.1,0.11 -0.22,0.19 -0.36,0.25 -0.14,0.05 -0.3,0.08 -0.49,0.08 -0.19,0 -0.35,-0.02 -0.48,-0.08 -0.14,-0.05 -0.25,-0.12 -0.34,-0.22 -0.09,-0.09 -0.15,-0.21 -0.2,-0.35 -0.04,-0.15 -0.06,-0.31 -0.06,-0.49 0,-0.17 0.02,-0.33 0.07,-0.48 0.05,-0.14 0.12,-0.27 0.21,-0.37 0.09,-0.11 0.21,-0.19 0.35,-0.24 0.14,-0.06 0.31,-0.09 0.5,-0.09 0.18,0 0.34,0.03 0.48,0.08 0.13,0.05 0.25,0.12 0.33,0.22 0.09,0.09 0.16,0.21 0.2,0.35 0.04,0.14 0.07,0.31 0.07,0.49zm-0.6 0.02c0,-0.1 -0.01,-0.19 -0.02,-0.28 -0.02,-0.08 -0.05,-0.16 -0.09,-0.22 -0.04,-0.06 -0.09,-0.11 -0.15,-0.15 -0.06,-0.03 -0.15,-0.05 -0.24,-0.05 -0.09,0 -0.17,0.01 -0.23,0.05 -0.07,0.03 -0.12,0.07 -0.16,0.13 -0.04,0.07 -0.07,0.14 -0.09,0.22 -0.03,0.09 -0.04,0.19 -0.04,0.3 0,0.1 0.01,0.19 0.03,0.28 0.02,0.08 0.04,0.16 0.08,0.22 0.04,0.06 0.09,0.11 0.16,0.15 0.06,0.03 0.14,0.05 0.24,0.05 0.09,0 0.16,-0.02 0.23,-0.05 0.06,-0.03 0.12,-0.08 0.16,-0.14 0.04,-0.06 0.07,-0.13 0.09,-0.21 0.02,-0.09 0.03,-0.19 0.03,-0.3zm1.71 1.03c0,0.02 -0.01,0.03 -0.02,0.04 -0.01,0.01 -0.02,0.02 -0.05,0.03 -0.02,0.01 -0.05,0.01 -0.08,0.02 -0.04,0 -0.09,0 -0.15,0 -0.05,0 -0.1,0 -0.14,0 -0.03,-0.01 -0.06,-0.01 -0.08,-0.02 -0.03,-0.01 -0.04,-0.02 -0.05,-0.03 -0.01,-0.01 -0.02,-0.02 -0.02,-0.04l0 -3.03c0,-0.02 0.01,-0.03 0.02,-0.05 0.01,-0.01 0.02,-0.02 0.05,-0.03 0.02,-0.01 0.05,-0.01 0.08,-0.02 0.04,0 0.09,0 0.14,0 0.06,0 0.11,0 0.15,0 0.03,0.01 0.06,0.01 0.08,0.02 0.03,0.01 0.04,0.02 0.05,0.03 0.01,0.02 0.02,0.03 0.02,0.05l0 3.03zm2.59 0c0,0.02 0,0.03 -0.01,0.04 -0.01,0.01 -0.02,0.02 -0.04,0.03 -0.02,0.01 -0.04,0.01 -0.07,0.02 -0.04,0 -0.07,0 -0.12,0 -0.05,0 -0.09,0 -0.13,0 -0.03,-0.01 -0.05,-0.01 -0.07,-0.02 -0.02,-0.01 -0.03,-0.02 -0.04,-0.03 -0.01,-0.01 -0.01,-0.02 -0.01,-0.04l0 -0.24c-0.11,0.13 -0.23,0.22 -0.35,0.28 -0.12,0.06 -0.24,0.09 -0.37,0.09 -0.14,0 -0.26,-0.02 -0.35,-0.07 -0.1,-0.04 -0.18,-0.11 -0.24,-0.19 -0.05,-0.08 -0.1,-0.17 -0.12,-0.28 -0.03,-0.1 -0.04,-0.23 -0.04,-0.39l0 -1.26c0,-0.01 0,-0.03 0.01,-0.04 0.01,-0.01 0.03,-0.02 0.05,-0.03 0.02,-0.01 0.05,-0.01 0.09,-0.02 0.04,0 0.08,0 0.14,0 0.06,0 0.1,0 0.14,0 0.04,0.01 0.07,0.01 0.09,0.02 0.02,0.01 0.04,0.02 0.05,0.03 0.01,0.01 0.01,0.03 0.01,0.04l0 1.16c0,0.11 0.01,0.19 0.02,0.25 0.01,0.06 0.04,0.11 0.06,0.15 0.03,0.04 0.07,0.07 0.11,0.09 0.05,0.02 0.1,0.04 0.16,0.04 0.07,0 0.14,-0.03 0.22,-0.09 0.07,-0.05 0.15,-0.13 0.24,-0.23l0 -1.37c0,-0.01 0,-0.03 0.01,-0.04 0.01,-0.01 0.02,-0.02 0.05,-0.03 0.02,-0.01 0.05,-0.01 0.09,-0.02 0.03,0 0.08,0 0.14,0 0.05,0 0.1,0 0.14,0 0.03,0.01 0.06,0.01 0.08,0.02 0.03,0.01 0.04,0.02 0.05,0.03 0.01,0.01 0.01,0.03 0.01,0.04l0 2.06zm1.88 -0.2c0,0.07 -0.01,0.12 -0.02,0.15 -0.01,0.04 -0.02,0.07 -0.03,0.08 -0.01,0.01 -0.03,0.03 -0.06,0.04 -0.03,0.01 -0.06,0.02 -0.1,0.03 -0.03,0.01 -0.07,0.01 -0.11,0.02 -0.05,0 -0.09,0.01 -0.13,0.01 -0.12,0 -0.22,-0.02 -0.3,-0.05 -0.09,-0.03 -0.16,-0.07 -0.21,-0.13 -0.06,-0.06 -0.1,-0.14 -0.12,-0.23 -0.03,-0.09 -0.04,-0.2 -0.04,-0.33l0 -1.05 -0.25 0c-0.03,0 -0.06,-0.02 -0.07,-0.06 -0.02,-0.04 -0.02,-0.1 -0.02,-0.18 0,-0.05 0,-0.08 0,-0.11 0.01,-0.03 0.01,-0.06 0.02,-0.08 0.01,-0.02 0.02,-0.03 0.03,-0.04 0.01,0 0.02,-0.01 0.04,-0.01l0.25 0 0 -0.46c0,-0.01 0,-0.03 0.01,-0.04 0.01,-0.01 0.02,-0.02 0.05,-0.03 0.02,-0.01 0.05,-0.01 0.09,-0.02 0.03,0 0.08,0 0.14,0 0.05,0 0.1,0 0.14,0 0.04,0.01 0.06,0.01 0.09,0.02 0.02,0.01 0.03,0.02 0.04,0.03 0.01,0.01 0.02,0.03 0.02,0.04l0 0.46 0.44 0c0.02,0 0.03,0.01 0.04,0.01 0.02,0.01 0.03,0.02 0.03,0.04 0.01,0.02 0.02,0.05 0.02,0.08 0,0.03 0.01,0.06 0.01,0.11 0,0.08 -0.01,0.14 -0.03,0.18 -0.01,0.04 -0.04,0.06 -0.06,0.06l-0.45 0 0 0.96c0,0.12 0.01,0.2 0.05,0.26 0.03,0.05 0.1,0.08 0.19,0.08 0.03,0 0.06,0 0.08,-0.01 0.03,0 0.05,-0.01 0.07,-0.02 0.02,0 0.03,-0.01 0.05,-0.02 0.01,0 0.02,0 0.03,0 0.01,0 0.02,0 0.03,0 0.01,0.01 0.01,0.02 0.02,0.04 0,0.01 0.01,0.03 0.01,0.06 0,0.03 0.01,0.07 0.01,0.11zm1.06 0.2c0,0.02 0,0.03 -0.01,0.04 -0.01,0.01 -0.03,0.02 -0.05,0.03 -0.02,0.01 -0.05,0.01 -0.09,0.02 -0.03,0 -0.08,0 -0.14,0 -0.05,0 -0.1,0 -0.14,0 -0.03,-0.01 -0.06,-0.01 -0.09,-0.02 -0.02,-0.01 -0.04,-0.02 -0.04,-0.03 -0.01,-0.01 -0.02,-0.02 -0.02,-0.04l0 -2.05c0,-0.02 0.01,-0.03 0.02,-0.04 0,-0.02 0.02,-0.03 0.04,-0.03 0.03,-0.01 0.06,-0.02 0.09,-0.02 0.04,-0.01 0.09,-0.01 0.14,-0.01 0.06,0 0.11,0 0.14,0.01 0.04,0 0.07,0.01 0.09,0.02 0.02,0 0.04,0.01 0.05,0.03 0.01,0.01 0.01,0.02 0.01,0.04l0 2.05zm0.05 -2.76c0,0.12 -0.02,0.2 -0.07,0.24 -0.05,0.05 -0.14,0.07 -0.27,0.07 -0.13,0 -0.22,-0.02 -0.26,-0.06 -0.05,-0.05 -0.07,-0.12 -0.07,-0.24 0,-0.11 0.02,-0.19 0.07,-0.24 0.05,-0.05 0.14,-0.07 0.27,-0.07 0.13,0 0.22,0.02 0.26,0.07 0.05,0.04 0.07,0.12 0.07,0.23z"/>
    <path class="fil0" d="M66.92 88.03c0,0.18 -0.02,0.34 -0.07,0.48 -0.05,0.14 -0.12,0.27 -0.21,0.37 -0.09,0.11 -0.21,0.19 -0.35,0.25 -0.14,0.05 -0.31,0.08 -0.5,0.08 -0.18,0 -0.34,-0.02 -0.48,-0.08 -0.13,-0.05 -0.24,-0.12 -0.33,-0.22 -0.09,-0.09 -0.16,-0.21 -0.2,-0.35 -0.05,-0.15 -0.07,-0.31 -0.07,-0.49 0,-0.17 0.03,-0.33 0.07,-0.48 0.05,-0.14 0.12,-0.27 0.22,-0.37 0.09,-0.11 0.21,-0.19 0.35,-0.24 0.14,-0.06 0.3,-0.09 0.49,-0.09 0.19,0 0.35,0.03 0.48,0.08 0.14,0.05 0.25,0.12 0.34,0.22 0.09,0.09 0.15,0.21 0.19,0.35 0.05,0.14 0.07,0.31 0.07,0.49zm-0.6 0.02c0,-0.1 0,-0.19 -0.02,-0.28 -0.02,-0.08 -0.04,-0.16 -0.08,-0.22 -0.04,-0.06 -0.09,-0.11 -0.16,-0.15 -0.06,-0.03 -0.14,-0.05 -0.24,-0.05 -0.09,0 -0.16,0.01 -0.23,0.05 -0.06,0.03 -0.11,0.07 -0.16,0.13 -0.04,0.07 -0.07,0.14 -0.09,0.22 -0.02,0.09 -0.03,0.19 -0.03,0.3 0,0.1 0.01,0.19 0.02,0.28 0.02,0.08 0.05,0.16 0.09,0.22 0.03,0.06 0.09,0.11 0.15,0.15 0.07,0.03 0.15,0.05 0.24,0.05 0.09,0 0.17,-0.02 0.23,-0.05 0.07,-0.03 0.12,-0.08 0.16,-0.14 0.04,-0.06 0.07,-0.13 0.09,-0.21 0.02,-0.09 0.03,-0.19 0.03,-0.3zm3.09 1.03c0,0.02 0,0.03 -0.01,0.04 -0.01,0.01 -0.02,0.02 -0.05,0.03 -0.02,0.01 -0.05,0.01 -0.09,0.02 -0.03,0 -0.08,0 -0.14,0 -0.05,0 -0.1,0 -0.14,0 -0.03,-0.01 -0.06,-0.01 -0.09,-0.02 -0.02,-0.01 -0.03,-0.02 -0.04,-0.03 -0.01,-0.01 -0.02,-0.02 -0.02,-0.04l0 -1.17c0,-0.1 0,-0.18 -0.02,-0.24 -0.01,-0.06 -0.03,-0.1 -0.06,-0.14 -0.03,-0.05 -0.07,-0.08 -0.11,-0.1 -0.04,-0.02 -0.09,-0.03 -0.15,-0.03 -0.08,0 -0.15,0.02 -0.23,0.08 -0.07,0.05 -0.15,0.13 -0.23,0.23l0 1.37c0,0.02 0,0.03 -0.01,0.04 -0.01,0.01 -0.03,0.02 -0.05,0.03 -0.02,0.01 -0.05,0.01 -0.09,0.02 -0.04,0 -0.08,0 -0.14,0 -0.06,0 -0.1,0 -0.14,0 -0.04,-0.01 -0.07,-0.01 -0.09,-0.02 -0.02,-0.01 -0.04,-0.02 -0.05,-0.03 -0.01,-0.01 -0.01,-0.02 -0.01,-0.04l0 -2.06c0,-0.01 0,-0.03 0.01,-0.04 0.01,-0.01 0.02,-0.02 0.04,-0.03 0.02,-0.01 0.05,-0.01 0.08,-0.02 0.03,0 0.07,0 0.12,0 0.05,0 0.09,0 0.12,0 0.03,0.01 0.06,0.01 0.08,0.02 0.01,0.01 0.02,0.02 0.03,0.03 0.01,0.01 0.01,0.03 0.01,0.04l0 0.24c0.12,-0.12 0.23,-0.22 0.35,-0.28 0.12,-0.06 0.24,-0.09 0.37,-0.09 0.14,0 0.26,0.02 0.35,0.07 0.1,0.05 0.18,0.11 0.24,0.19 0.06,0.08 0.1,0.17 0.13,0.28 0.02,0.1 0.03,0.23 0.03,0.38l0 1.27z"/>
   </g>
   <path class="fil1" d="M36.5 13.47c11.9,0 21.55,9.65 21.55,21.55 0,11.91 -9.65,21.56 -21.55,21.56 -11.91,0 -21.56,-9.65 -21.56,-21.56 0,-11.9 9.65,-21.55 21.56,-21.55z"/>
   <path class="fil2" d="M36.5 10.53c13.52,0 24.49,10.97 24.49,24.49 0,13.53 -10.97,24.5 -24.49,24.5 -13.53,0 -24.5,-10.97 -24.5,-24.5 0,-13.52 10.97,-24.49 24.5,-24.49zm19.78 33.06c-5.2,-3.22 -4.37,-10.08 -0.69,-16.73 -11.15,1.95 -12.05,14.62 -20.12,21.31 -4.65,3.99 -9.07,6.37 -13.3,2.96 -4.44,-3.95 -7.23,-9.7 -7.23,-16.11 0,-11.9 9.65,-21.55 21.56,-21.55 11.9,0 21.55,9.65 21.55,21.55 0,3.05 -0.63,5.95 -1.77,8.57z"/>
   <path class="fil3" d="M48.13 28.06c-1.28,1.16 -2.37,2.53 -3.37,4.01l2.18 -17.73c1.25,-2.37 2.5,-4.74 3.75,-7.1 -0.85,6.94 -1.71,13.88 -2.56,20.82zm-13.45 8.06l9.04 -2.42c-0.63,1.01 -1.23,2.05 -1.84,3.1l-6.55 1.75 1.5 5.6c-0.6,0.65 -1.24,1.28 -1.94,1.85 -0.05,0.04 -0.09,0.08 -0.14,0.12l-2.5 -9.35 2.43 -0.65z"/>
   <path class="fil4" d="M22.86 11.47l2.3 -0.62 0.13 -0.04 0.77 2.88 0.67 2.49 4.87 18.16 0.65 2.43 -2.44 0.65 -6.93 1.86 -2.97 0.8 -1.64 -2.17 -9.97 -13.23 0 0 4.1 0.7 8.84 11.73 7.92 -2.12 -4.86 -18.16 -0.49 -1.81 -0.8 -2.98 -0.15 -0.57zm-16.79 10.25l0 0 4.56 1.31 0 0 -4.56 -1.31z"/>
   <path class="fil5" d="M41.61 34.26l-6.93 1.86 -2.43 0.65 -0.65 -2.43 -4.87 -18.16 -0.67 -2.49 -0.77 -2.88 2.44 -0.65 0.66 2.5 0.77 2.86 4.87 18.17 7.92 -2.12 1.79 -14.59 3.19 -2.65 0.01 0.01 -2.02 16.43 -0.16 1.3c-0.03,0.05 -0.06,0.1 -0.09,0.14l0 0c-0.08,0.12 -0.16,0.24 -0.24,0.36l0 0 -0.03 0.05 -0.01 0.02 -0.02 0.03 -0.03 0.04 -0.01 0.01 -0.03 0.05 -0.02 0.04 -0.01 0.01 -0.02 0.04 -0.01 0.01 -0.01 0.01 -0.06 0.09 -0.02 0.03 -0.01 0.03 -0.01 0c-0.14,0.22 -0.28,0.45 -0.41,0.67l-2.11 0.56zm2.49 -20.19l0 0 0.78 -0.82 -0.78 0.82z"/>
   <path class="fil6" d="M32.25 36.77l2.5 9.35c-0.72,0.62 -1.44,1.19 -2.15,1.71l-2.13 -7.97 -8.93 2.39 -2.97 0.8 -17.06 -22.63 6.79 4.26 11.61 15.4 9.9 -2.66 2.44 -0.65z"/>
   <polygon class="fil7" points="22.39,0 30.29,9.47 20.29,12.15 "/>
   <polygon class="fil8" points="23.77,5.14 30.29,9.47 20.29,12.15 "/>
   <polygon class="fil9" points="13.64,23.9 12.4,25.38 8.3,24.68 1.51,20.42 "/>
   <polygon class="fil10" points="41.92,16.32 43.74,16.98 46.94,14.32 50.69,7.24 "/>
   <path class="fil11" d="M11.7 63.7c-0.65,1.07 -1.12,2.05 -1.4,2.96 -0.19,-0.56 -0.35,-0.97 -0.5,-1.21 -0.36,-0.63 -1,-0.94 -1.91,-0.94 -0.2,0 -0.55,0.02 -1.04,0.06l0 10.28 1.35 1.1 -4.6 0 1.34 -1.1 0 -10.28c-0.49,-0.04 -0.84,-0.06 -1.04,-0.06 -0.91,0 -1.55,0.31 -1.91,0.94 -0.15,0.24 -0.31,0.65 -0.5,1.21 -0.29,-0.91 -0.76,-1.9 -1.4,-2.96l11.61 0zm0.23 1.23c0.47,-0.31 0.97,-0.57 1.49,-0.78 1.27,-0.5 2.54,-0.75 3.8,-0.75 0.66,0 1.29,0.1 1.91,0.29 0.61,0.19 1.13,0.44 1.55,0.77 0.74,0.59 1.12,1.31 1.12,2.17 0,0.75 -0.29,1.41 -0.86,1.99 -0.57,0.57 -1.35,0.98 -2.34,1.23 0.42,1.17 1.02,2.34 1.79,3.51 0.78,1.17 1.53,2.03 2.26,2.59 -1.17,0.37 -2.19,0.9 -3.07,1.59 -0.23,-1.43 -0.48,-2.64 -0.76,-3.64 -0.28,-1.01 -0.72,-2.25 -1.31,-3.73 -0.28,0.08 -0.68,0.17 -1.18,0.26 -0.5,0.09 -0.88,0.14 -1.15,0.17l0 4.25 1.35 1.1 -4.6 0 1.34 -1.1 0 -3.98c-0.67,0.05 -1.19,0.15 -1.57,0.29 0.21,-0.37 0.34,-0.75 0.41,-1.13 0.2,0.02 0.36,0.03 0.48,0.03 0.17,0 0.4,-0.02 0.68,-0.05l0 -4.35 -1.34 -0.73zm3.25 -0.07l0 5.01c1.17,-0.12 2.15,-0.39 2.94,-0.8 0.59,-0.3 1.02,-0.7 1.28,-1.19 0.21,-0.39 0.32,-0.8 0.32,-1.22 0,-0.79 -0.31,-1.42 -0.92,-1.89 -0.51,-0.38 -1.11,-0.58 -1.8,-0.58 -0.69,0 -1.3,0.22 -1.82,0.67zm7.71 -1.16l4.6 0 -1.34 1.11 0 10.04 1.34 1.1 -4.6 0 1.34 -1.1 0 -10.04 -1.34 -1.11zm5.57 0l4.13 0c1.84,0 3.2,0.35 4.08,1.06 1.31,1.04 1.97,2.69 1.97,4.94 0,2.52 -0.7,4.28 -2.1,5.28 -0.5,0.36 -1.05,0.61 -1.63,0.76 -0.58,0.14 -1.35,0.21 -2.32,0.21l-4.13 0 1.34 -1.1 0 -10.04 -1.34 -1.11zm3.26 0.87l0 10.52c0.53,0.05 0.9,0.07 1.12,0.07 1.23,0 2.15,-0.45 2.75,-1.36 0.65,-0.98 0.98,-2.36 0.98,-4.12 0,-1.47 -0.26,-2.66 -0.77,-3.57 -0.6,-1.07 -1.57,-1.6 -2.92,-1.6 -0.19,0 -0.58,0.02 -1.16,0.06zm18.1 -0.87c-0.48,0.59 -0.83,1.06 -1.03,1.42 -0.2,0.35 -0.43,0.86 -0.66,1.51 -0.06,-0.11 -0.1,-0.22 -0.15,-0.32 -0.21,-0.46 -0.41,-0.8 -0.58,-1.01 -0.17,-0.21 -0.38,-0.38 -0.65,-0.5 -0.42,-0.2 -1.06,-0.29 -1.94,-0.29 -0.59,0 -1.19,0.02 -1.82,0.06l0 4.4 2.61 0 1.21 -1.47 0 3.75 -1.21 -1.47 -2.61 0 0 5.32c0.59,0.04 1.01,0.06 1.25,0.06 1.35,0 2.31,-0.19 2.91,-0.58 0.42,-0.29 0.88,-0.87 1.36,-1.76 0.16,0.68 0.36,1.24 0.61,1.68 0.26,0.43 0.67,0.91 1.22,1.45l-10.6 0 1.34 -1.09 0 -5.08c-0.78,-0.02 -1.44,0.2 -2,0.68 0.26,-0.99 0.93,-1.48 2,-1.49l0 -4.16 -1.34 -1.11 10.08 0zm9.17 9.92l0 -6.37c0,-1.13 -0.14,-1.95 -0.42,-2.45 -0.27,-0.5 -0.78,-0.87 -1.54,-1.1l4.69 0c-0.76,0.23 -1.27,0.6 -1.55,1.09 -0.27,0.5 -0.41,1.32 -0.41,2.46l0 8.7 -1.54 0 -5.28 -10.22 0 6.68c0,1.14 0.14,1.95 0.42,2.45 0.27,0.5 0.78,0.86 1.54,1.09l-4.69 0c0.76,-0.24 1.27,-0.6 1.55,-1.1 0.27,-0.5 0.41,-1.31 0.41,-2.44l0 -7.6 -1.34 -1.11 4.95 0 -1.35 1.11 4.56 8.81zm13.92 -9.92c-0.65,1.07 -1.12,2.05 -1.4,2.96 -0.19,-0.56 -0.35,-0.97 -0.5,-1.21 -0.36,-0.63 -1,-0.94 -1.91,-0.94 -0.2,0 -0.55,0.02 -1.04,0.06l0 10.28 1.35 1.1 -4.6 0 1.34 -1.1 0 -10.28c-0.49,-0.04 -0.84,-0.06 -1.04,-0.06 -0.91,0 -1.55,0.31 -1.91,0.94 -0.15,0.24 -0.31,0.65 -0.49,1.21 -0.3,-0.91 -0.77,-1.9 -1.41,-2.96l11.61 0z"/>
   <path class="fil11" d="M24.93 79.28c-0.08,0.12 -0.19,0.3 -0.31,0.55 -0.13,0.25 -0.24,0.5 -0.34,0.74 -0.05,-0.22 -0.1,-0.4 -0.17,-0.53 -0.09,-0.18 -0.23,-0.32 -0.42,-0.43 -0.19,-0.12 -0.4,-0.17 -0.62,-0.17 -0.28,0 -0.51,0.08 -0.69,0.25 -0.16,0.15 -0.24,0.34 -0.24,0.57 0,0.32 0.15,0.55 0.47,0.7 0.12,0.06 0.22,0.1 0.32,0.13 0.09,0.02 0.37,0.09 0.82,0.2 0.47,0.11 0.81,0.28 1.02,0.51 0.24,0.27 0.36,0.58 0.36,0.94 0,0.4 -0.15,0.74 -0.44,1.02 -0.33,0.34 -0.77,0.5 -1.3,0.5 -0.17,0 -0.34,-0.01 -0.52,-0.05 -0.17,-0.04 -0.45,-0.11 -0.82,-0.22 -0.17,-0.05 -0.3,-0.08 -0.41,-0.08 -0.14,0 -0.33,0.08 -0.57,0.23 0.13,-0.2 0.27,-0.45 0.41,-0.76 0.15,-0.3 0.25,-0.55 0.3,-0.73 0.07,0.29 0.14,0.5 0.21,0.63 0.12,0.2 0.29,0.35 0.52,0.47 0.25,0.13 0.55,0.2 0.88,0.2 0.34,0 0.6,-0.08 0.79,-0.23 0.21,-0.17 0.32,-0.39 0.32,-0.66 0,-0.16 -0.05,-0.32 -0.14,-0.46 -0.09,-0.15 -0.22,-0.27 -0.38,-0.36 -0.12,-0.07 -0.26,-0.13 -0.41,-0.17 -0.15,-0.05 -0.39,-0.11 -0.74,-0.17 -0.48,-0.1 -0.82,-0.24 -1.02,-0.45 -0.23,-0.24 -0.35,-0.54 -0.35,-0.92 0,-0.45 0.17,-0.81 0.49,-1.07 0.28,-0.23 0.64,-0.34 1.06,-0.34 0.31,0 0.66,0.06 1.06,0.19 0.18,0.05 0.32,0.08 0.4,0.08 0.11,0 0.26,-0.03 0.46,-0.11zm0.52 -0.04l1.83 0 -0.53 0.44 0 1.74c0.28,0.08 0.63,0.12 1.04,0.12 0.23,0 0.44,-0.02 0.63,-0.05l0 -1.81 -0.53 -0.44 1.84 0 -0.54 0.44 0 4.02 0.54 0.44 -1.84 0 0.53 -0.44 0 -1.87c-0.23,0.04 -0.47,0.05 -0.72,0.05 -0.39,0 -0.7,-0.03 -0.95,-0.09l0 1.91 0.53 0.44 -1.83 0 0.53 -0.44 0 -1.91c-0.14,0 -0.27,0.02 -0.4,0.08 -0.12,0.06 -0.22,0.14 -0.3,0.24 0.13,-0.38 0.36,-0.61 0.7,-0.68l0 -1.75 -0.53 -0.44zm4.67 0l1.84 0 -0.54 0.44 0 4.02 0.54 0.44 -1.84 0 0.54 -0.44 0 -4.02 -0.54 -0.44zm2.23 0l1.77 0c0.73,0 1.25,0.1 1.56,0.3 0.39,0.25 0.58,0.6 0.58,1.05 0,0.29 -0.08,0.54 -0.26,0.76 -0.29,0.37 -0.89,0.56 -1.78,0.56 -0.12,0 -0.31,-0.01 -0.57,-0.02l0 1.81 0.54 0.44 -1.84 0 0.54 -0.44 0 -1.87c-0.04,0 -0.08,0 -0.12,0 -0.22,0 -0.45,0.04 -0.69,0.14 0.16,-0.33 0.43,-0.49 0.81,-0.48l0 -1.81 -0.54 -0.44zm1.3 0.34l0 1.97c0.15,0.01 0.29,0.02 0.42,0.02 0.35,0 0.65,-0.06 0.88,-0.16 0.17,-0.08 0.29,-0.18 0.37,-0.31 0.07,-0.13 0.11,-0.3 0.11,-0.51 0,-0.18 -0.04,-0.35 -0.11,-0.5 -0.07,-0.14 -0.17,-0.26 -0.3,-0.34 -0.21,-0.13 -0.48,-0.19 -0.82,-0.19 -0.14,0 -0.33,0.01 -0.55,0.02zm2.9 -0.34l1.77 0c0.73,0 1.25,0.1 1.56,0.3 0.39,0.25 0.58,0.6 0.58,1.05 0,0.29 -0.08,0.54 -0.25,0.76 -0.3,0.37 -0.89,0.56 -1.78,0.56 -0.13,0 -0.32,-0.01 -0.58,-0.02l0 1.81 0.54 0.44 -1.84 0 0.54 -0.44 0 -1.87c-0.04,0 -0.08,0 -0.12,0 -0.21,0 -0.44,0.04 -0.69,0.14 0.16,-0.33 0.43,-0.49 0.81,-0.48l0 -1.81 -0.54 -0.44zm1.3 0.34l0 1.97c0.15,0.01 0.29,0.02 0.43,0.02 0.35,0 0.64,-0.06 0.87,-0.16 0.17,-0.08 0.29,-0.18 0.37,-0.31 0.07,-0.13 0.11,-0.3 0.11,-0.51 0,-0.18 -0.03,-0.35 -0.11,-0.5 -0.07,-0.14 -0.17,-0.26 -0.3,-0.34 -0.21,-0.13 -0.48,-0.19 -0.82,-0.19 -0.14,0 -0.33,0.01 -0.55,0.02zm2.9 -0.34l1.85 0 -0.54 0.44 0 4.02 0.54 0.44 -1.85 0 0.54 -0.44 0 -4.02 -0.54 -0.44zm5.5 3.97l0 -2.55c0,-0.46 -0.06,-0.78 -0.17,-0.98 -0.11,-0.2 -0.31,-0.35 -0.61,-0.44l1.87 0c-0.3,0.09 -0.51,0.24 -0.62,0.44 -0.11,0.2 -0.16,0.52 -0.16,0.98l0 3.48 -0.62 0 -2.11 -4.09 0 2.67c0,0.46 0.05,0.78 0.16,0.98 0.12,0.2 0.32,0.35 0.62,0.44l-1.87 0c0.3,-0.1 0.51,-0.24 0.62,-0.44 0.11,-0.2 0.16,-0.53 0.16,-0.98l0 -3.04 -0.54 -0.44 1.98 0 -0.53 0.44 1.82 3.53zm5.37 -3.92l-0.72 1.41c-0.04,-0.32 -0.11,-0.57 -0.24,-0.77 -0.09,-0.15 -0.22,-0.26 -0.37,-0.35 -0.18,-0.1 -0.39,-0.15 -0.61,-0.15 -0.41,0 -0.74,0.15 -1.01,0.44 -0.18,0.2 -0.31,0.41 -0.38,0.65 -0.09,0.33 -0.14,0.69 -0.14,1.09 0,1.47 0.61,2.21 1.83,2.21 0.12,0 0.33,-0.01 0.64,-0.02l0 -1.89 -1.06 0c-0.53,0 -0.79,-0.17 -0.79,-0.51 0,-0.12 0.03,-0.21 0.1,-0.29 0.07,-0.08 0.16,-0.12 0.26,-0.12 0.08,0 0.14,0.03 0.19,0.07 0.05,0.05 0.07,0.11 0.07,0.18 0,0.06 -0.01,0.11 -0.04,0.14 -0.03,0.03 -0.09,0.05 -0.17,0.07 -0.03,0 -0.05,0.02 -0.05,0.05 0,0.06 0.08,0.09 0.26,0.09l2.53 0 -0.54 0.44 0 1.67 0.54 0.44 -1.81 0c-0.41,0 -0.72,-0.01 -0.91,-0.04 -0.19,-0.02 -0.36,-0.06 -0.52,-0.13 -0.47,-0.21 -0.82,-0.55 -1.07,-1.02 -0.19,-0.39 -0.29,-0.83 -0.29,-1.31 0,-0.46 0.09,-0.88 0.27,-1.27 0.2,-0.44 0.52,-0.78 0.95,-1 0.33,-0.17 0.67,-0.26 1.01,-0.26 0.26,0 0.56,0.05 0.9,0.15 0.25,0.08 0.4,0.12 0.47,0.13 0.06,0.02 0.13,0.02 0.21,0.02 0.16,0 0.33,-0.04 0.49,-0.12z"/>
   <path class="fil12" d="M3.86 81.37l15.75 0c0.17,0 0.31,0.14 0.31,0.32l0 0c0,0.17 -0.14,0.31 -0.31,0.31l-15.75 0c-0.18,0 -0.32,-0.14 -0.32,-0.31l0 0c0,-0.18 0.14,-0.32 0.32,-0.32z"/>
   <path class="fil12" d="M53.29 81.37l15.75 0c0.17,0 0.32,0.14 0.32,0.32l0 0c0,0.17 -0.15,0.31 -0.32,0.31l-15.75 0c-0.17,0 -0.31,-0.14 -0.31,-0.31l0 0c0,-0.18 0.14,-0.32 0.31,-0.32z"/>
  </g>
 </g>
</svg>
