<?xml version="1.0" encoding="UTF-8"?>
<!DOCTYPE svg PUBLIC "-//W3C//DTD SVG 1.1//EN" "http://www.w3.org/Graphics/SVG/1.1/DTD/svg11.dtd">
<!-- Creator: CorelDRAW 2019 (64-Bit) -->
<svg xmlns="http://www.w3.org/2000/svg" xml:space="preserve" width="65px" height="80px" version="1.1" style="shape-rendering:geometricPrecision; text-rendering:geometricPrecision; image-rendering:optimizeQuality; fill-rule:evenodd; clip-rule:evenodd"
viewBox="0 0 65 80"
 xmlns:xlink="http://www.w3.org/1999/xlink"
 xmlns:xodm="http://www.corel.com/coreldraw/odm/2003">
 <defs>
  <style type="text/css">
   <![CDATA[
    .fil8 {fill:#D9DADA}
    .fil12 {fill:#1394F0}
    .fil1 {fill:#213768}
    .fil0 {fill:#1394F0;fill-rule:nonzero}
    .fil11 {fill:#213768;fill-rule:nonzero}
    .fil2 {fill:url(#id0)}
    .fil9 {fill:url(#id1)}
    .fil6 {fill:url(#id2)}
    .fil10 {fill:url(#id3)}
    .fil5 {fill:url(#id4)}
    .fil7 {fill:url(#id5)}
    .fil3 {fill:url(#id6)}
    .fil4 {fill:url(#id7)}
   ]]>
  </style>
  <linearGradient id="id0" gradientUnits="userSpaceOnUse" x1="10.72" y1="31.13" x2="54.27" y2="31.13">
   <stop offset="0" style="stop-opacity:1; stop-color:#0A6CF1"/>
   <stop offset="1" style="stop-opacity:1; stop-color:#2BFBEE"/>
  </linearGradient>
  <radialGradient id="id1" gradientUnits="userSpaceOnUse" gradientTransform="matrix(1.08455 -0 -0 1.08455 -1 -2)" cx="6.79" cy="20.35" r="5.39" fx="6.79" fy="20.35">
   <stop offset="0" style="stop-opacity:1; stop-color:#FEFEFE"/>
   <stop offset="1" style="stop-opacity:1; stop-color:#C5C6C6"/>
  </radialGradient>
  <radialGradient id="id2" gradientUnits="userSpaceOnUse" gradientTransform="matrix(1.29969 -5.49361E-16 5.49361E-16 1.29969 -5 -9)" xlink:href="#id1" cx="16.17" cy="30.33" r="14.78" fx="16.17" fy="30.33">
  </radialGradient>
  <radialGradient id="id3" gradientUnits="userSpaceOnUse" gradientTransform="matrix(1.35002 8.88313E-16 -5.88459E-16 1.34982 -14 -4)" xlink:href="#id1" cx="41.22" cy="10.76" r="4.33" fx="41.22" fy="10.76">
  </radialGradient>
  <radialGradient id="id4" gradientUnits="userSpaceOnUse" gradientTransform="matrix(2.49594 4.44094E-16 -4.44089E-16 2.49592 -62 -47)" xlink:href="#id1" cx="41.4" cy="31.74" r="11.83" fx="41.4" fy="31.74">
  </radialGradient>
  <radialGradient id="id5" gradientUnits="userSpaceOnUse" gradientTransform="matrix(1.74726 -0 -0 1.74734 -15 -3)" cx="20.31" cy="4.1" r="48.25" fx="20.31" fy="4.1">
   <stop offset="0" style="stop-opacity:1; stop-color:#FEFEFE"/>
   <stop offset="0.560784" style="stop-opacity:1; stop-color:#E1E2E2"/>
   <stop offset="1" style="stop-opacity:1; stop-color:#C5C6C6"/>
  </radialGradient>
  <radialGradient id="id6" gradientUnits="userSpaceOnUse" gradientTransform="matrix(1.52373 -3.33067E-16 3.33067E-16 1.52373 -19 -16)" xlink:href="#id1" cx="36.75" cy="31.32" r="17.28" fx="36.75" fy="31.32">
  </radialGradient>
  <radialGradient id="id7" gradientUnits="userSpaceOnUse" gradientTransform="matrix(2.67396 5.55086E-17 -5.55112E-17 2.67408 -9 -59)" xlink:href="#id1" cx="5.45" cy="35.37" r="13.01" fx="5.45" fy="35.37">
  </radialGradient>
 </defs>
 <g id="Layer_x0020_1">
  <metadata id="CorelCorpID_0Corel-Layer"/>
  <g id="_3001760953024">
   <g>
    <path class="fil0" d="M4.73 78.25l0 0.93c0,0.01 0,0.03 -0.01,0.04 -0.01,0.01 -0.03,0.02 -0.05,0.02 -0.02,0.01 -0.04,0.02 -0.08,0.02 -0.03,0 -0.08,0.01 -0.13,0.01 -0.05,0 -0.1,-0.01 -0.13,-0.01 -0.03,0 -0.06,-0.01 -0.08,-0.02 -0.03,0 -0.04,-0.01 -0.05,-0.02 -0.01,-0.01 -0.01,-0.03 -0.01,-0.04l0 -0.93 -0.73 -1.45c-0.02,-0.05 -0.04,-0.09 -0.05,-0.12 0,-0.03 0,-0.05 0.02,-0.06 0.01,-0.02 0.04,-0.02 0.08,-0.03 0.04,0 0.1,0 0.18,0 0.06,0 0.11,0 0.15,0 0.04,0 0.07,0.01 0.09,0.02 0.02,0 0.04,0.01 0.05,0.03 0.01,0.01 0.02,0.02 0.03,0.04l0.29 0.66c0.03,0.06 0.06,0.13 0.09,0.19 0.03,0.07 0.05,0.15 0.08,0.22l0.01 0c0.02,-0.07 0.05,-0.14 0.08,-0.21 0.03,-0.07 0.05,-0.14 0.08,-0.2l0.29 -0.65c0.01,-0.02 0.01,-0.04 0.02,-0.05 0.01,-0.01 0.03,-0.02 0.05,-0.03 0.02,-0.01 0.05,-0.02 0.08,-0.02 0.04,0 0.09,0 0.15,0 0.07,0 0.13,0 0.18,0 0.04,0.01 0.07,0.01 0.09,0.03 0.01,0.01 0.02,0.03 0.01,0.06 -0.01,0.03 -0.03,0.07 -0.05,0.12l-0.73 1.45zm2.65 0c0,0.16 -0.02,0.3 -0.06,0.43 -0.04,0.13 -0.1,0.23 -0.18,0.33 -0.09,0.09 -0.19,0.16 -0.32,0.21 -0.13,0.05 -0.27,0.08 -0.44,0.08 -0.16,0 -0.3,-0.02 -0.42,-0.07 -0.13,-0.04 -0.23,-0.11 -0.3,-0.19 -0.08,-0.09 -0.14,-0.2 -0.18,-0.32 -0.04,-0.13 -0.06,-0.27 -0.06,-0.43 0,-0.16 0.02,-0.3 0.06,-0.43 0.05,-0.13 0.11,-0.24 0.19,-0.33 0.09,-0.09 0.19,-0.17 0.32,-0.22 0.12,-0.05 0.27,-0.07 0.44,-0.07 0.16,0 0.3,0.02 0.42,0.06 0.12,0.05 0.22,0.11 0.3,0.2 0.08,0.09 0.14,0.19 0.18,0.32 0.03,0.12 0.05,0.27 0.05,0.43zm-0.53 0.02c0,-0.09 0,-0.17 -0.02,-0.25 -0.01,-0.07 -0.04,-0.14 -0.07,-0.2 -0.04,-0.05 -0.08,-0.1 -0.14,-0.13 -0.06,-0.03 -0.13,-0.04 -0.21,-0.04 -0.08,0 -0.15,0.01 -0.21,0.04 -0.05,0.02 -0.1,0.07 -0.14,0.12 -0.04,0.05 -0.06,0.12 -0.08,0.19 -0.02,0.08 -0.03,0.17 -0.03,0.26 0,0.1 0.01,0.18 0.02,0.25 0.02,0.08 0.04,0.15 0.08,0.2 0.03,0.06 0.08,0.1 0.13,0.13 0.06,0.03 0.13,0.05 0.22,0.05 0.08,0 0.14,-0.02 0.2,-0.04 0.06,-0.03 0.11,-0.07 0.15,-0.13 0.03,-0.05 0.06,-0.11 0.08,-0.19 0.01,-0.08 0.02,-0.16 0.02,-0.26zm2.74 0.91c0,0.02 -0.01,0.03 -0.01,0.04 -0.01,0.01 -0.02,0.02 -0.04,0.03 -0.02,0 -0.04,0.01 -0.07,0.01 -0.02,0 -0.06,0.01 -0.1,0.01 -0.05,0 -0.08,-0.01 -0.11,-0.01 -0.03,0 -0.05,-0.01 -0.07,-0.01 -0.01,-0.01 -0.03,-0.02 -0.03,-0.03 -0.01,-0.01 -0.01,-0.02 -0.01,-0.04l0 -0.21c-0.1,0.11 -0.21,0.19 -0.31,0.25 -0.11,0.05 -0.22,0.08 -0.33,0.08 -0.12,0 -0.23,-0.02 -0.31,-0.06 -0.09,-0.04 -0.16,-0.1 -0.21,-0.17 -0.05,-0.07 -0.09,-0.15 -0.12,-0.25 -0.02,-0.09 -0.03,-0.21 -0.03,-0.35l0 -1.12c0,-0.01 0.01,-0.02 0.01,-0.03 0.01,-0.01 0.02,-0.02 0.04,-0.03 0.02,-0.01 0.05,-0.01 0.08,-0.01 0.04,-0.01 0.08,-0.01 0.13,-0.01 0.05,0 0.09,0 0.12,0.01 0.04,0 0.06,0 0.08,0.01 0.02,0.01 0.04,0.02 0.04,0.03 0.01,0.01 0.02,0.02 0.02,0.03l0 1.04c0,0.09 0,0.17 0.02,0.22 0.01,0.05 0.03,0.09 0.05,0.13 0.03,0.03 0.06,0.06 0.1,0.08 0.04,0.02 0.08,0.03 0.14,0.03 0.06,0 0.13,-0.02 0.19,-0.07 0.07,-0.05 0.14,-0.12 0.22,-0.21l0 -1.22c0,-0.01 0,-0.02 0.01,-0.03 0,-0.01 0.02,-0.02 0.04,-0.03 0.02,-0.01 0.05,-0.01 0.08,-0.01 0.03,-0.01 0.07,-0.01 0.12,-0.01 0.05,0 0.09,0 0.13,0.01 0.03,0 0.06,0 0.08,0.01 0.01,0.01 0.03,0.02 0.04,0.03 0,0.01 0.01,0.02 0.01,0.03l0 1.83zm1.75 -1.66c0,0.05 0,0.09 0,0.13 0,0.03 -0.01,0.05 -0.01,0.07 -0.01,0.02 -0.02,0.03 -0.02,0.04 -0.01,0 -0.02,0.01 -0.04,0.01 -0.01,0 -0.02,-0.01 -0.04,-0.01 -0.01,-0.01 -0.02,-0.01 -0.04,-0.02 -0.02,0 -0.04,-0.01 -0.06,-0.01 -0.02,-0.01 -0.04,-0.01 -0.07,-0.01 -0.02,0 -0.05,0.01 -0.08,0.02 -0.03,0.01 -0.06,0.03 -0.09,0.05 -0.03,0.03 -0.06,0.06 -0.1,0.1 -0.03,0.04 -0.07,0.09 -0.11,0.15l0 1.14c0,0.02 0,0.03 -0.01,0.04 -0.01,0.01 -0.02,0.02 -0.04,0.03 -0.02,0 -0.05,0.01 -0.08,0.01 -0.03,0 -0.07,0.01 -0.12,0.01 -0.05,0 -0.1,-0.01 -0.13,-0.01 -0.03,0 -0.06,-0.01 -0.08,-0.01 -0.02,-0.01 -0.03,-0.02 -0.04,-0.03 -0.01,-0.01 -0.01,-0.02 -0.01,-0.04l0 -1.83c0,-0.01 0,-0.02 0.01,-0.03 0,-0.01 0.02,-0.02 0.03,-0.03 0.02,-0.01 0.05,-0.01 0.07,-0.01 0.03,-0.01 0.07,-0.01 0.11,-0.01 0.04,0 0.08,0 0.11,0.01 0.03,0 0.05,0 0.07,0.01 0.01,0.01 0.02,0.02 0.03,0.03 0.01,0.01 0.01,0.02 0.01,0.03l0 0.23c0.05,-0.07 0.09,-0.12 0.13,-0.17 0.05,-0.04 0.09,-0.08 0.13,-0.1 0.03,-0.03 0.07,-0.05 0.11,-0.06 0.04,-0.01 0.08,-0.01 0.12,-0.01 0.01,0 0.03,0 0.05,0 0.02,0 0.04,0.01 0.07,0.01 0.02,0.01 0.04,0.01 0.05,0.02 0.02,0 0.03,0.01 0.04,0.02 0.01,0 0.01,0.01 0.02,0.02 0,0.01 0,0.02 0.01,0.03 0,0.02 0,0.04 0,0.07 0,0.03 0,0.07 0,0.11zm2.94 0.94c0,0.14 -0.03,0.26 -0.08,0.36 -0.06,0.11 -0.13,0.2 -0.21,0.27 -0.09,0.07 -0.2,0.12 -0.32,0.16 -0.12,0.03 -0.24,0.05 -0.38,0.05 -0.09,0 -0.17,-0.01 -0.25,-0.02 -0.08,-0.02 -0.15,-0.04 -0.21,-0.06 -0.06,-0.02 -0.11,-0.04 -0.15,-0.07 -0.04,-0.02 -0.07,-0.04 -0.09,-0.06 -0.02,-0.02 -0.03,-0.04 -0.04,-0.08 -0.01,-0.03 -0.01,-0.08 -0.01,-0.14 0,-0.04 0,-0.08 0,-0.11 0.01,-0.02 0.01,-0.05 0.02,-0.07 0,-0.01 0.01,-0.03 0.02,-0.03 0.01,-0.01 0.03,-0.02 0.04,-0.02 0.02,0 0.04,0.02 0.08,0.04 0.03,0.02 0.08,0.05 0.13,0.07 0.06,0.03 0.12,0.06 0.2,0.08 0.08,0.02 0.16,0.03 0.26,0.03 0.07,0 0.13,-0.01 0.18,-0.02 0.05,-0.02 0.1,-0.04 0.13,-0.07 0.04,-0.03 0.07,-0.06 0.09,-0.1 0.02,-0.04 0.03,-0.09 0.03,-0.14 0,-0.06 -0.02,-0.11 -0.05,-0.16 -0.04,-0.04 -0.08,-0.08 -0.13,-0.11 -0.05,-0.04 -0.11,-0.07 -0.18,-0.1 -0.07,-0.03 -0.14,-0.06 -0.21,-0.09 -0.07,-0.03 -0.14,-0.07 -0.21,-0.11 -0.06,-0.04 -0.12,-0.09 -0.18,-0.15 -0.05,-0.06 -0.09,-0.13 -0.12,-0.21 -0.04,-0.08 -0.05,-0.17 -0.05,-0.28 0,-0.13 0.02,-0.24 0.07,-0.34 0.04,-0.09 0.11,-0.17 0.19,-0.24 0.08,-0.06 0.17,-0.11 0.28,-0.14 0.11,-0.03 0.22,-0.05 0.35,-0.05 0.06,0 0.12,0.01 0.18,0.02 0.07,0.01 0.13,0.02 0.18,0.04 0.05,0.01 0.1,0.03 0.15,0.05 0.04,0.02 0.07,0.04 0.08,0.05 0.01,0.02 0.02,0.03 0.03,0.04 0,0.01 0.01,0.02 0.01,0.04 0,0.01 0.01,0.03 0.01,0.06 0,0.02 0,0.05 0,0.08 0,0.04 0,0.08 0,0.1 -0.01,0.03 -0.01,0.05 -0.01,0.07 -0.01,0.02 -0.02,0.03 -0.03,0.04 0,0.01 -0.02,0.01 -0.03,0.01 -0.02,0 -0.04,-0.01 -0.07,-0.02 -0.04,-0.02 -0.08,-0.04 -0.12,-0.07 -0.05,-0.02 -0.11,-0.04 -0.17,-0.06 -0.06,-0.02 -0.13,-0.03 -0.21,-0.03 -0.06,0 -0.11,0.01 -0.15,0.02 -0.04,0.02 -0.08,0.04 -0.11,0.06 -0.03,0.03 -0.05,0.06 -0.07,0.1 -0.01,0.03 -0.02,0.07 -0.02,0.11 0,0.06 0.02,0.11 0.05,0.15 0.03,0.04 0.08,0.08 0.13,0.12 0.05,0.03 0.12,0.06 0.18,0.09 0.07,0.03 0.14,0.06 0.21,0.09 0.07,0.04 0.15,0.07 0.21,0.11 0.07,0.05 0.13,0.1 0.19,0.15 0.05,0.06 0.09,0.13 0.13,0.21 0.03,0.08 0.05,0.17 0.05,0.28zm2.18 0.72c0,0.02 0,0.03 -0.01,0.04 -0.01,0.01 -0.02,0.02 -0.04,0.03 -0.02,0 -0.05,0.01 -0.08,0.01 -0.03,0 -0.08,0.01 -0.12,0.01 -0.06,0 -0.1,-0.01 -0.13,-0.01 -0.03,0 -0.06,-0.01 -0.08,-0.01 -0.02,-0.01 -0.03,-0.02 -0.04,-0.03 -0.01,-0.01 -0.01,-0.02 -0.01,-0.04l0 -1.04c0,-0.09 -0.01,-0.16 -0.02,-0.21 -0.02,-0.05 -0.04,-0.09 -0.06,-0.13 -0.02,-0.04 -0.06,-0.06 -0.09,-0.08 -0.04,-0.02 -0.09,-0.03 -0.14,-0.03 -0.07,0 -0.13,0.02 -0.2,0.07 -0.07,0.05 -0.14,0.12 -0.21,0.21l0 1.21c0,0.02 0,0.03 -0.01,0.04 -0.01,0.01 -0.02,0.02 -0.04,0.03 -0.02,0 -0.05,0.01 -0.08,0.01 -0.03,0 -0.08,0.01 -0.13,0.01 -0.05,0 -0.09,-0.01 -0.12,-0.01 -0.03,0 -0.06,-0.01 -0.08,-0.01 -0.02,-0.01 -0.03,-0.02 -0.04,-0.03 -0.01,-0.01 -0.01,-0.02 -0.01,-0.04l0 -2.69c0,-0.02 0,-0.03 0.01,-0.04 0.01,-0.01 0.02,-0.02 0.04,-0.03 0.02,-0.01 0.05,-0.01 0.08,-0.02 0.03,0 0.07,0 0.12,0 0.05,0 0.1,0 0.13,0 0.03,0.01 0.06,0.01 0.08,0.02 0.02,0.01 0.03,0.02 0.04,0.03 0.01,0.01 0.01,0.02 0.01,0.04l0 1.01c0.09,-0.09 0.18,-0.15 0.27,-0.2 0.1,-0.04 0.19,-0.06 0.29,-0.06 0.13,0 0.23,0.02 0.32,0.06 0.08,0.04 0.15,0.1 0.2,0.17 0.06,0.07 0.09,0.15 0.12,0.25 0.02,0.09 0.03,0.21 0.03,0.34l0 1.12zm1.09 0c0,0.02 -0.01,0.03 -0.02,0.04 0,0.01 -0.02,0.02 -0.04,0.03 -0.02,0 -0.04,0.01 -0.08,0.01 -0.03,0 -0.07,0.01 -0.12,0.01 -0.05,0 -0.09,-0.01 -0.13,-0.01 -0.03,0 -0.06,-0.01 -0.08,-0.01 -0.02,-0.01 -0.03,-0.02 -0.04,-0.03 -0.01,-0.01 -0.01,-0.02 -0.01,-0.04l0 -1.82c0,-0.02 0,-0.03 0.01,-0.04 0.01,-0.01 0.02,-0.02 0.04,-0.02 0.02,-0.01 0.05,-0.02 0.08,-0.02 0.04,-0.01 0.08,-0.01 0.13,-0.01 0.05,0 0.09,0 0.12,0.01 0.04,0 0.06,0.01 0.08,0.02 0.02,0 0.04,0.01 0.04,0.02 0.01,0.01 0.02,0.02 0.02,0.04l0 1.82zm0.04 -2.45c0,0.11 -0.02,0.18 -0.07,0.22 -0.04,0.04 -0.12,0.06 -0.23,0.06 -0.12,0 -0.2,-0.02 -0.24,-0.06 -0.04,-0.04 -0.06,-0.11 -0.06,-0.21 0,-0.1 0.02,-0.17 0.07,-0.21 0.04,-0.04 0.11,-0.06 0.23,-0.06 0.12,0 0.2,0.01 0.24,0.05 0.04,0.04 0.06,0.11 0.06,0.21zm2.37 1.51c0,0.16 -0.02,0.31 -0.05,0.44 -0.04,0.13 -0.09,0.24 -0.15,0.34 -0.07,0.09 -0.15,0.16 -0.25,0.21 -0.1,0.05 -0.22,0.07 -0.34,0.07 -0.06,0 -0.11,0 -0.15,-0.02 -0.05,-0.01 -0.09,-0.02 -0.13,-0.04 -0.04,-0.02 -0.08,-0.05 -0.13,-0.08 -0.04,-0.03 -0.08,-0.07 -0.12,-0.11l0 0.86c0,0.01 -0.01,0.02 -0.01,0.04 -0.01,0.01 -0.03,0.02 -0.05,0.02 -0.02,0.01 -0.04,0.02 -0.08,0.02 -0.03,0 -0.07,0.01 -0.12,0.01 -0.05,0 -0.09,-0.01 -0.13,-0.01 -0.03,0 -0.05,-0.01 -0.07,-0.02 -0.02,0 -0.04,-0.01 -0.05,-0.02 0,-0.02 -0.01,-0.03 -0.01,-0.04l0 -2.56c0,-0.01 0.01,-0.02 0.01,-0.03 0.01,-0.01 0.02,-0.02 0.04,-0.03 0.01,-0.01 0.04,-0.01 0.07,-0.01 0.02,-0.01 0.06,-0.01 0.1,-0.01 0.04,0 0.08,0 0.1,0.01 0.03,0 0.06,0 0.07,0.01 0.02,0.01 0.03,0.02 0.04,0.03 0.01,0.01 0.01,0.02 0.01,0.03l0 0.22c0.05,-0.05 0.1,-0.1 0.16,-0.14 0.05,-0.05 0.1,-0.08 0.15,-0.11 0.06,-0.03 0.11,-0.05 0.17,-0.06 0.05,-0.02 0.11,-0.02 0.18,-0.02 0.13,0 0.25,0.02 0.34,0.08 0.09,0.05 0.17,0.12 0.23,0.21 0.06,0.09 0.1,0.2 0.13,0.32 0.03,0.12 0.04,0.25 0.04,0.39zm-0.54 0.04c0,-0.08 0,-0.16 -0.01,-0.23 -0.01,-0.07 -0.03,-0.13 -0.06,-0.19 -0.03,-0.05 -0.07,-0.1 -0.11,-0.13 -0.05,-0.03 -0.11,-0.05 -0.17,-0.05 -0.04,0 -0.07,0 -0.11,0.01 -0.03,0.01 -0.06,0.03 -0.1,0.05 -0.03,0.03 -0.07,0.06 -0.1,0.09 -0.04,0.04 -0.08,0.09 -0.12,0.14l0 0.6c0.07,0.09 0.14,0.17 0.2,0.21 0.07,0.05 0.14,0.08 0.21,0.08 0.07,0 0.12,-0.02 0.17,-0.05 0.05,-0.04 0.09,-0.08 0.12,-0.14 0.03,-0.05 0.05,-0.11 0.06,-0.18 0.02,-0.07 0.02,-0.14 0.02,-0.21zm2.85 -0.04c0,0.16 -0.01,0.31 -0.05,0.44 -0.03,0.13 -0.08,0.24 -0.15,0.34 -0.07,0.09 -0.15,0.16 -0.25,0.21 -0.1,0.05 -0.21,0.07 -0.34,0.07 -0.05,0 -0.1,0 -0.15,-0.02 -0.04,-0.01 -0.08,-0.02 -0.13,-0.04 -0.04,-0.02 -0.08,-0.05 -0.12,-0.08 -0.04,-0.03 -0.08,-0.07 -0.13,-0.11l0 0.86c0,0.01 0,0.02 -0.01,0.04 -0.01,0.01 -0.02,0.02 -0.04,0.02 -0.02,0.01 -0.05,0.02 -0.08,0.02 -0.03,0 -0.08,0.01 -0.13,0.01 -0.05,0 -0.09,-0.01 -0.12,-0.01 -0.03,0 -0.06,-0.01 -0.08,-0.02 -0.02,0 -0.03,-0.01 -0.04,-0.02 -0.01,-0.02 -0.01,-0.03 -0.01,-0.04l0 -2.56c0,-0.01 0,-0.02 0.01,-0.03 0,-0.01 0.01,-0.02 0.03,-0.03 0.02,-0.01 0.04,-0.01 0.07,-0.01 0.03,-0.01 0.06,-0.01 0.11,-0.01 0.04,0 0.07,0 0.1,0.01 0.03,0 0.05,0 0.07,0.01 0.01,0.01 0.03,0.02 0.03,0.03 0.01,0.01 0.01,0.02 0.01,0.03l0 0.22c0.06,-0.05 0.11,-0.1 0.16,-0.14 0.05,-0.05 0.1,-0.08 0.16,-0.11 0.05,-0.03 0.1,-0.05 0.16,-0.06 0.06,-0.02 0.12,-0.02 0.18,-0.02 0.14,0 0.25,0.02 0.34,0.08 0.1,0.05 0.17,0.12 0.23,0.21 0.06,0.09 0.11,0.2 0.13,0.32 0.03,0.12 0.04,0.25 0.04,0.39zm-0.53 0.04c0,-0.08 -0.01,-0.16 -0.02,-0.23 -0.01,-0.07 -0.03,-0.13 -0.06,-0.19 -0.03,-0.05 -0.06,-0.1 -0.11,-0.13 -0.05,-0.03 -0.1,-0.05 -0.17,-0.05 -0.03,0 -0.07,0 -0.1,0.01 -0.03,0.01 -0.07,0.03 -0.1,0.05 -0.04,0.03 -0.07,0.06 -0.11,0.09 -0.04,0.04 -0.08,0.09 -0.12,0.14l0 0.6c0.07,0.09 0.14,0.17 0.21,0.21 0.06,0.05 0.13,0.08 0.2,0.08 0.07,0 0.13,-0.02 0.17,-0.05 0.05,-0.04 0.09,-0.08 0.12,-0.14 0.03,-0.05 0.05,-0.11 0.07,-0.18 0.01,-0.07 0.02,-0.14 0.02,-0.21zm1.53 0.9c0,0.02 -0.01,0.03 -0.02,0.04 0,0.01 -0.02,0.02 -0.04,0.03 -0.02,0 -0.04,0.01 -0.08,0.01 -0.03,0 -0.07,0.01 -0.12,0.01 -0.05,0 -0.09,-0.01 -0.13,-0.01 -0.03,0 -0.06,-0.01 -0.08,-0.01 -0.02,-0.01 -0.03,-0.02 -0.04,-0.03 -0.01,-0.01 -0.01,-0.02 -0.01,-0.04l0 -1.82c0,-0.02 0,-0.03 0.01,-0.04 0.01,-0.01 0.02,-0.02 0.04,-0.02 0.02,-0.01 0.05,-0.02 0.08,-0.02 0.04,-0.01 0.08,-0.01 0.13,-0.01 0.05,0 0.09,0 0.12,0.01 0.04,0 0.06,0.01 0.08,0.02 0.02,0 0.04,0.01 0.04,0.02 0.01,0.01 0.02,0.02 0.02,0.04l0 1.82zm0.04 -2.45c0,0.11 -0.02,0.18 -0.07,0.22 -0.04,0.04 -0.12,0.06 -0.23,0.06 -0.12,0 -0.2,-0.02 -0.24,-0.06 -0.04,-0.04 -0.06,-0.11 -0.06,-0.21 0,-0.1 0.02,-0.17 0.07,-0.21 0.04,-0.04 0.12,-0.06 0.23,-0.06 0.12,0 0.2,0.01 0.24,0.05 0.04,0.04 0.06,0.11 0.06,0.21zm2.28 2.45c0,0.02 -0.01,0.03 -0.01,0.04 -0.01,0.01 -0.03,0.02 -0.04,0.03 -0.02,0 -0.05,0.01 -0.08,0.01 -0.04,0 -0.08,0.01 -0.13,0.01 -0.05,0 -0.09,-0.01 -0.12,-0.01 -0.04,0 -0.06,-0.01 -0.08,-0.01 -0.02,-0.01 -0.04,-0.02 -0.05,-0.03 0,-0.01 -0.01,-0.02 -0.01,-0.04l0 -1.04c0,-0.09 0,-0.16 -0.02,-0.21 -0.01,-0.05 -0.03,-0.09 -0.05,-0.13 -0.03,-0.04 -0.06,-0.06 -0.1,-0.08 -0.04,-0.02 -0.08,-0.03 -0.13,-0.03 -0.07,0 -0.14,0.02 -0.2,0.07 -0.07,0.05 -0.14,0.12 -0.21,0.21l0 1.21c0,0.02 -0.01,0.03 -0.01,0.04 -0.01,0.01 -0.03,0.02 -0.05,0.03 -0.02,0 -0.04,0.01 -0.07,0.01 -0.04,0 -0.08,0.01 -0.13,0.01 -0.05,0 -0.09,-0.01 -0.13,-0.01 -0.03,0 -0.05,-0.01 -0.07,-0.01 -0.02,-0.01 -0.04,-0.02 -0.04,-0.03 -0.01,-0.01 -0.02,-0.02 -0.02,-0.04l0 -1.83c0,-0.01 0.01,-0.02 0.01,-0.03 0.01,-0.01 0.02,-0.02 0.04,-0.03 0.02,-0.01 0.04,-0.01 0.07,-0.01 0.03,-0.01 0.06,-0.01 0.1,-0.01 0.05,0 0.08,0 0.11,0.01 0.03,0 0.05,0 0.07,0.01 0.01,0.01 0.03,0.02 0.03,0.03 0.01,0.01 0.01,0.02 0.01,0.03l0 0.21c0.1,-0.1 0.21,-0.19 0.31,-0.24 0.11,-0.06 0.21,-0.08 0.33,-0.08 0.12,0 0.23,0.02 0.31,0.06 0.09,0.04 0.16,0.1 0.21,0.17 0.05,0.07 0.09,0.15 0.11,0.24 0.03,0.1 0.04,0.21 0.04,0.34l0 1.13zm2.21 -1.7c0,0.07 0,0.12 -0.02,0.15 -0.02,0.03 -0.03,0.04 -0.06,0.04l-0.21 0c0.03,0.04 0.05,0.07 0.06,0.12 0.02,0.04 0.02,0.08 0.02,0.13 0,0.1 -0.01,0.2 -0.05,0.28 -0.04,0.08 -0.09,0.15 -0.15,0.21 -0.07,0.05 -0.15,0.1 -0.24,0.13 -0.1,0.03 -0.2,0.04 -0.31,0.04 -0.06,0 -0.12,-0.01 -0.17,-0.02 -0.06,-0.01 -0.1,-0.03 -0.13,-0.05 -0.01,0.02 -0.03,0.04 -0.04,0.06 -0.01,0.03 -0.02,0.06 -0.02,0.09 0,0.04 0.02,0.07 0.05,0.09 0.04,0.03 0.09,0.04 0.15,0.05l0.44 0.01c0.11,0.01 0.2,0.02 0.28,0.05 0.08,0.02 0.15,0.06 0.21,0.1 0.05,0.05 0.1,0.1 0.12,0.17 0.03,0.06 0.05,0.14 0.05,0.22 0,0.09 -0.02,0.17 -0.06,0.25 -0.04,0.08 -0.1,0.15 -0.18,0.21 -0.08,0.06 -0.18,0.11 -0.3,0.14 -0.12,0.03 -0.26,0.05 -0.42,0.05 -0.15,0 -0.29,-0.01 -0.4,-0.04 -0.11,-0.02 -0.2,-0.06 -0.27,-0.1 -0.07,-0.04 -0.12,-0.09 -0.15,-0.15 -0.03,-0.07 -0.05,-0.13 -0.05,-0.21 0,-0.04 0.01,-0.08 0.02,-0.12 0.01,-0.05 0.03,-0.08 0.05,-0.12 0.02,-0.04 0.05,-0.08 0.08,-0.11 0.04,-0.03 0.07,-0.07 0.12,-0.1 -0.06,-0.03 -0.11,-0.07 -0.14,-0.13 -0.03,-0.05 -0.05,-0.11 -0.05,-0.17 0,-0.08 0.02,-0.16 0.06,-0.22 0.03,-0.07 0.08,-0.13 0.14,-0.18 -0.05,-0.05 -0.09,-0.11 -0.11,-0.18 -0.03,-0.06 -0.05,-0.15 -0.05,-0.25 0,-0.1 0.02,-0.2 0.06,-0.28 0.04,-0.09 0.09,-0.16 0.16,-0.21 0.06,-0.06 0.14,-0.11 0.23,-0.14 0.1,-0.03 0.2,-0.04 0.31,-0.04 0.06,0 0.12,0 0.17,0.01 0.05,0 0.1,0.01 0.14,0.02l0.58 0c0.03,0 0.05,0.02 0.06,0.05 0.02,0.03 0.02,0.08 0.02,0.15zm-0.66 0.43c0,-0.09 -0.03,-0.17 -0.08,-0.22 -0.06,-0.06 -0.13,-0.09 -0.23,-0.09 -0.05,0 -0.1,0.01 -0.14,0.03 -0.03,0.02 -0.07,0.04 -0.09,0.07 -0.03,0.03 -0.05,0.06 -0.06,0.1 -0.01,0.04 -0.02,0.08 -0.02,0.12 0,0.1 0.03,0.17 0.09,0.22 0.05,0.06 0.13,0.08 0.22,0.08 0.05,0 0.1,0 0.14,-0.02 0.04,-0.02 0.07,-0.04 0.09,-0.07 0.03,-0.03 0.05,-0.06 0.06,-0.1 0.01,-0.04 0.02,-0.07 0.02,-0.12zm0.12 1.46c0,-0.06 -0.02,-0.1 -0.07,-0.14 -0.05,-0.03 -0.12,-0.05 -0.2,-0.05l-0.37 -0.01c-0.04,0.02 -0.07,0.05 -0.09,0.07 -0.02,0.03 -0.04,0.05 -0.05,0.07 -0.01,0.02 -0.02,0.05 -0.02,0.07 -0.01,0.02 -0.01,0.04 -0.01,0.06 0,0.07 0.03,0.12 0.1,0.16 0.07,0.03 0.17,0.05 0.29,0.05 0.08,0 0.15,-0.01 0.2,-0.03 0.06,-0.01 0.1,-0.03 0.13,-0.06 0.03,-0.02 0.06,-0.05 0.07,-0.09 0.01,-0.03 0.02,-0.06 0.02,-0.1z"/>
    <path class="fil0" d="M31.37 79.06c0,0.04 0,0.06 -0.01,0.09 -0.01,0.02 -0.03,0.04 -0.05,0.06 -0.01,0.02 -0.04,0.03 -0.06,0.04 -0.03,0 -0.05,0.01 -0.08,0.01l-0.23 0c-0.05,0 -0.09,-0.01 -0.12,-0.02 -0.04,-0.01 -0.07,-0.02 -0.1,-0.05 -0.03,-0.02 -0.06,-0.06 -0.09,-0.1 -0.02,-0.04 -0.05,-0.1 -0.09,-0.17l-0.66 -1.24c-0.03,-0.07 -0.07,-0.15 -0.11,-0.24 -0.04,-0.09 -0.08,-0.17 -0.11,-0.25l0 0c0,0.1 0.01,0.2 0.01,0.3 0,0.09 0,0.2 0,0.3l0 1.39c0,0.01 0,0.02 -0.01,0.03 -0.01,0.02 -0.02,0.02 -0.04,0.03 -0.01,0.01 -0.04,0.02 -0.07,0.02 -0.03,0 -0.07,0.01 -0.12,0.01 -0.05,0 -0.09,-0.01 -0.12,-0.01 -0.03,0 -0.06,-0.01 -0.08,-0.02 -0.01,-0.01 -0.03,-0.01 -0.03,-0.03 -0.01,-0.01 -0.01,-0.02 -0.01,-0.03l0 -2.39c0,-0.06 0.02,-0.11 0.05,-0.14 0.04,-0.03 0.09,-0.05 0.14,-0.05l0.29 0c0.05,0 0.1,0 0.13,0.01 0.04,0.01 0.07,0.03 0.1,0.05 0.03,0.02 0.05,0.05 0.08,0.08 0.02,0.04 0.05,0.08 0.07,0.14l0.52 0.97c0.03,0.06 0.06,0.11 0.09,0.17 0.03,0.06 0.06,0.11 0.08,0.17 0.03,0.06 0.06,0.11 0.08,0.17 0.03,0.05 0.05,0.11 0.08,0.16l0 0c0,-0.09 -0.01,-0.19 -0.01,-0.3 0,-0.1 0,-0.2 0,-0.29l0 -1.25c0,-0.01 0,-0.03 0.01,-0.04 0.01,-0.01 0.02,-0.02 0.04,-0.03 0.02,-0.01 0.05,-0.01 0.08,-0.01 0.03,-0.01 0.07,-0.01 0.12,-0.01 0.04,0 0.08,0 0.12,0.01 0.03,0 0.05,0 0.07,0.01 0.01,0.01 0.03,0.02 0.03,0.03 0.01,0.01 0.01,0.02 0.01,0.04l0 2.38zm2.3 -0.84c0,0.06 -0.01,0.11 -0.04,0.14 -0.03,0.03 -0.07,0.04 -0.12,0.04l-1.11 0c0,0.08 0.01,0.15 0.03,0.21 0.02,0.07 0.05,0.12 0.09,0.16 0.04,0.05 0.09,0.08 0.15,0.1 0.07,0.03 0.14,0.04 0.23,0.04 0.09,0 0.17,-0.01 0.24,-0.02 0.07,-0.01 0.12,-0.03 0.17,-0.04 0.05,-0.02 0.09,-0.03 0.13,-0.05 0.03,-0.01 0.06,-0.02 0.08,-0.02 0.01,0 0.02,0 0.03,0.01 0.01,0 0.01,0.01 0.02,0.03 0,0.01 0.01,0.03 0.01,0.05 0,0.02 0,0.05 0,0.08 0,0.03 0,0.06 0,0.08 0,0.02 0,0.04 -0.01,0.05 0,0.02 0,0.03 -0.01,0.04 0,0.01 -0.01,0.02 -0.02,0.03 -0.01,0.01 -0.03,0.02 -0.07,0.04 -0.04,0.02 -0.09,0.03 -0.15,0.05 -0.06,0.02 -0.13,0.03 -0.21,0.04 -0.08,0.01 -0.17,0.02 -0.26,0.02 -0.16,0 -0.3,-0.02 -0.43,-0.06 -0.12,-0.04 -0.22,-0.1 -0.3,-0.19 -0.08,-0.08 -0.14,-0.19 -0.19,-0.31 -0.03,-0.13 -0.06,-0.28 -0.06,-0.45 0,-0.16 0.03,-0.31 0.07,-0.44 0.04,-0.13 0.1,-0.24 0.18,-0.33 0.08,-0.09 0.18,-0.16 0.3,-0.21 0.11,-0.05 0.24,-0.07 0.39,-0.07 0.15,0 0.28,0.02 0.39,0.07 0.11,0.04 0.2,0.1 0.27,0.18 0.07,0.08 0.12,0.18 0.15,0.29 0.04,0.11 0.05,0.23 0.05,0.35l0 0.09zm-0.5 -0.15c0.01,-0.15 -0.02,-0.26 -0.09,-0.34 -0.06,-0.09 -0.15,-0.13 -0.28,-0.13 -0.07,0 -0.13,0.02 -0.17,0.04 -0.05,0.02 -0.09,0.06 -0.13,0.1 -0.03,0.04 -0.05,0.09 -0.07,0.15 -0.02,0.06 -0.03,0.11 -0.03,0.18l0.77 0zm2.68 0.15c0,0.06 -0.02,0.11 -0.05,0.14 -0.02,0.03 -0.06,0.04 -0.11,0.04l-1.12 0c0,0.08 0.01,0.15 0.03,0.21 0.02,0.07 0.05,0.12 0.09,0.16 0.04,0.05 0.09,0.08 0.16,0.1 0.06,0.03 0.14,0.04 0.22,0.04 0.09,0 0.17,-0.01 0.24,-0.02 0.07,-0.01 0.13,-0.03 0.18,-0.04 0.05,-0.02 0.09,-0.03 0.12,-0.05 0.04,-0.01 0.06,-0.02 0.08,-0.02 0.02,0 0.03,0 0.03,0.01 0.01,0 0.02,0.01 0.02,0.03 0.01,0.01 0.01,0.03 0.02,0.05 0,0.02 0,0.05 0,0.08 0,0.03 0,0.06 0,0.08 0,0.02 -0.01,0.04 -0.01,0.05 0,0.02 -0.01,0.03 -0.01,0.04 -0.01,0.01 -0.01,0.02 -0.02,0.03 -0.01,0.01 -0.04,0.02 -0.08,0.04 -0.04,0.02 -0.09,0.03 -0.15,0.05 -0.06,0.02 -0.13,0.03 -0.21,0.04 -0.08,0.01 -0.16,0.02 -0.25,0.02 -0.17,0 -0.31,-0.02 -0.43,-0.06 -0.12,-0.04 -0.22,-0.1 -0.31,-0.19 -0.08,-0.08 -0.14,-0.19 -0.18,-0.31 -0.04,-0.13 -0.06,-0.28 -0.06,-0.45 0,-0.16 0.02,-0.31 0.06,-0.44 0.04,-0.13 0.11,-0.24 0.19,-0.33 0.08,-0.09 0.18,-0.16 0.29,-0.21 0.12,-0.05 0.25,-0.07 0.39,-0.07 0.16,0 0.29,0.02 0.4,0.07 0.1,0.04 0.19,0.1 0.26,0.18 0.07,0.08 0.12,0.18 0.16,0.29 0.03,0.11 0.05,0.23 0.05,0.35l0 0.09zm-0.5 -0.15c0,-0.15 -0.03,-0.26 -0.09,-0.34 -0.06,-0.09 -0.16,-0.13 -0.29,-0.13 -0.06,0 -0.12,0.02 -0.17,0.04 -0.05,0.02 -0.09,0.06 -0.12,0.1 -0.03,0.04 -0.06,0.09 -0.08,0.15 -0.01,0.06 -0.02,0.11 -0.03,0.18l0.78 0zm2.72 1.11c0,0.02 -0.01,0.03 -0.01,0.04 -0.01,0.01 -0.02,0.02 -0.04,0.03 -0.01,0 -0.04,0.01 -0.06,0.01 -0.03,0 -0.07,0.01 -0.11,0.01 -0.04,0 -0.08,-0.01 -0.1,-0.01 -0.03,0 -0.05,-0.01 -0.07,-0.01 -0.02,-0.01 -0.03,-0.02 -0.04,-0.03 0,-0.01 -0.01,-0.02 -0.01,-0.04l0 -0.2c-0.09,0.1 -0.19,0.18 -0.29,0.24 -0.11,0.05 -0.22,0.08 -0.35,0.08 -0.14,0 -0.26,-0.03 -0.35,-0.08 -0.1,-0.06 -0.18,-0.13 -0.24,-0.22 -0.06,-0.09 -0.1,-0.2 -0.13,-0.32 -0.03,-0.12 -0.04,-0.25 -0.04,-0.39 0,-0.16 0.02,-0.31 0.05,-0.44 0.04,-0.13 0.09,-0.24 0.15,-0.33 0.07,-0.09 0.15,-0.16 0.25,-0.21 0.1,-0.05 0.22,-0.07 0.35,-0.07 0.1,0 0.19,0.02 0.28,0.06 0.08,0.04 0.16,0.1 0.25,0.18l0 -0.99c0,-0.01 0,-0.02 0.01,-0.03 0,-0.01 0.02,-0.02 0.04,-0.03 0.02,-0.01 0.04,-0.01 0.08,-0.02 0.03,0 0.07,0 0.12,0 0.05,0 0.09,0 0.13,0 0.03,0.01 0.06,0.01 0.07,0.02 0.02,0.01 0.04,0.02 0.04,0.03 0.01,0.01 0.02,0.02 0.02,0.03l0 2.69zm-0.51 -1.22c-0.08,-0.09 -0.15,-0.16 -0.22,-0.21 -0.06,-0.05 -0.14,-0.08 -0.21,-0.08 -0.07,0 -0.12,0.02 -0.17,0.05 -0.05,0.04 -0.09,0.08 -0.12,0.14 -0.03,0.06 -0.05,0.12 -0.07,0.19 -0.01,0.07 -0.02,0.14 -0.02,0.21 0,0.07 0.01,0.15 0.02,0.22 0.01,0.07 0.03,0.14 0.06,0.2 0.03,0.05 0.07,0.1 0.11,0.13 0.05,0.04 0.11,0.05 0.18,0.05 0.04,0 0.07,0 0.1,-0.01 0.04,-0.01 0.07,-0.03 0.11,-0.05 0.03,-0.03 0.07,-0.06 0.1,-0.09 0.04,-0.04 0.08,-0.09 0.13,-0.14l0 -0.61zm4.45 -0.06c0,0.22 -0.03,0.41 -0.08,0.59 -0.06,0.17 -0.14,0.32 -0.24,0.44 -0.11,0.12 -0.25,0.21 -0.4,0.27 -0.16,0.07 -0.35,0.1 -0.56,0.1 -0.2,0 -0.38,-0.03 -0.54,-0.08 -0.15,-0.06 -0.28,-0.14 -0.38,-0.25 -0.11,-0.11 -0.18,-0.25 -0.23,-0.42 -0.05,-0.17 -0.08,-0.37 -0.08,-0.61 0,-0.21 0.03,-0.4 0.08,-0.58 0.06,-0.17 0.14,-0.31 0.25,-0.43 0.1,-0.12 0.24,-0.22 0.4,-0.28 0.16,-0.06 0.34,-0.1 0.55,-0.1 0.2,0 0.38,0.03 0.53,0.08 0.16,0.06 0.29,0.14 0.39,0.25 0.1,0.11 0.18,0.25 0.23,0.42 0.05,0.17 0.08,0.37 0.08,0.6zm-0.57 0.02c0,-0.14 -0.01,-0.26 -0.03,-0.38 -0.02,-0.11 -0.06,-0.21 -0.11,-0.29 -0.05,-0.08 -0.12,-0.14 -0.21,-0.19 -0.09,-0.04 -0.2,-0.07 -0.33,-0.07 -0.13,0 -0.24,0.03 -0.33,0.08 -0.09,0.05 -0.16,0.12 -0.21,0.2 -0.06,0.08 -0.1,0.18 -0.12,0.29 -0.02,0.11 -0.03,0.23 -0.03,0.36 0,0.14 0.01,0.27 0.03,0.39 0.02,0.11 0.06,0.21 0.11,0.29 0.05,0.08 0.12,0.15 0.21,0.19 0.09,0.04 0.2,0.06 0.33,0.06 0.13,0 0.24,-0.02 0.33,-0.07 0.09,-0.05 0.16,-0.12 0.22,-0.2 0.05,-0.09 0.09,-0.18 0.11,-0.3 0.02,-0.11 0.03,-0.23 0.03,-0.36zm2.79 1.26c0,0.02 0,0.03 -0.01,0.04 0,0.01 -0.02,0.02 -0.03,0.03 -0.02,0 -0.04,0.01 -0.07,0.01 -0.03,0 -0.06,0.01 -0.11,0.01 -0.04,0 -0.08,-0.01 -0.11,-0.01 -0.02,0 -0.05,-0.01 -0.06,-0.01 -0.02,-0.01 -0.03,-0.02 -0.04,-0.03 -0.01,-0.01 -0.01,-0.02 -0.01,-0.04l0 -0.21c-0.1,0.11 -0.2,0.19 -0.31,0.25 -0.1,0.05 -0.21,0.08 -0.32,0.08 -0.13,0 -0.24,-0.02 -0.32,-0.06 -0.09,-0.04 -0.16,-0.1 -0.21,-0.17 -0.05,-0.07 -0.09,-0.15 -0.11,-0.25 -0.02,-0.09 -0.03,-0.21 -0.03,-0.35l0 -1.12c0,-0.01 0,-0.02 0.01,-0.03 0,-0.01 0.02,-0.02 0.04,-0.03 0.02,-0.01 0.04,-0.01 0.08,-0.01 0.03,-0.01 0.07,-0.01 0.12,-0.01 0.05,0 0.09,0 0.13,0.01 0.03,0 0.06,0 0.08,0.01 0.02,0.01 0.03,0.02 0.04,0.03 0.01,0.01 0.01,0.02 0.01,0.03l0 1.04c0,0.09 0.01,0.17 0.02,0.22 0.01,0.05 0.03,0.09 0.06,0.13 0.02,0.03 0.05,0.06 0.09,0.08 0.04,0.02 0.09,0.03 0.14,0.03 0.06,0 0.13,-0.02 0.2,-0.07 0.06,-0.05 0.14,-0.12 0.21,-0.21l0 -1.22c0,-0.01 0,-0.02 0.01,-0.03 0.01,-0.01 0.02,-0.02 0.04,-0.03 0.02,-0.01 0.05,-0.01 0.08,-0.01 0.03,-0.01 0.08,-0.01 0.13,-0.01 0.05,0 0.09,0 0.12,0.01 0.03,0 0.06,0 0.08,0.01 0.02,0.01 0.03,0.02 0.04,0.03 0.01,0.01 0.01,0.02 0.01,0.03l0 1.83zm1.76 -1.66c0,0.05 0,0.09 -0.01,0.13 0,0.03 0,0.05 -0.01,0.07 0,0.02 -0.01,0.03 -0.02,0.04 -0.01,0 -0.02,0.01 -0.03,0.01 -0.02,0 -0.03,-0.01 -0.04,-0.01 -0.02,-0.01 -0.03,-0.01 -0.05,-0.02 -0.02,0 -0.03,-0.01 -0.05,-0.01 -0.03,-0.01 -0.05,-0.01 -0.07,-0.01 -0.03,0 -0.06,0.01 -0.09,0.02 -0.03,0.01 -0.06,0.03 -0.09,0.05 -0.03,0.03 -0.06,0.06 -0.09,0.1 -0.04,0.04 -0.07,0.09 -0.11,0.15l0 1.14c0,0.02 -0.01,0.03 -0.01,0.04 -0.01,0.01 -0.03,0.02 -0.05,0.03 -0.02,0 -0.04,0.01 -0.08,0.01 -0.03,0 -0.07,0.01 -0.12,0.01 -0.05,0 -0.09,-0.01 -0.13,-0.01 -0.03,0 -0.05,-0.01 -0.07,-0.01 -0.02,-0.01 -0.04,-0.02 -0.05,-0.03 0,-0.01 -0.01,-0.02 -0.01,-0.04l0 -1.83c0,-0.01 0,-0.02 0.01,-0.03 0.01,-0.01 0.02,-0.02 0.04,-0.03 0.02,-0.01 0.04,-0.01 0.07,-0.01 0.03,-0.01 0.06,-0.01 0.1,-0.01 0.05,0 0.08,0 0.11,0.01 0.03,0 0.05,0 0.07,0.01 0.01,0.01 0.02,0.02 0.03,0.03 0.01,0.01 0.01,0.02 0.01,0.03l0 0.23c0.05,-0.07 0.1,-0.12 0.14,-0.17 0.04,-0.04 0.08,-0.08 0.12,-0.1 0.04,-0.03 0.08,-0.05 0.11,-0.06 0.04,-0.01 0.08,-0.01 0.12,-0.01 0.02,0 0.04,0 0.06,0 0.02,0 0.04,0.01 0.06,0.01 0.02,0.01 0.04,0.01 0.06,0.02 0.01,0 0.03,0.01 0.03,0.02 0.01,0 0.02,0.01 0.02,0.02 0,0.01 0.01,0.02 0.01,0.03 0,0.02 0,0.04 0,0.07 0.01,0.03 0.01,0.07 0.01,0.11zm2.93 0.94c0,0.14 -0.03,0.26 -0.08,0.36 -0.05,0.11 -0.12,0.2 -0.21,0.27 -0.09,0.07 -0.19,0.12 -0.31,0.16 -0.12,0.03 -0.25,0.05 -0.38,0.05 -0.1,0 -0.18,-0.01 -0.26,-0.02 -0.08,-0.02 -0.15,-0.04 -0.21,-0.06 -0.06,-0.02 -0.11,-0.04 -0.15,-0.07 -0.04,-0.02 -0.07,-0.04 -0.09,-0.06 -0.01,-0.02 -0.03,-0.04 -0.03,-0.08 -0.01,-0.03 -0.02,-0.08 -0.02,-0.14 0,-0.04 0.01,-0.08 0.01,-0.11 0,-0.02 0.01,-0.05 0.01,-0.07 0.01,-0.01 0.02,-0.03 0.03,-0.03 0.01,-0.01 0.02,-0.02 0.03,-0.02 0.02,0 0.05,0.02 0.08,0.04 0.04,0.02 0.08,0.05 0.14,0.07 0.05,0.03 0.12,0.06 0.19,0.08 0.08,0.02 0.17,0.03 0.27,0.03 0.06,0 0.12,-0.01 0.17,-0.02 0.06,-0.02 0.1,-0.04 0.14,-0.07 0.03,-0.03 0.06,-0.06 0.08,-0.1 0.02,-0.04 0.03,-0.09 0.03,-0.14 0,-0.06 -0.02,-0.11 -0.05,-0.16 -0.03,-0.04 -0.07,-0.08 -0.13,-0.11 -0.05,-0.04 -0.11,-0.07 -0.18,-0.1 -0.06,-0.03 -0.13,-0.06 -0.21,-0.09 -0.07,-0.03 -0.14,-0.07 -0.2,-0.11 -0.07,-0.04 -0.13,-0.09 -0.18,-0.15 -0.05,-0.06 -0.1,-0.13 -0.13,-0.21 -0.03,-0.08 -0.05,-0.17 -0.05,-0.28 0,-0.13 0.02,-0.24 0.07,-0.34 0.05,-0.09 0.11,-0.17 0.19,-0.24 0.08,-0.06 0.18,-0.11 0.28,-0.14 0.11,-0.03 0.23,-0.05 0.35,-0.05 0.06,0 0.12,0.01 0.19,0.02 0.06,0.01 0.12,0.02 0.17,0.04 0.06,0.01 0.11,0.03 0.15,0.05 0.04,0.02 0.07,0.04 0.08,0.05 0.02,0.02 0.03,0.03 0.03,0.04 0.01,0.01 0.01,0.02 0.01,0.04 0.01,0.01 0.01,0.03 0.01,0.06 0,0.02 0,0.05 0,0.08 0,0.04 0,0.08 0,0.1 0,0.03 -0.01,0.05 -0.01,0.07 0,0.02 -0.01,0.03 -0.02,0.04 -0.01,0.01 -0.02,0.01 -0.04,0.01 -0.01,0 -0.04,-0.01 -0.07,-0.02 -0.03,-0.02 -0.07,-0.04 -0.12,-0.07 -0.05,-0.02 -0.1,-0.04 -0.17,-0.06 -0.06,-0.02 -0.13,-0.03 -0.2,-0.03 -0.06,0 -0.11,0.01 -0.16,0.02 -0.04,0.02 -0.08,0.04 -0.11,0.06 -0.03,0.03 -0.05,0.06 -0.06,0.1 -0.02,0.03 -0.02,0.07 -0.02,0.11 0,0.06 0.01,0.11 0.04,0.15 0.04,0.04 0.08,0.08 0.13,0.12 0.06,0.03 0.12,0.06 0.19,0.09 0.07,0.03 0.14,0.06 0.21,0.09 0.07,0.04 0.14,0.07 0.21,0.11 0.06,0.05 0.13,0.1 0.18,0.15 0.05,0.06 0.1,0.13 0.13,0.21 0.03,0.08 0.05,0.17 0.05,0.28zm2.29 -0.21c0,0.16 -0.02,0.3 -0.06,0.43 -0.05,0.13 -0.11,0.23 -0.19,0.33 -0.09,0.09 -0.19,0.16 -0.31,0.21 -0.13,0.05 -0.28,0.08 -0.45,0.08 -0.16,0 -0.3,-0.02 -0.42,-0.07 -0.12,-0.04 -0.22,-0.11 -0.3,-0.19 -0.08,-0.09 -0.14,-0.2 -0.18,-0.32 -0.04,-0.13 -0.05,-0.27 -0.05,-0.43 0,-0.16 0.02,-0.3 0.06,-0.43 0.04,-0.13 0.1,-0.24 0.19,-0.33 0.08,-0.09 0.18,-0.17 0.31,-0.22 0.12,-0.05 0.27,-0.07 0.44,-0.07 0.16,0 0.31,0.02 0.43,0.06 0.12,0.05 0.22,0.11 0.29,0.2 0.08,0.09 0.14,0.19 0.18,0.32 0.04,0.12 0.06,0.27 0.06,0.43zm-0.53 0.02c0,-0.09 -0.01,-0.17 -0.02,-0.25 -0.02,-0.07 -0.04,-0.14 -0.08,-0.2 -0.03,-0.05 -0.08,-0.1 -0.13,-0.13 -0.06,-0.03 -0.13,-0.04 -0.22,-0.04 -0.08,0 -0.14,0.01 -0.2,0.04 -0.06,0.02 -0.11,0.07 -0.14,0.12 -0.04,0.05 -0.07,0.12 -0.09,0.19 -0.02,0.08 -0.02,0.17 -0.02,0.26 0,0.1 0,0.18 0.02,0.25 0.01,0.08 0.04,0.15 0.07,0.2 0.04,0.06 0.08,0.1 0.14,0.13 0.06,0.03 0.13,0.05 0.21,0.05 0.08,0 0.15,-0.02 0.21,-0.04 0.05,-0.03 0.1,-0.07 0.14,-0.13 0.04,-0.05 0.06,-0.11 0.08,-0.19 0.02,-0.08 0.03,-0.16 0.03,-0.26zm1.51 0.91c0,0.02 0,0.03 -0.01,0.04 -0.01,0.01 -0.02,0.02 -0.04,0.03 -0.02,0 -0.05,0.01 -0.08,0.01 -0.03,0 -0.07,0.01 -0.12,0.01 -0.05,0 -0.1,-0.01 -0.13,-0.01 -0.03,0 -0.06,-0.01 -0.08,-0.01 -0.02,-0.01 -0.03,-0.02 -0.04,-0.03 -0.01,-0.01 -0.01,-0.02 -0.01,-0.04l0 -2.69c0,-0.02 0,-0.03 0.01,-0.04 0.01,-0.01 0.02,-0.02 0.04,-0.03 0.02,-0.01 0.05,-0.01 0.08,-0.02 0.03,0 0.08,0 0.13,0 0.05,0 0.09,0 0.12,0 0.03,0.01 0.06,0.01 0.08,0.02 0.02,0.01 0.03,0.02 0.04,0.03 0.01,0.01 0.01,0.02 0.01,0.04l0 2.69zm2.31 0c0,0.02 0,0.03 -0.01,0.04 0,0.01 -0.02,0.02 -0.03,0.03 -0.02,0 -0.04,0.01 -0.07,0.01 -0.03,0 -0.06,0.01 -0.11,0.01 -0.04,0 -0.08,-0.01 -0.11,-0.01 -0.02,0 -0.04,-0.01 -0.06,-0.01 -0.02,-0.01 -0.03,-0.02 -0.04,-0.03 0,-0.01 -0.01,-0.02 -0.01,-0.04l0 -0.21c-0.1,0.11 -0.2,0.19 -0.31,0.25 -0.1,0.05 -0.21,0.08 -0.32,0.08 -0.13,0 -0.23,-0.02 -0.32,-0.06 -0.08,-0.04 -0.15,-0.1 -0.21,-0.17 -0.05,-0.07 -0.09,-0.15 -0.11,-0.25 -0.02,-0.09 -0.03,-0.21 -0.03,-0.35l0 -1.12c0,-0.01 0,-0.02 0.01,-0.03 0.01,-0.01 0.02,-0.02 0.04,-0.03 0.02,-0.01 0.05,-0.01 0.08,-0.01 0.03,-0.01 0.08,-0.01 0.13,-0.01 0.04,0 0.09,0 0.12,0.01 0.03,0 0.06,0 0.08,0.01 0.02,0.01 0.03,0.02 0.04,0.03 0.01,0.01 0.01,0.02 0.01,0.03l0 1.04c0,0.09 0.01,0.17 0.02,0.22 0.01,0.05 0.03,0.09 0.06,0.13 0.02,0.03 0.06,0.06 0.09,0.08 0.04,0.02 0.09,0.03 0.14,0.03 0.07,0 0.13,-0.02 0.2,-0.07 0.07,-0.05 0.14,-0.12 0.21,-0.21l0 -1.22c0,-0.01 0.01,-0.02 0.01,-0.03 0.01,-0.01 0.02,-0.02 0.05,-0.03 0.01,-0.01 0.04,-0.01 0.07,-0.01 0.04,-0.01 0.08,-0.01 0.13,-0.01 0.05,0 0.09,0 0.12,0.01 0.04,0 0.06,0 0.08,0.01 0.02,0.01 0.03,0.02 0.04,0.03 0.01,0.01 0.01,0.02 0.01,0.03l0 1.83zm1.67 -0.18c0,0.06 -0.01,0.11 -0.01,0.14 -0.01,0.03 -0.02,0.06 -0.03,0.07 -0.02,0.01 -0.03,0.02 -0.06,0.03 -0.02,0.02 -0.05,0.02 -0.08,0.03 -0.03,0.01 -0.07,0.01 -0.11,0.02 -0.03,0 -0.07,0.01 -0.11,0.01 -0.1,0 -0.19,-0.02 -0.27,-0.04 -0.07,-0.03 -0.13,-0.07 -0.18,-0.12 -0.05,-0.06 -0.09,-0.12 -0.11,-0.21 -0.03,-0.08 -0.04,-0.18 -0.04,-0.29l0 -0.94 -0.22 0c-0.03,0 -0.05,-0.01 -0.06,-0.04 -0.01,-0.04 -0.02,-0.09 -0.02,-0.17 0,-0.04 0,-0.07 0,-0.1 0.01,-0.02 0.01,-0.05 0.02,-0.06 0.01,-0.02 0.02,-0.03 0.03,-0.04 0.01,0 0.02,-0.01 0.03,-0.01l0.22 0 0 -0.41c0,-0.01 0.01,-0.02 0.01,-0.03 0.01,-0.01 0.02,-0.02 0.04,-0.03 0.02,-0.01 0.05,-0.01 0.09,-0.02 0.03,0 0.07,0 0.12,0 0.05,0 0.09,0 0.13,0 0.03,0.01 0.06,0.01 0.08,0.02 0.01,0.01 0.03,0.02 0.04,0.03 0,0.01 0.01,0.02 0.01,0.03l0 0.41 0.4 0c0.01,0 0.02,0.01 0.03,0.01 0.01,0.01 0.02,0.02 0.03,0.04 0,0.01 0.01,0.04 0.01,0.06 0.01,0.03 0.01,0.06 0.01,0.1 0,0.08 -0.01,0.13 -0.02,0.17 -0.02,0.03 -0.04,0.04 -0.06,0.04l-0.4 0 0 0.86c0,0.1 0.01,0.18 0.05,0.23 0.03,0.05 0.08,0.07 0.16,0.07 0.03,0 0.05,0 0.08,0 0.02,-0.01 0.04,-0.01 0.06,-0.02 0.01,-0.01 0.03,-0.01 0.04,-0.02 0.01,0 0.02,0 0.03,0 0.01,0 0.02,0 0.02,0 0.01,0.01 0.02,0.02 0.02,0.03 0,0.02 0.01,0.04 0.01,0.06 0.01,0.02 0.01,0.06 0.01,0.09zm0.95 0.18c0,0.02 -0.01,0.03 -0.02,0.04 0,0.01 -0.02,0.02 -0.04,0.03 -0.02,0 -0.04,0.01 -0.08,0.01 -0.03,0 -0.07,0.01 -0.12,0.01 -0.05,0 -0.09,-0.01 -0.13,-0.01 -0.03,0 -0.06,-0.01 -0.08,-0.01 -0.02,-0.01 -0.03,-0.02 -0.04,-0.03 -0.01,-0.01 -0.01,-0.02 -0.01,-0.04l0 -1.82c0,-0.02 0,-0.03 0.01,-0.04 0.01,-0.01 0.02,-0.02 0.04,-0.02 0.02,-0.01 0.05,-0.02 0.08,-0.02 0.04,-0.01 0.08,-0.01 0.13,-0.01 0.05,0 0.09,0 0.12,0.01 0.04,0 0.06,0.01 0.08,0.02 0.02,0 0.04,0.01 0.04,0.02 0.01,0.01 0.02,0.02 0.02,0.04l0 1.82zm0.04 -2.45c0,0.11 -0.02,0.18 -0.07,0.22 -0.04,0.04 -0.12,0.06 -0.23,0.06 -0.12,0 -0.2,-0.02 -0.24,-0.06 -0.04,-0.04 -0.06,-0.11 -0.06,-0.21 0,-0.1 0.02,-0.17 0.07,-0.21 0.04,-0.04 0.12,-0.06 0.23,-0.06 0.12,0 0.2,0.01 0.24,0.05 0.04,0.04 0.06,0.11 0.06,0.21z"/>
    <path class="fil0" d="M59.54 78.25c0,0.16 -0.02,0.3 -0.06,0.43 -0.04,0.13 -0.1,0.23 -0.19,0.33 -0.08,0.09 -0.19,0.16 -0.31,0.21 -0.13,0.05 -0.28,0.08 -0.44,0.08 -0.17,0 -0.31,-0.02 -0.43,-0.07 -0.12,-0.04 -0.22,-0.11 -0.3,-0.19 -0.08,-0.09 -0.14,-0.2 -0.17,-0.32 -0.04,-0.13 -0.06,-0.27 -0.06,-0.43 0,-0.16 0.02,-0.3 0.06,-0.43 0.04,-0.13 0.11,-0.24 0.19,-0.33 0.08,-0.09 0.19,-0.17 0.31,-0.22 0.13,-0.05 0.27,-0.07 0.44,-0.07 0.17,0 0.31,0.02 0.43,0.06 0.12,0.05 0.22,0.11 0.3,0.2 0.08,0.09 0.13,0.19 0.17,0.32 0.04,0.12 0.06,0.27 0.06,0.43zm-0.53 0.02c0,-0.09 -0.01,-0.17 -0.02,-0.25 -0.01,-0.07 -0.04,-0.14 -0.07,-0.2 -0.04,-0.05 -0.08,-0.1 -0.14,-0.13 -0.06,-0.03 -0.13,-0.04 -0.22,-0.04 -0.07,0 -0.14,0.01 -0.2,0.04 -0.06,0.02 -0.1,0.07 -0.14,0.12 -0.04,0.05 -0.07,0.12 -0.08,0.19 -0.02,0.08 -0.03,0.17 -0.03,0.26 0,0.1 0.01,0.18 0.02,0.25 0.02,0.08 0.04,0.15 0.07,0.2 0.04,0.06 0.08,0.1 0.14,0.13 0.06,0.03 0.13,0.05 0.22,0.05 0.07,0 0.14,-0.02 0.2,-0.04 0.06,-0.03 0.1,-0.07 0.14,-0.13 0.04,-0.05 0.07,-0.11 0.08,-0.19 0.02,-0.08 0.03,-0.16 0.03,-0.26zm2.75 0.91c0,0.02 -0.01,0.03 -0.02,0.04 0,0.01 -0.02,0.02 -0.04,0.03 -0.02,0 -0.04,0.01 -0.08,0.01 -0.03,0 -0.07,0.01 -0.12,0.01 -0.05,0 -0.09,-0.01 -0.13,-0.01 -0.03,0 -0.06,-0.01 -0.08,-0.01 -0.01,-0.01 -0.03,-0.02 -0.04,-0.03 0,-0.01 -0.01,-0.02 -0.01,-0.04l0 -1.04c0,-0.09 -0.01,-0.16 -0.02,-0.21 -0.01,-0.05 -0.03,-0.09 -0.05,-0.13 -0.03,-0.04 -0.06,-0.06 -0.1,-0.08 -0.04,-0.02 -0.08,-0.03 -0.14,-0.03 -0.06,0 -0.13,0.02 -0.19,0.07 -0.07,0.05 -0.14,0.12 -0.21,0.21l0 1.21c0,0.02 -0.01,0.03 -0.02,0.04 0,0.01 -0.02,0.02 -0.04,0.03 -0.02,0 -0.04,0.01 -0.08,0.01 -0.03,0 -0.07,0.01 -0.12,0.01 -0.05,0 -0.09,-0.01 -0.13,-0.01 -0.03,0 -0.06,-0.01 -0.07,-0.01 -0.02,-0.01 -0.04,-0.02 -0.05,-0.03 -0.01,-0.01 -0.01,-0.02 -0.01,-0.04l0 -1.83c0,-0.01 0,-0.02 0.01,-0.03 0.01,-0.01 0.02,-0.02 0.04,-0.03 0.02,-0.01 0.04,-0.01 0.07,-0.01 0.02,-0.01 0.06,-0.01 0.1,-0.01 0.05,0 0.08,0 0.11,0.01 0.03,0 0.05,0 0.07,0.01 0.01,0.01 0.02,0.02 0.03,0.03 0.01,0.01 0.01,0.02 0.01,0.03l0 0.21c0.1,-0.1 0.2,-0.19 0.31,-0.24 0.1,-0.06 0.21,-0.08 0.33,-0.08 0.12,0 0.23,0.02 0.31,0.06 0.09,0.04 0.16,0.1 0.21,0.17 0.05,0.07 0.09,0.15 0.11,0.24 0.03,0.1 0.04,0.21 0.04,0.34l0 1.13z"/>
   </g>
   <path class="fil1" d="M32.5 11.97c10.58,0 19.16,8.58 19.16,19.16 0,10.59 -8.58,19.16 -19.16,19.16 -10.59,0 -19.17,-8.57 -19.17,-19.16 0,-10.58 8.58,-19.16 19.17,-19.16z"/>
   <path class="fil2" d="M32.5 9.36c12.02,0 21.77,9.75 21.77,21.77 0,12.03 -9.75,21.78 -21.77,21.78 -12.03,0 -21.78,-9.75 -21.78,-21.78 0,-12.02 9.75,-21.77 21.78,-21.77zm17.58 29.39c-4.62,-2.87 -3.89,-8.97 -0.61,-14.87 -9.92,1.73 -10.71,12.99 -17.89,18.94 -4.13,3.55 -8.06,5.66 -11.82,2.63 -3.94,-3.51 -6.43,-8.62 -6.43,-14.32 0,-10.58 8.58,-19.16 19.17,-19.16 10.58,0 19.16,8.58 19.16,19.16 0,2.71 -0.57,5.29 -1.58,7.62z"/>
   <path class="fil3" d="M42.84 24.94c-1.14,1.03 -2.11,2.25 -3,3.57l1.94 -15.77c1.11,-2.1 2.22,-4.2 3.33,-6.31 -0.75,6.17 -1.51,12.34 -2.27,18.51zm-11.96 7.17l8.03 -2.15c-0.55,0.89 -1.08,1.82 -1.63,2.75l-5.82 1.56 1.33 4.97c-0.53,0.58 -1.1,1.14 -1.72,1.65 -0.04,0.04 -0.08,0.07 -0.12,0.11l-2.23 -8.31 2.16 -0.58z"/>
   <path class="fil4" d="M20.37 10.19l2.05 -0.55 0.12 -0.03 0.68 2.56 0.59 2.21 4.33 16.14 0.58 2.17 -2.16 0.58 -6.17 1.65 -2.64 0.71 -1.45 -1.93 -8.87 -11.76 0 0 3.65 0.62 7.86 10.43 7.04 -1.89 -4.33 -16.14 -0.43 -1.6 -0.71 -2.66 -0.14 -0.51zm-14.92 9.12l0 0 4.05 1.16 0 0 -4.05 -1.16z"/>
   <path class="fil5" d="M37.05 30.46l-6.17 1.65 -2.16 0.58 -0.58 -2.17 -4.33 -16.14 -0.59 -2.21 -0.68 -2.56 2.16 -0.58 0.59 2.22 0.69 2.55 4.32 16.15 7.04 -1.89 1.59 -12.97 2.84 -2.35 0.01 0 -1.8 14.61 -0.14 1.16c-0.03,0.04 -0.05,0.08 -0.08,0.12l0 0.01c-0.07,0.1 -0.14,0.2 -0.21,0.31l0 0 -0.03 0.04 -0.01 0.02 -0.02 0.03 -0.02 0.04 -0.01 0 -0.03 0.05 -0.02 0.03 -0.01 0.01 -0.02 0.03 0 0.02 -0.01 0 -0.05 0.09 -0.02 0.02 -0.01 0.03 0 0c-0.13,0.2 -0.25,0.4 -0.38,0.6l-1.86 0.5zm2.2 -17.96l0 0 0.7 -0.72 -0.7 0.72z"/>
   <path class="fil6" d="M28.72 32.69l2.23 8.31c-0.65,0.54 -1.28,1.06 -1.91,1.52l-1.9 -7.09 -7.94 2.13 -2.64 0.7 -15.17 -20.11 6.04 3.79 10.32 13.69 8.81 -2.36 2.16 -0.58z"/>
   <polygon class="fil7" points="19.96,0 26.98,8.42 18.09,10.8 "/>
   <polygon class="fil8" points="21.18,4.57 26.98,8.42 18.09,10.8 "/>
   <polygon class="fil9" points="12.18,21.24 11.08,22.56 7.43,21.94 1.39,18.15 "/>
   <polygon class="fil10" points="37.32,14.51 38.93,15.09 41.78,12.73 45.11,6.43 "/>
   <path class="fil11" d="M10.46 56.62c-0.58,0.95 -1,1.83 -1.25,2.63 -0.17,-0.5 -0.31,-0.85 -0.44,-1.07 -0.33,-0.56 -0.89,-0.84 -1.7,-0.84 -0.18,0 -0.49,0.02 -0.93,0.05l0 9.15 1.2 0.97 -4.09 0 1.2 -0.97 0 -9.15c-0.44,-0.03 -0.75,-0.05 -0.93,-0.05 -0.81,0 -1.38,0.28 -1.7,0.84 -0.13,0.22 -0.27,0.57 -0.44,1.07 -0.26,-0.81 -0.67,-1.68 -1.25,-2.63l10.33 0zm0.2 1.09c0.42,-0.27 0.86,-0.5 1.33,-0.69 1.13,-0.44 2.25,-0.66 3.37,-0.66 0.59,0 1.15,0.09 1.7,0.25 0.54,0.17 1,0.4 1.37,0.69 0.67,0.52 1,1.16 1,1.93 0,0.66 -0.25,1.25 -0.76,1.76 -0.51,0.51 -1.2,0.88 -2.08,1.1 0.37,1.04 0.9,2.08 1.59,3.12 0.69,1.04 1.36,1.8 2.01,2.3 -1.04,0.33 -1.95,0.81 -2.73,1.42 -0.2,-1.27 -0.43,-2.35 -0.68,-3.24 -0.25,-0.9 -0.64,-2 -1.16,-3.32 -0.25,0.08 -0.6,0.15 -1.05,0.23 -0.44,0.08 -0.79,0.13 -1.02,0.15l0 3.79 1.2 0.97 -4.09 0 1.19 -0.97 0 -3.55c-0.59,0.05 -1.06,0.14 -1.39,0.26 0.18,-0.33 0.3,-0.66 0.36,-1 0.18,0.01 0.32,0.02 0.43,0.02 0.15,0 0.35,-0.01 0.6,-0.04l0 -3.86 -1.19 -0.66zm2.89 -0.06l0 4.46c1.04,-0.11 1.91,-0.35 2.61,-0.71 0.52,-0.27 0.9,-0.63 1.14,-1.06 0.19,-0.35 0.28,-0.71 0.28,-1.09 0,-0.7 -0.27,-1.26 -0.82,-1.68 -0.45,-0.34 -0.98,-0.51 -1.59,-0.51 -0.62,0 -1.16,0.2 -1.62,0.59zm6.85 -1.03l4.09 0 -1.19 0.99 0 8.93 1.19 0.97 -4.09 0 1.2 -0.97 0 -8.93 -1.2 -0.99zm4.95 0l3.67 0c1.64,0 2.85,0.31 3.63,0.94 1.17,0.93 1.75,2.4 1.75,4.4 0,2.23 -0.62,3.8 -1.87,4.69 -0.44,0.32 -0.92,0.55 -1.44,0.67 -0.52,0.13 -1.21,0.19 -2.06,0.19l-3.68 0 1.2 -0.97 0 -8.93 -1.2 -0.99zm2.9 0.77l0 9.36c0.47,0.04 0.8,0.06 0.99,0.06 1.1,0 1.92,-0.4 2.45,-1.21 0.58,-0.87 0.87,-2.09 0.87,-3.66 0,-1.31 -0.23,-2.36 -0.68,-3.17 -0.54,-0.95 -1.4,-1.43 -2.6,-1.43 -0.17,0 -0.51,0.02 -1.03,0.05zm16.09 -0.77c-0.43,0.52 -0.74,0.94 -0.91,1.26 -0.19,0.32 -0.38,0.77 -0.6,1.35 -0.04,-0.1 -0.09,-0.2 -0.12,-0.29 -0.19,-0.41 -0.37,-0.71 -0.52,-0.89 -0.15,-0.19 -0.34,-0.34 -0.58,-0.45 -0.37,-0.17 -0.94,-0.26 -1.73,-0.26 -0.51,0 -1.05,0.02 -1.61,0.05l0 3.92 2.32 0 1.08 -1.31 0 3.33 -1.08 -1.3 -2.32 0 0 4.73c0.52,0.03 0.89,0.05 1.11,0.05 1.2,0 2.06,-0.17 2.58,-0.51 0.38,-0.26 0.79,-0.78 1.22,-1.57 0.14,0.61 0.32,1.11 0.54,1.49 0.23,0.39 0.59,0.82 1.08,1.29l-9.42 0 1.19 -0.97 0 -4.51c-0.69,-0.02 -1.28,0.18 -1.77,0.6 0.23,-0.87 0.82,-1.32 1.77,-1.32l0 -3.7 -1.19 -0.99 8.96 0zm8.15 8.82l0 -5.66c0,-1.01 -0.12,-1.73 -0.37,-2.18 -0.24,-0.45 -0.7,-0.77 -1.37,-0.98l4.16 0c-0.67,0.21 -1.12,0.53 -1.37,0.98 -0.24,0.44 -0.36,1.17 -0.36,2.18l0 7.73 -1.38 0 -4.68 -9.08 0 5.94c0,1.01 0.12,1.73 0.36,2.17 0.25,0.44 0.7,0.77 1.37,0.97l-4.16 0c0.67,-0.21 1.13,-0.53 1.37,-0.97 0.25,-0.45 0.37,-1.17 0.37,-2.17l0 -6.76 -1.2 -0.99 4.41 0 -1.2 0.99 4.05 7.83zm12.38 -8.82c-0.58,0.95 -1,1.83 -1.25,2.63 -0.17,-0.5 -0.31,-0.85 -0.44,-1.07 -0.32,-0.56 -0.89,-0.84 -1.7,-0.84 -0.18,0 -0.49,0.02 -0.93,0.05l0 9.15 1.2 0.97 -4.09 0 1.2 -0.97 0 -9.15c-0.44,-0.03 -0.75,-0.05 -0.93,-0.05 -0.81,0 -1.37,0.28 -1.7,0.84 -0.13,0.22 -0.27,0.57 -0.44,1.07 -0.26,-0.81 -0.67,-1.68 -1.25,-2.63l10.33 0z"/>
   <path class="fil11" d="M22.22 70.48c-0.08,0.1 -0.17,0.26 -0.28,0.48 -0.12,0.22 -0.21,0.44 -0.3,0.66 -0.04,-0.2 -0.1,-0.36 -0.15,-0.47 -0.09,-0.16 -0.21,-0.29 -0.37,-0.39 -0.18,-0.1 -0.36,-0.15 -0.56,-0.15 -0.24,0 -0.45,0.07 -0.61,0.22 -0.15,0.14 -0.22,0.3 -0.22,0.51 0,0.29 0.14,0.5 0.42,0.63 0.11,0.05 0.2,0.08 0.29,0.11 0.08,0.02 0.32,0.08 0.73,0.18 0.41,0.1 0.71,0.25 0.9,0.46 0.21,0.23 0.32,0.51 0.32,0.82 0,0.36 -0.13,0.67 -0.38,0.92 -0.3,0.29 -0.69,0.44 -1.16,0.44 -0.16,0 -0.31,-0.01 -0.46,-0.05 -0.16,-0.03 -0.4,-0.09 -0.74,-0.19 -0.14,-0.05 -0.27,-0.07 -0.36,-0.07 -0.12,0 -0.29,0.07 -0.51,0.2 0.12,-0.18 0.24,-0.4 0.37,-0.67 0.13,-0.27 0.22,-0.49 0.26,-0.65 0.07,0.26 0.13,0.44 0.19,0.56 0.11,0.17 0.26,0.31 0.46,0.42 0.23,0.11 0.49,0.17 0.79,0.17 0.3,0 0.53,-0.07 0.7,-0.2 0.19,-0.15 0.28,-0.35 0.28,-0.59 0,-0.14 -0.04,-0.28 -0.12,-0.41 -0.08,-0.13 -0.19,-0.24 -0.34,-0.32 -0.11,-0.06 -0.23,-0.11 -0.36,-0.15 -0.13,-0.04 -0.35,-0.09 -0.66,-0.15 -0.43,-0.08 -0.73,-0.22 -0.91,-0.4 -0.2,-0.21 -0.31,-0.48 -0.31,-0.82 0,-0.4 0.15,-0.72 0.44,-0.95 0.25,-0.2 0.56,-0.3 0.94,-0.3 0.27,0 0.59,0.05 0.94,0.17 0.16,0.05 0.29,0.07 0.36,0.07 0.09,0 0.23,-0.03 0.41,-0.09zm0.45 -0.05l1.64 0 -0.48 0.4 0 1.54c0.26,0.07 0.56,0.11 0.92,0.11 0.21,0 0.4,-0.01 0.57,-0.04l0 -1.61 -0.47 -0.4 1.63 0 -0.48 0.4 0 3.57 0.48 0.39 -1.63 0 0.47 -0.39 0 -1.66c-0.21,0.03 -0.42,0.05 -0.64,0.05 -0.35,0 -0.63,-0.03 -0.85,-0.09l0 1.7 0.48 0.39 -1.64 0 0.48 -0.39 0 -1.7c-0.13,0 -0.24,0.02 -0.36,0.08 -0.11,0.05 -0.19,0.12 -0.26,0.21 0.11,-0.34 0.32,-0.55 0.62,-0.61l0 -1.55 -0.48 -0.4zm4.16 0l1.64 0 -0.48 0.4 0 3.57 0.48 0.39 -1.64 0 0.48 -0.39 0 -3.57 -0.48 -0.4zm1.98 0l1.58 0c0.64,0 1.1,0.09 1.38,0.27 0.34,0.23 0.52,0.54 0.52,0.94 0,0.25 -0.08,0.47 -0.23,0.67 -0.26,0.33 -0.79,0.5 -1.58,0.5 -0.11,0 -0.28,-0.01 -0.51,-0.02l0 1.61 0.48 0.39 -1.64 0 0.48 -0.39 0 -1.66c-0.04,0 -0.07,0 -0.11,0 -0.19,0 -0.39,0.04 -0.61,0.12 0.14,-0.29 0.38,-0.43 0.72,-0.42l0 -1.61 -0.48 -0.4zm1.16 0.31l0 1.74c0.13,0.02 0.25,0.02 0.37,0.02 0.32,0 0.57,-0.04 0.78,-0.14 0.15,-0.06 0.26,-0.16 0.33,-0.27 0.06,-0.11 0.1,-0.27 0.1,-0.45 0,-0.17 -0.03,-0.31 -0.1,-0.44 -0.06,-0.14 -0.15,-0.24 -0.26,-0.31 -0.19,-0.11 -0.43,-0.17 -0.74,-0.17 -0.12,0 -0.29,0.01 -0.48,0.02zm2.58 -0.31l1.57 0c0.65,0 1.11,0.09 1.38,0.27 0.35,0.23 0.52,0.54 0.52,0.94 0,0.25 -0.07,0.47 -0.23,0.67 -0.26,0.33 -0.79,0.5 -1.58,0.5 -0.11,0 -0.28,-0.01 -0.51,-0.02l0 1.61 0.48 0.39 -1.63 0 0.47 -0.39 0 -1.66c-0.03,0 -0.07,0 -0.1,0 -0.19,0 -0.4,0.04 -0.62,0.12 0.15,-0.29 0.39,-0.43 0.72,-0.42l0 -1.61 -0.47 -0.4zm1.15 0.31l0 1.74c0.13,0.02 0.26,0.02 0.38,0.02 0.31,0 0.57,-0.04 0.77,-0.14 0.16,-0.06 0.27,-0.16 0.33,-0.27 0.07,-0.11 0.11,-0.27 0.11,-0.45 0,-0.17 -0.04,-0.31 -0.1,-0.44 -0.07,-0.14 -0.15,-0.24 -0.27,-0.31 -0.19,-0.11 -0.43,-0.17 -0.73,-0.17 -0.13,0 -0.29,0.01 -0.49,0.02zm2.58 -0.31l1.64 0 -0.48 0.4 0 3.57 0.48 0.39 -1.64 0 0.48 -0.39 0 -3.57 -0.48 -0.4zm4.88 3.53l0 -2.26c0,-0.41 -0.04,-0.7 -0.14,-0.87 -0.1,-0.18 -0.28,-0.31 -0.55,-0.4l1.66 0c-0.26,0.09 -0.45,0.22 -0.54,0.39 -0.1,0.18 -0.15,0.47 -0.15,0.88l0 3.09 -0.55 0 -1.87 -3.63 0 2.37c0,0.41 0.04,0.7 0.14,0.87 0.1,0.18 0.28,0.31 0.55,0.39l-1.66 0c0.26,-0.08 0.45,-0.21 0.54,-0.39 0.1,-0.18 0.15,-0.47 0.15,-0.87l0 -2.7 -0.48 -0.4 1.76 0 -0.48 0.4 1.62 3.13zm4.78 -3.47l-0.64 1.24c-0.03,-0.28 -0.1,-0.5 -0.21,-0.68 -0.09,-0.13 -0.2,-0.24 -0.33,-0.31 -0.17,-0.09 -0.34,-0.14 -0.54,-0.14 -0.36,0 -0.67,0.14 -0.91,0.4 -0.15,0.17 -0.26,0.36 -0.33,0.57 -0.08,0.3 -0.12,0.62 -0.12,0.97 0,1.31 0.54,1.97 1.62,1.97 0.11,0 0.3,-0.01 0.57,-0.02l0 -1.68 -0.94 0c-0.47,0 -0.7,-0.15 -0.7,-0.46 0,-0.1 0.03,-0.18 0.09,-0.25 0.06,-0.07 0.14,-0.1 0.23,-0.1 0.06,0 0.12,0.02 0.16,0.06 0.05,0.04 0.07,0.09 0.07,0.15 0,0.06 -0.01,0.1 -0.04,0.13 -0.03,0.02 -0.08,0.04 -0.15,0.06 -0.03,0 -0.04,0.02 -0.04,0.05 0,0.05 0.07,0.07 0.22,0.07l2.26 0 -0.48 0.4 0 1.48 0.48 0.39 -1.61 0c-0.37,0 -0.64,-0.01 -0.81,-0.03 -0.17,-0.02 -0.32,-0.06 -0.46,-0.12 -0.42,-0.18 -0.73,-0.48 -0.95,-0.9 -0.17,-0.35 -0.26,-0.74 -0.26,-1.17 0,-0.41 0.08,-0.79 0.24,-1.13 0.18,-0.39 0.46,-0.69 0.84,-0.89 0.3,-0.15 0.6,-0.23 0.9,-0.23 0.23,0 0.5,0.05 0.8,0.14 0.22,0.06 0.36,0.1 0.41,0.11 0.06,0.02 0.12,0.02 0.19,0.02 0.15,0 0.29,-0.03 0.44,-0.1z"/>
   <path class="fil12" d="M3.48 72.33l14 0c0.16,0 0.28,0.13 0.28,0.28l0 0c0,0.16 -0.12,0.28 -0.28,0.28l-14 0c-0.15,0 -0.28,-0.12 -0.28,-0.28l0 0c0,-0.15 0.13,-0.28 0.28,-0.28z"/>
   <path class="fil12" d="M47.43 72.33l14 0c0.15,0 0.28,0.13 0.28,0.28l0 0c0,0.16 -0.13,0.28 -0.28,0.28l-14 0c-0.16,0 -0.28,-0.12 -0.28,-0.28l0 0c0,-0.15 0.12,-0.28 0.28,-0.28z"/>
  </g>
 </g>
</svg>
